<?xml version="1.0" encoding="UTF-8" standalone="no"?>
<!-- Created with Inkscape (http://www.inkscape.org/) -->

<svg
   xmlns:dc="http://purl.org/dc/elements/1.1/"
   xmlns:cc="http://creativecommons.org/ns#"
   xmlns:rdf="http://www.w3.org/1999/02/22-rdf-syntax-ns#"
   xmlns:svg="http://www.w3.org/2000/svg"
   xmlns="http://www.w3.org/2000/svg"
   xmlns:sodipodi="http://sodipodi.sourceforge.net/DTD/sodipodi-0.dtd"
   xmlns:inkscape="http://www.inkscape.org/namespaces/inkscape"
   width="64.340805mm"
   height="64.340805mm"
   viewBox="0 0 227.97923 227.97923"
   id="svg17798"
   version="1.1"
   inkscape:version="0.91 r13725"
   sodipodi:docname="credito.svg">
  <defs
     id="defs17800" />
  <sodipodi:namedview
     id="base"
     pagecolor="#ffffff"
     bordercolor="#666666"
     borderopacity="1.0"
     inkscape:pageopacity="0.0"
     inkscape:pageshadow="2"
     inkscape:zoom="0.35"
     inkscape:cx="246.13249"
     inkscape:cy="-34.581789"
     inkscape:document-units="px"
     inkscape:current-layer="layer1"
     showgrid="false"
     fit-margin-top="1"
     fit-margin-left="1"
     fit-margin-right="1"
     fit-margin-bottom="1"
     inkscape:window-width="1366"
     inkscape:window-height="768"
     inkscape:window-x="0"
     inkscape:window-y="0"
     inkscape:window-maximized="0" />
  <metadata
     id="metadata17803">
    <rdf:RDF>
      <cc:Work
         rdf:about="">
        <dc:format>image/svg+xml</dc:format>
        <dc:type
           rdf:resource="http://purl.org/dc/dcmitype/StillImage" />
        <dc:title></dc:title>
      </cc:Work>
    </rdf:RDF>
  </metadata>
  <g
     inkscape:label="Layer 1"
     inkscape:groupmode="layer"
     id="layer1"
     transform="translate(-68.867509,-269.80117)">
    <g
       style="display:inline"
       id="g8524"
       transform="translate(-1030.263,-61.764949)">
      <circle
         style="color:#000000;clip-rule:nonzero;display:inline;overflow:visible;visibility:visible;opacity:1;isolation:auto;mix-blend-mode:normal;color-interpolation:sRGB;color-interpolation-filters:linearRGB;solid-color:#000000;solid-opacity:1;fill:none;fill-opacity:1;fill-rule:evenodd;stroke:#3cff45;stroke-width:3.93238211;stroke-linecap:butt;stroke-linejoin:miter;stroke-miterlimit:4;stroke-dasharray:none;stroke-dashoffset:0;stroke-opacity:1;color-rendering:auto;image-rendering:auto;shape-rendering:auto;text-rendering:auto;enable-background:accumulate"
         id="circle8497"
         cx="1213.1201"
         cy="445.55573"
         r="108.48011" />
      <g
         id="g9195"
         transform="matrix(1.6823612,0,0,1.6823612,1561.3689,-1802.7517)"
         style="color:#000000;clip-rule:nonzero;display:inline;overflow:visible;visibility:visible;opacity:1;isolation:auto;mix-blend-mode:normal;color-interpolation:sRGB;color-interpolation-filters:linearRGB;solid-color:#000000;solid-opacity:1;fill:#3cff45;fill-opacity:1;fill-rule:nonzero;stroke-width:1;stroke-linecap:butt;stroke-linejoin:miter;stroke-miterlimit:4;stroke-dasharray:none;stroke-dashoffset:0;stroke-opacity:1;color-rendering:auto;image-rendering:auto;shape-rendering:auto;text-rendering:auto;enable-background:accumulate">
        <path
           id="path9197"
           d="m -221,1296.4 c -8,0 -15.3,1.6 -20.7,4.3 -5.4,2.7 -9.3,6.7 -9.3,11.7 0,0.3 0,0.6 0,0.9 l 0,47.1 c 0,4.9 3.9,9 9.3,11.7 5.4,2.7 12.7,4.3 20.7,4.3 7.6,0 14.5,-1.4 19.8,-3.9 3.2,1.2 6.6,1.9 10.2,1.9 15.4,0 28,-12.6 28,-28 0,-15.4 -12.6,-28 -28,-28 l 0,-4 0,-2 c 0,-4.9 -3.9,-9 -9.3,-11.7 -5.4,-2.7 -12.7,-4.3 -20.7,-4.3 z m 0,4 c 7.5,0 14.2,1.5 18.9,3.9 4.7,2.4 7.1,5.3 7.1,8.1 0,2.8 -2.4,5.8 -7.1,8.1 -4.7,2.4 -11.4,3.9 -18.9,3.9 -7.5,0 -14.2,-1.5 -18.9,-3.9 -4.4,-2.2 -6.8,-5 -7.1,-7.6 l 0,-0.5 0,0 c 0,-2.8 2.4,-5.8 7.1,-8.1 4.7,-2.4 11.4,-3.9 18.9,-3.9 z m -26,20.1 c 1.5,1.3 3.3,2.5 5.3,3.5 5.4,2.7 12.7,4.3 20.7,4.3 3.2,0 6.3,-0.3 9.2,-0.8 -2.3,2.5 -4.1,5.4 -5.3,8.6 -1.3,0.1 -2.6,0.2 -3.9,0.2 -7.5,0 -14.2,-1.6 -18.9,-3.9 -4.5,-2.3 -6.9,-5.1 -7.1,-7.8 l 0,-4.1 z m 56,1.9 c 13.3,0 24,10.7 24,24 0,13.3 -10.7,24 -24,24 -13.3,0 -24,-10.7 -24,-24 0,-13.3 10.7,-24 24,-24 z m -56,10.1 c 1.5,1.4 3.3,2.5 5.3,3.5 5.4,2.7 12.7,4.3 20.7,4.3 0.9,0 1.8,0 2.7,-0.1 -0.4,2 -0.7,4 -0.7,6.1 0,0.7 0,1.3 0.1,1.9 -0.7,0 -1.4,0.1 -2.1,0.1 -7.5,0 -14.2,-1.6 -18.9,-3.9 -4.7,-2.4 -7.1,-5.3 -7.1,-8.1 l 0,-3.8 z m 0,12 c 1.5,1.4 3.3,2.5 5.3,3.5 5.4,2.7 12.7,4.3 20.7,4.3 0.9,0 1.8,0 2.6,-0.1 0.6,2.8 1.6,5.4 3,7.8 -1.8,0.2 -3.7,0.3 -5.6,0.3 -7.5,0 -14.2,-1.6 -18.9,-3.9 -4.7,-2.4 -7.1,-5.3 -7.1,-8.1 l 0,-3.8 z m 0,12 c 1.5,1.4 3.3,2.5 5.3,3.5 5.4,2.7 12.7,4.3 20.7,4.3 2.8,0 5.5,-0.2 8.1,-0.6 2,2.5 4.3,4.6 7,6.3 -4.2,1.4 -9.4,2.3 -15.1,2.3 -7.5,0 -14.2,-1.6 -18.9,-3.9 -4.7,-2.4 -7.1,-5.3 -7.1,-8.1 l 0,-3.8 z"
           class="st0"
           inkscape:connector-curvature="0"
           style="color:#000000;clip-rule:nonzero;display:inline;overflow:visible;visibility:visible;isolation:auto;mix-blend-mode:normal;color-interpolation:sRGB;color-interpolation-filters:linearRGB;solid-color:#000000;solid-opacity:1;fill:#3cff45;fill-opacity:1;fill-rule:nonzero;stroke-width:1;stroke-linecap:butt;stroke-linejoin:miter;stroke-miterlimit:4;stroke-dasharray:none;stroke-dashoffset:0;stroke-opacity:1;color-rendering:auto;image-rendering:auto;shape-rendering:auto;text-rendering:auto;enable-background:accumulate" />
      </g>
    </g>
  </g>
</svg>
