<?xml version="1.0" encoding="UTF-8" standalone="no"?>
<!-- Created with Inkscape (http://www.inkscape.org/) -->

<svg
   xmlns:dc="http://purl.org/dc/elements/1.1/"
   xmlns:cc="http://creativecommons.org/ns#"
   xmlns:rdf="http://www.w3.org/1999/02/22-rdf-syntax-ns#"
   xmlns:svg="http://www.w3.org/2000/svg"
   xmlns="http://www.w3.org/2000/svg"
   xmlns:sodipodi="http://sodipodi.sourceforge.net/DTD/sodipodi-0.dtd"
   xmlns:inkscape="http://www.inkscape.org/namespaces/inkscape"
   width="26.086647mm"
   height="34.409424mm"
   viewBox="0 0 92.433 121.92315"
   id="svg20148"
   version="1.1"
   inkscape:version="0.91 r13725"
   sodipodi:docname="empresarial.svg">
  <defs
     id="defs20150" />
  <sodipodi:namedview
     id="base"
     pagecolor="#ffffff"
     bordercolor="#666666"
     borderopacity="1.0"
     inkscape:pageopacity="0.0"
     inkscape:pageshadow="2"
     inkscape:zoom="0.35"
     inkscape:cx="97.433003"
     inkscape:cy="64.780279"
     inkscape:document-units="px"
     inkscape:current-layer="layer1"
     showgrid="false"
     fit-margin-top="0"
     fit-margin-left="0"
     fit-margin-right="0"
     fit-margin-bottom="0"
     inkscape:window-width="1366"
     inkscape:window-height="768"
     inkscape:window-x="0"
     inkscape:window-y="0"
     inkscape:window-maximized="0" />
  <metadata
     id="metadata20153">
    <rdf:RDF>
      <cc:Work
         rdf:about="">
        <dc:format>image/svg+xml</dc:format>
        <dc:type
           rdf:resource="http://purl.org/dc/dcmitype/StillImage" />
        <dc:title></dc:title>
      </cc:Work>
    </rdf:RDF>
  </metadata>
  <g
     inkscape:label="Camada 1"
     inkscape:groupmode="layer"
     id="layer1"
     transform="translate(-230.42414,-500.93363)">
    <g
       style="display:inline;fill:#ff00ff;fill-opacity:1;fill-rule:evenodd;stroke:#666666;stroke-width:1"
       id="Group-271"
       transform="matrix(0.5,0,0,0.5,530.23614,789.44928)">
      <path
         style="fill:none;fill-opacity:1;stroke:#a1a5f6;stroke-width:8.25;stroke-linejoin:round;stroke-opacity:1"
         inkscape:connector-curvature="0"
         d="m -516.0172,-526.8757 -51.573,-46.031 0,235.357 51.573,0 0,-189.326 0,0 z"
         id="Stroke-225" />
      <path
         style="fill:#a1a5f6;fill-opacity:1;stroke:none"
         inkscape:connector-curvature="0"
         d="m -559.541,-500.579 36.742,0 0,-4.064 -36.742,0 0,4.064 z"
         id="Fill-227" />
      <path
         style="fill:#a1a5f6;fill-opacity:1;stroke:none"
         inkscape:connector-curvature="0"
         d="m -559.541,-493.864 36.742,0 0,-4.064 -36.742,0 0,4.064 z"
         id="Fill-229" />
      <path
         style="fill:#a1a5f6;fill-opacity:1;stroke:none"
         inkscape:connector-curvature="0"
         d="m -559.541,-487.149 36.742,0 0,-4.064 -36.742,0 0,4.064 z"
         id="Fill-231" />
      <path
         style="fill:#a1a5f6;fill-opacity:1;stroke:none"
         inkscape:connector-curvature="0"
         d="m -559.541,-480.434 36.742,0 0,-4.064 -36.742,0 0,4.064 z"
         id="Fill-233" />
      <path
         style="fill:#a1a5f6;fill-opacity:1;stroke:none"
         inkscape:connector-curvature="0"
         d="m -559.541,-473.719 36.742,0 0,-4.064 -36.742,0 0,4.064 z"
         id="Fill-235" />
      <path
         style="fill:#a1a5f6;fill-opacity:1;stroke:none"
         inkscape:connector-curvature="0"
         d="m -559.541,-467.003 36.742,0 0,-4.064 -36.742,0 0,4.064 z"
         id="Fill-237" />
      <path
         style="fill:#a1a5f6;fill-opacity:1;stroke:none"
         inkscape:connector-curvature="0"
         d="m -559.541,-460.289 36.742,0 0,-4.064 -36.742,0 0,4.064 z"
         id="Fill-239" />
      <path
         style="fill:#a1a5f6;fill-opacity:1;stroke:none"
         inkscape:connector-curvature="0"
         d="m -559.541,-453.573 36.742,0 0,-4.064 -36.742,0 0,4.064 z"
         id="Fill-241" />
      <path
         style="fill:#a1a5f6;fill-opacity:1;stroke:none"
         inkscape:connector-curvature="0"
         d="m -559.541,-446.858 36.742,0 0,-4.064 -36.742,0 0,4.064 z"
         id="Fill-243" />
      <path
         style="fill:#a1a5f6;fill-opacity:1;stroke:none"
         inkscape:connector-curvature="0"
         d="m -559.541,-440.142 36.742,0 0,-4.064 -36.742,0 0,4.064 z"
         id="Fill-245" />
      <path
         style="fill:#a1a5f6;fill-opacity:1;stroke:none"
         inkscape:connector-curvature="0"
         d="m -559.541,-433.428 36.742,0 0,-4.064 -36.742,0 0,4.064 z"
         id="Fill-247" />
      <path
         style="fill:#a1a5f6;fill-opacity:1;stroke:none"
         inkscape:connector-curvature="0"
         d="m -559.541,-426.712 36.742,0 0,-4.064 -36.742,0 0,4.064 z"
         id="Fill-249" />
      <path
         style="fill:#a1a5f6;fill-opacity:1;stroke:none"
         inkscape:connector-curvature="0"
         d="m -559.541,-419.997 36.742,0 0,-4.064 -36.742,0 0,4.064 z"
         id="Fill-251" />
      <path
         style="fill:#a1a5f6;fill-opacity:1;stroke:none"
         inkscape:connector-curvature="0"
         d="m -559.541,-413.282 36.742,0 0,-4.064 -36.742,0 0,4.064 z"
         id="Fill-253" />
      <path
         style="fill:#a1a5f6;fill-opacity:1;stroke:none"
         inkscape:connector-curvature="0"
         d="m -559.541,-406.567 36.742,0 0,-4.064 -36.742,0 0,4.064 z"
         id="Fill-255" />
      <path
         style="fill:#a1a5f6;fill-opacity:1;stroke:none"
         inkscape:connector-curvature="0"
         d="m -559.541,-399.852 36.742,0 0,-4.064 -36.742,0 0,4.064 z"
         id="Fill-257" />
      <path
         style="fill:#a1a5f6;fill-opacity:1;stroke:none"
         inkscape:connector-curvature="0"
         d="m -559.541,-393.137 36.742,0 0,-4.064 -36.742,0 0,4.064 z"
         id="Fill-259" />
      <path
         style="fill:#a1a5f6;fill-opacity:1;stroke:none"
         inkscape:connector-curvature="0"
         d="m -559.541,-386.421 36.742,0 0,-4.064 -36.742,0 0,4.064 z"
         id="Fill-261" />
      <path
         style="fill:#a1a5f6;fill-opacity:1;stroke:none"
         inkscape:connector-curvature="0"
         d="m -559.541,-379.706 36.742,0 0,-4.064 -36.742,0 0,4.064 z"
         id="Fill-263" />
      <path
         style="fill:#a1a5f6;fill-opacity:1;stroke:none"
         inkscape:connector-curvature="0"
         d="m -559.541,-372.991 36.742,0 0,-4.064 -36.742,0 0,4.064 z"
         id="Fill-265" />
      <g
         style="fill:#ff00ff;fill-opacity:1;stroke:#666666"
         id="Clip-268" />
      <path
         style="fill:none;fill-opacity:1;stroke:#a1a5f6;stroke-width:8.25;stroke-linejoin:round;stroke-opacity:1"
         inkscape:connector-curvature="0"
         d="m -494.3358,-572.9063 -43.346,0 -0.697,26.831 22.37,18.737 0,39.092 21.673,0 0,-84.66 0,0 z"
         id="Stroke-269"
         mask="none" />
      <path
         style="fill:#a1a5f6;fill-opacity:1;stroke:#ffffff"
         inkscape:connector-curvature="0"
         d="m -599.124,-333.685 183.866,0 0,-18.019 -183.866,0 0,18.019 z"
         id="Fill-270"
         mask="none" />
      <path
         style="color:#000000;clip-rule:nonzero;display:inline;overflow:visible;visibility:visible;opacity:1;isolation:auto;mix-blend-mode:normal;color-interpolation:sRGB;color-interpolation-filters:linearRGB;solid-color:#000000;solid-opacity:1;fill:none;fill-opacity:1;fill-rule:nonzero;stroke:#a1a5f6;stroke-width:8.25;stroke-linecap:butt;stroke-linejoin:round;stroke-miterlimit:4;stroke-dasharray:none;stroke-dashoffset:0;stroke-opacity:1;color-rendering:auto;image-rendering:auto;shape-rendering:auto;text-rendering:auto;enable-background:accumulate"
         inkscape:connector-curvature="0"
         d="m -516.009,-351.704 43.346,0 0,-136.542 -43.346,0 0,136.542 z"
         id="Stroke-267"
         mask="none" />
    </g>
  </g>
</svg>
