<?xml version="1.0" encoding="UTF-8" standalone="no"?>
<!-- Created with Inkscape (http://www.inkscape.org/) -->

<svg
   xmlns:dc="http://purl.org/dc/elements/1.1/"
   xmlns:cc="http://creativecommons.org/ns#"
   xmlns:rdf="http://www.w3.org/1999/02/22-rdf-syntax-ns#"
   xmlns:svg="http://www.w3.org/2000/svg"
   xmlns="http://www.w3.org/2000/svg"
   xmlns:sodipodi="http://sodipodi.sourceforge.net/DTD/sodipodi-0.dtd"
   xmlns:inkscape="http://www.inkscape.org/namespaces/inkscape"
   width="90.498955"
   height="90.508797"
   viewBox="0 0 90.498957 90.508796"
   id="svg9366"
   version="1.1"
   inkscape:version="0.91 r13725"
   sodipodi:docname="mundo.svg">
  <defs
     id="defs9368" />
  <sodipodi:namedview
     id="base"
     pagecolor="#ffffff"
     bordercolor="#666666"
     borderopacity="1.0"
     inkscape:pageopacity="0.0"
     inkscape:pageshadow="2"
     inkscape:zoom="0.35"
     inkscape:cx="-337.35818"
     inkscape:cy="-46.634064"
     inkscape:document-units="px"
     inkscape:current-layer="layer1"
     showgrid="false"
     units="px"
     fit-margin-top="0"
     fit-margin-left="0"
     fit-margin-right="0"
     fit-margin-bottom="0"
     inkscape:window-width="959"
     inkscape:window-height="1058"
     inkscape:window-x="2326"
     inkscape:window-y="0"
     inkscape:window-maximized="0" />
  <metadata
     id="metadata9371">
    <rdf:RDF>
      <cc:Work
         rdf:about="">
        <dc:format>image/svg+xml</dc:format>
        <dc:type
           rdf:resource="http://purl.org/dc/dcmitype/StillImage" />
        <dc:title></dc:title>
      </cc:Work>
    </rdf:RDF>
  </metadata>
  <g
     inkscape:label="Camada 1"
     inkscape:groupmode="layer"
     id="layer1"
     transform="translate(30.498958,-446.6479)">
    <g
       id="layer1-6"
       transform="matrix(0.23646481,0,0,0.23646577,-28.974144,447.95283)"
       style="display:inline;stroke:#ffffff;stroke-width:4.2289505">
      <a
         transform="matrix(0.237541,0,0,0.237541,315.918,169.758)"
         id="a7312"
         style="fill:none;stroke:#ffffff;stroke-width:4.2289505">
        <path
           style="fill:none;stroke:#ffffff;stroke-width:68.28643799;stroke-miterlimit:4"
           inkscape:connector-curvature="0"
           stroke-miterlimit="4"
           id="path1961"
           d="m 219.91821,67.785095 a 771.43641,771.43323 0 1 1 -1542.87281,0 771.43641,771.43323 0 1 1 1542.87281,0 z" />
      </a>
      <path
         style="fill:none;fill-rule:evenodd;stroke:#ffffff;stroke-width:8.03640175;stroke-miterlimit:4"
         inkscape:connector-curvature="0"
         stroke-miterlimit="4"
         id="path3740"
         d="m 143.06866,46.016006 c -1.38882,-4.696289 -0.76583,-9.310181 5.42951,-10.859009 4.98618,-1.246552 8.8038,0.513794 13.57379,-0.678696 5.3711,-1.342773 9.88037,-2.809433 14.93115,-4.072144 5.16907,-1.292252 7.56217,5.42952 12.89511,5.42952 5.57785,0 8.508,-2.805695 13.57377,-4.072128 4.60766,-1.151917 9.17572,4.125793 10.18035,8.144257 1.62183,6.487335 3.44187,8.192734 8.14426,12.895096 4.06842,4.068405 -2.98978,8.565674 -4.07214,12.895096 -1.26877,5.075073 -3.03171,12.306839 -8.82294,10.859024 -5.88437,-1.471085 -6.60879,5.60762 -13.57379,-1.357361 -2.22418,-2.224197 -7.84934,3.393433 -12.2164,3.393433 -4.64673,0 -9.03259,-4.541183 -12.89511,-0.678696 -3.54328,3.543289 -6.13224,4.738815 -11.53772,2.036072 -3.10291,-1.551453 -10.22751,-3.914261 -13.57376,-4.750809 -5.3928,-1.348206 -9.48484,-2.002426 -12.2164,-7.465591 -2.39264,-4.785263 3.24096,-9.349167 6.10818,-12.2164 2.90405,-2.904053 2.51608,-5.611542 4.07215,-9.501663 z" />
      <path
         style="fill:none;fill-rule:evenodd;stroke:#ffffff;stroke-width:8.03640175;stroke-miterlimit:4"
         inkscape:connector-curvature="0"
         stroke-miterlimit="4"
         id="path3742"
         d="m 119.31454,69.091446 c 2.52183,5.043655 -1.21466,9.69194 2.71476,14.931168 3.89016,5.186874 6.069,9.52124 12.89508,6.1082 6.82867,-3.414337 6.55447,6.340637 3.39346,9.501633 -1.30527,1.305283 -10.79297,0 -12.89511,0 -6.49002,0 -9.20026,-0.175598 -12.89508,4.750843 -3.43372,4.57827 -7.90219,5.91366 -5.42951,10.85902 1.75,3.50002 -0.0331,10.92512 -1.35739,13.57378 -2.21631,4.43258 -2.92996,9.07125 -0.67868,13.57379 2.1478,4.29559 9.50165,7.78894 9.50165,0.67868 0,-6.69864 3.9238,-6.63852 8.14426,-10.85901 2.72333,-2.72336 -0.21234,-10.6467 3.39346,-14.25249 4.11344,-4.11345 6.49787,6.88751 7.46555,8.82295 2.70602,5.41199 3.65542,8.17109 8.14428,11.53772 3.35621,2.51715 4.65064,10.75882 7.46558,13.5738 4.26068,4.26068 -3.58395,10.94238 -4.07211,12.89508 -1.4863,5.94516 -6.72428,5.17056 -12.2164,4.07214 -7.20749,-1.4415 -7.20938,-1.02032 -11.53772,4.75082 -2.37015,3.16019 5.02517,10.31754 -3.39347,6.10822 -5.45043,-2.72522 -8.12844,3.38553 -12.2164,5.4295 -4.47583,2.23792 -9.870875,-3.27395 -11.537715,3.39344 -1.427948,5.71182 -1.276276,10.229 -8.144287,6.10821 -4.776093,-2.86566 -7.969025,4.40039 -10.180298,8.82294 -2.85495,5.7099 1.45636,9.11282 -4.750824,12.21643 -7.476334,3.73816 -1.357391,-5.35391 -1.357391,-8.14429 0,-4.14255 -5.627563,-10.57644 -7.465591,-14.25247 -2.692078,-5.38415 -5.118561,-6.70914 -10.859039,-8.14426 -6.684998,-1.67123 -9.233505,2.85721 -11.537689,7.46558 -2.181534,4.36307 0.434738,9.11999 -0.67868,13.57379 -1.41246,5.64975 4.680435,8.85816 8.822937,6.78687 5.608414,-2.8042 9.360565,2.85583 5.429535,6.78692 -4.370331,4.37033 -5.33107,4.65586 -0.678711,10.85901 5.464111,7.28546 3.393448,1.65296 3.393448,10.85901 0,2.71478 0,5.42954 0,8.14432 0,2.64892 -0.353455,5.47897 3.478287,7.80488 4.650574,2.823 6.901947,4.54969 11.834641,3.56311 4.215271,-0.84301 7.040741,0.83118 10.477264,2.20575 4.8638,1.9455 7.389313,7.69129 11.53772,10.18036 5.305908,3.18354 9.469513,5.28095 14.931153,7.46558 4.17422,1.66968 9.6156,3.9978 12.2164,7.46558 3.04132,4.05511 7.16656,8.08966 10.85904,10.859 4.3291,3.24683 9.57556,4.14606 13.57379,8.14429 3.7265,3.7265 7.38519,3.96497 11.53772,9.50165 3.90097,5.20135 9.33829,5.68719 14.25247,8.14429 4.28049,2.14026 7.44516,-6.80732 12.89508,-1.35742 2.83975,2.83978 7.41437,6.58209 8.14426,9.50164 1.36398,5.45588 -5.80862,7.46558 -9.50165,7.46558 -2.89288,0 -0.39355,0.59039 -1.35739,2.03607 -3.64783,0 -2.04254,8.14691 -5.42947,9.50165 -1.62467,0.6499 -3.95594,0.98901 -5.42954,1.35742 l -3.39343,0 c -0.90494,-0.22626 -1.80985,-0.45251 -2.71475,-0.67871 -2.92572,-0.73145 -10.69144,4.66705 -13.5738,6.10821 -3.63687,1.81842 -9.87435,1.07715 -13.65863,2.96924 -15.67715,-4.95654 -32.05996,-12.22003 -46.150843,-20.53033 -0.487457,-0.33997 1.534943,-12.79444 0.08484,-15.6947 -2.255829,-4.51166 -6.401764,-9.06598 -10.859039,-10.1803 -5.990784,-1.49774 -9.62796,-8.64966 -10.859009,-13.57379 -1.339813,-5.35932 -3.177994,-10.07264 -7.465576,-12.21643 -7.1996,-3.5998 -0.64772,-8.49909 2.714752,-10.18036 4.803314,-2.40161 6.50946,-8.88269 3.393433,-12.21637 -5.153168,-5.51307 -7.257614,-3.79847 -11.53772,-5.93854 -3.512314,-1.75617 -6.423279,-3.46613 -7.465576,-7.63524 -1.142303,-4.56918 -3.579544,-8.88873 -4.750809,-13.57379 -1.172058,-4.6882 -2.264389,-9.0575 -3.393448,-13.57376 -0.523605,-2.09446 -7.144226,-9.97809 -8.822968,-12.21643 -3.728729,-14.42164 -7.429504,-24.41568 -7.423157,-27.27482 0.02034,-9.18869 3.170456,-5.79019 3.054092,-10.05307 -0.205902,-7.54348 0.04025,-10.58078 1.569473,-15.52502 0.918793,-2.97061 2.50882,-4.64139 1.442215,-8.90781 -1.301819,-5.20724 -0.521881,-9.81524 1.611877,-14.08279 2.585205,-5.17038 3.56311,-5.33585 3.56311,-11.66498 0,-7.15852 6.135956,-13.16345 12.470917,-16.33095 5.572769,-2.78637 9.699326,-7.56442 14.931183,-10.18034 4.616257,-2.30812 11.704483,-5.08438 14.252457,-10.180327 2.294342,-4.588715 4.53656,-9.07309 6.786896,-13.573792 0.776703,-1.553406 -0.391418,-3.113663 0.339355,-4.538727 3.58783,-6.996719 2.979889,-6.243423 10.519684,-11.071121 3.362762,-3.362778 8.822941,-8.681198 8.822941,-13.573776 0,-5.48291 -2.111,-8.748032 2.03607,-12.895096 2.03421,-2.03421 10.82394,-0.678696 13.57379,-0.678696 6.17224,0 8.29175,0.686783 13.57379,2.799591 7.33103,2.932419 0.17621,7.79837 -3.22378,11.19838 -8.68598,6.080521 -11.28,8.569321 -10.35001,21.293869 z" />
      <path
         style="fill:none;fill-rule:evenodd;stroke:#ffffff;stroke-width:8.03640175;stroke-miterlimit:4"
         inkscape:connector-curvature="0"
         stroke-miterlimit="4"
         id="path5518"
         d="m 166.1441,84.361954 c -0.79181,1.244263 -1.58361,2.488525 -2.37542,3.732788 -1.74335,2.739578 1.40783,0.635178 3.0541,4.750824 1.14557,2.863861 -0.25308,4.503464 0.33933,7.465574 0.63699,3.18485 2.91547,5.69901 3.39346,9.16231 0.16742,1.21312 -2.89639,5.12436 -3.73279,6.1082 -3.06466,3.605 -1.30987,9.13121 -2.03607,13.57379 -0.73343,2.93366 3.39344,5.97742 3.39344,8.82297 0,2.26782 2.89349,3.05408 4.75082,3.05408 3.58758,0 3.83343,-0.4213 4.75082,-2.71476 0.70984,-1.77453 0.98798,-5.75082 2.71479,-6.78686 1.20892,-0.72537 5.4295,-3.46497 5.4295,-4.75085 0,-2.56684 3.95026,-4.96831 5.76883,-6.78688 2.04547,-2.04543 4.84152,-3.60848 7.12625,-4.75083 3.34723,-1.67361 4.4115,-2.71043 4.4115,-6.44754 0,-2.4498 -3.569,-5.90927 -3.05411,-8.48363 0.54993,-2.749598 -0.62689,-7.300929 -2.03607,-9.162287 -2.32791,-3.074951 -2.50754,-4.263931 -3.05408,-7.804932 -0.43869,-2.841858 -1.70334,-3.729492 -4.4115,-2.375412 -3.11401,1.557007 -5.03006,2.375412 -8.48364,2.375412 -2.04907,0 -4.22626,-0.33934 -6.44751,-0.33934 -3.55307,1.713501 -5.61651,1.219223 -9.50165,1.357376 z" />
      <path
         style="fill:none;fill-rule:evenodd;stroke:#ffffff;stroke-width:8.03640175;stroke-miterlimit:4"
         inkscape:connector-curvature="0"
         stroke-miterlimit="4"
         id="path5522"
         d="m 243.91223,82.15123 c -4.07236,-0.979721 -4.31094,0.307938 -7.2959,6.277863 -2.63858,9.707184 1.2898,8.512802 2.3754,13.064777 0.95581,4.00778 3.39343,9.23604 3.39343,13.23442 0,5.59459 0.97827,10.84909 6.44754,12.21643 6.54782,1.63693 6.40052,2.03604 12.72544,2.03604 7.00265,0 3.61673,-8.37637 2.03607,-11.5377 -2.48883,-4.97766 -4.78861,-8.68163 -9.50165,-12.21642 -2.92157,-2.19116 -0.93155,-9.328643 3.39343,-0.67868 3.04535,6.09064 6.25095,7.53696 11.53772,10.18033 5.93573,2.96786 3.83274,9.74109 0.67871,12.89511 -3.75531,3.75528 -6.43484,5.75613 -10.18036,9.50165 -2.31494,2.31494 -1.9049,10.33441 -2.71475,13.57379 -1.29477,5.17911 -7.36352,7.56763 -3.39343,11.53769 3.76349,3.76352 8.75787,1.18072 5.4295,9.50165 -2.35452,5.88626 -5.61782,5.23141 -9.50164,8.14428 -4.82349,3.61762 -3.23709,7.09958 -0.67868,12.2164 2.73047,5.46097 1.44784,7.46558 8.82293,7.46558 7.02945,0 7.15921,1.66376 12.21643,-3.39346 2.30433,-2.30432 -0.7406,-10.44184 0,-13.40409 2.01957,-8.07837 5.21543,-3.08032 2.03605,-11.02871 -1.51468,-3.78672 3.89617,-9.67133 7.9746,-9.67133 4.1008,0 11.63099,6.84842 16.62787,5.59918 7.29935,-1.8248 -1.94827,-8.14425 -5.59918,-8.14425 -4.74994,0 -12.46713,-3.33075 -4.07211,-5.42951 5.51187,-1.37799 3.10129,-1.94015 10.01065,-0.16968 2.91669,0.74741 3.11545,2.19135 5.22226,4.7811 1.59491,1.96051 3.03885,1.33267 6.48511,-0.0303 1.11117,-4.81366 -3.47702,-3.85816 -3.65671,-6.60688 -0.20667,-3.1621 2.78845,-4.38205 3.65671,-6.11856 2.05804,-4.11605 -4.18848,-8.44 -5.09015,-12.04672 -1.133,-4.53195 -2.37274,-17.30656 2.88443,-17.30656 5.34631,0 13.58005,1.55206 15.10083,7.63525 1.32712,5.3084 -6.11212,9.17204 -8.14426,14.25246 -1.91367,4.78412 -4.10364,9.47015 -0.67868,12.89511 3.46466,3.46469 5.4295,-6.8779 5.4295,1.35736 0,5.47125 7.14258,-7.53088 7.46558,-8.82294 1.87634,-7.50534 5.4295,3.02973 5.4295,6.7869 0,5.39343 -1.51519,9.93829 -4.75085,14.25244 -3.5314,4.70859 -7.51193,4.8436 -10.1803,10.18036 -3.24334,6.48669 -0.6672,7.45984 -7.4656,10.85904 -4.36817,2.18408 -11.03586,0.50183 -13.57377,-2.03607 -5.15957,-5.15958 -5.87387,-4.19541 -10.85903,2.03607 -3.68592,4.60739 -7.09662,7.09662 -10.85901,10.85901 -3.91526,3.91525 -9.77555,4.6199 -12.21643,9.50165 -2.15818,4.31637 -5.15033,9.9396 -4.07212,14.25247 1.40186,5.60745 -3.32208,9.43026 -6.78689,12.89511 -3.40488,3.40484 -5.06021,10.06045 -6.10819,14.25247 -1.67221,6.68875 0.0149,6.81677 2.71475,12.21639 1.18546,2.37091 -2.94067,10.85711 -3.39346,13.57379 -0.38757,2.32544 8.72824,8.63348 10.18036,11.53772 1.91962,3.83923 9.18121,1.03692 12.2164,4.07214 2.60391,2.60388 10.2467,-0.82776 12.89508,-1.35742 5.41818,-1.08362 8.37506,-4.38977 13.57379,-5.4295 3.07166,-0.61432 6.60031,-6.69361 10.85904,-8.82294 4.8165,-2.40827 8.67517,-2.64087 12.89508,-4.75086 3.43988,-1.71991 -3.43988,9.81781 0,11.53772 4.78467,2.39234 7.75769,2.90369 6.10822,9.50165 -1.05295,4.21179 -2.98609,7.45496 -4.4115,11.36804 -3.18729,8.75 -0.80338,5.89356 -1.01804,12.04676 14.75833,-17.82953 16.70755,-19.39783 28.50492,-39.0246 11.53247,-21.01024 18.30175,-39.62599 21.03942,-65.15419 0.47242,-4.40527 0.67865,-8.9559 0.67865,-13.57376 0,-4.37964 0.5337,-11.91968 -3.39343,-13.57379 -8.46338,-3.56479 -7.96405,-5.62509 -16.28851,-8.14429 -3.95764,-1.97882 -10.55444,-8.42438 -9.50165,-12.89508 4.00598,-0.64044 8.4137,3.99103 12.26526,6.46555 4.03656,2.59347 4.79761,7.97195 11.14947,9.82299 2.79743,-2.36667 -4.03637,-30.78222 -2.03607,-34.78283 -1.53198,-10.95075 -13.96899,-34.4589 -11.36804,-40.2123 C 334.85205,80.652654 331.83313,74.817891 315.68359,56.700383 301.68353,40.994252 284.57495,29.554662 265.63028,20.051167 242.8158,9.831242 221.81336,4.05724 196.40399,4.441319 c -5.92401,-0.586914 -5.43158,5.090164 -12.2164,5.090164 -5.19778,0 -8.18933,-2.703491 -13.57379,-1.357376 -1.38809,0.347015 -2.71475,0.904922 -4.07214,1.357376 -5.07132,1.690445 -7.43494,9.090042 -12.2164,2.714752 -0.71732,-0.95639 16.53418,-3.949295 6.78689,-8.822952 -5.11514,-2.557571 -11.4837,5.953995 -8.82297,9.501648 1.52637,2.035172 -2.90252,6.1082 -8.82296,6.1082 -5.12873,0 -10.16434,-0.6147 -8.82297,4.750824 1.35199,5.407959 5.70492,-0.885254 -2.71472,5.42952 -5.08844,3.816315 7.9443,1.613098 9.50161,0.67868 4.6716,-2.802948 8.03098,-3.393448 13.5738,-3.393448 4.10885,0 8.65914,-3.224945 12.89511,-4.072128 5.9443,-1.188858 10.39837,1.12706 14.93115,3.393448 2.00531,1.002655 11.0148,-1.774612 12.89508,-2.714752 7.51538,-3.75769 3.71664,1.325089 5.42953,4.750809 1.12525,2.250549 8.40525,1.879379 10.85901,6.786911 3.03342,6.066833 0.61957,8.1147 7.46558,11.537704 0.40875,0.204361 6.90131,-2.289597 13.57379,2.714752 4.42471,3.318542 8.31259,1.581818 12.2164,6.786896 0.86917,1.158859 2.23419,2.026901 2.71475,3.393448 1.75675,4.995514 -1.04644,1.980118 2.37543,6.617218 0.68494,0.928192 2.43198,-0.282791 3.39343,4.750824 1.89749,9.933914 9.35587,12.948639 6.61725,16.967224 -2.41159,3.538681 -2.69705,0.714142 -11.36807,-3.902466 -0.44586,-0.111465 -1.19757,-0.67868 -1.35739,-0.67868 -1.09818,0 -1.91565,-0.678696 -2.8844,-0.678696 -0.28281,1.5e-5 -0.56558,1.5e-5 -0.84836,1.5e-5 z" />
    </g>
  </g>
</svg>
