<?xml version="1.0" encoding="UTF-8" standalone="no"?>
<!-- Created with Inkscape (http://www.inkscape.org/) -->

<svg
   xmlns:dc="http://purl.org/dc/elements/1.1/"
   xmlns:cc="http://creativecommons.org/ns#"
   xmlns:rdf="http://www.w3.org/1999/02/22-rdf-syntax-ns#"
   xmlns:svg="http://www.w3.org/2000/svg"
   xmlns="http://www.w3.org/2000/svg"
   xmlns:sodipodi="http://sodipodi.sourceforge.net/DTD/sodipodi-0.dtd"
   xmlns:inkscape="http://www.inkscape.org/namespaces/inkscape"
   width="32.797993mm"
   height="25.12693mm"
   viewBox="0 0 116.21336 89.03243"
   id="svg13453"
   version="1.1"
   inkscape:version="0.91 r13725"
   sodipodi:docname="responsivo.svg">
  <defs
     id="defs13455" />
  <sodipodi:namedview
     id="base"
     pagecolor="#ffffff"
     bordercolor="#666666"
     borderopacity="1.0"
     inkscape:pageopacity="0.0"
     inkscape:pageshadow="2"
     inkscape:zoom="0.35"
     inkscape:cx="278.82096"
     inkscape:cy="170.23051"
     inkscape:document-units="px"
     inkscape:current-layer="layer1"
     showgrid="false"
     fit-margin-top="0"
     fit-margin-left="0"
     fit-margin-right="0"
     fit-margin-bottom="0"
     inkscape:window-width="1366"
     inkscape:window-height="768"
     inkscape:window-x="0"
     inkscape:window-y="0"
     inkscape:window-maximized="0" />
  <metadata
     id="metadata13458">
    <rdf:RDF>
      <cc:Work
         rdf:about="">
        <dc:format>image/svg+xml</dc:format>
        <dc:type
           rdf:resource="http://purl.org/dc/dcmitype/StillImage" />
        <dc:title></dc:title>
      </cc:Work>
    </rdf:RDF>
  </metadata>
  <g
     inkscape:label="Layer 1"
     inkscape:groupmode="layer"
     id="layer1"
     transform="translate(-36.179037,-613.56028)">
    <g
       id="g33450"
       transform="matrix(0.29310317,0,0,0.29310317,36.179037,599.96967)"
       style="display:inline;fill:#ffffff">
      <g
         id="g33404"
         style="fill:#ffffff">
        <path
           id="path33406"
           d="m 304.42,330.901 -43.219,0 c -1.56,0 -2.834,-1.273 -2.834,-2.834 l 0,-10.52 c 0,-1.559 -1.275,-2.834 -2.834,-2.834 l -60.475,0 c -1.56,0 -2.835,1.275 -2.835,2.834 l 0,10.52 c 0,1.561 -1.275,2.834 -2.835,2.834 l -32.491,0 c -1.56,0 -2.835,1.275 -2.835,2.834 l 0,12.17 c 0,1.559 1.275,2.834 2.835,2.834 l 147.521,0 c 1.559,0 2.834,-1.275 2.834,-2.834 l 0,-12.17 c 0.002,-1.556 -1.273,-2.834 -2.832,-2.834 z"
           inkscape:connector-curvature="0"
           style="fill:#ffffff" />
        <g
           id="g33408"
           style="fill:#ffffff">
          <path
             id="path33410"
             d="m 377.032,46.368 -308.4,0 c -10.73,0 -19.459,8.73 -19.459,19.462 0,0 0,37.109 0,50.761 0,6.711 -0.498,7.66 4.004,7.66 2.391,0 5.039,0 7.72,0 3.778,0 3.003,-0.949 3.003,-7.785 0,-13.621 0,-50.636 0,-50.636 0,-2.565 2.168,-4.733 4.732,-4.733 l 308.4,0 c 2.563,0 4.731,2.168 4.731,4.733 l 0,189.999 -219.87,0 c 0,0 -7.749,-0.014 -7.749,10.006 0,5.941 0,17.823 0,23.766 0,10.006 8,10.006 8,10.006 l 214.888,0 c 10.729,0 19.461,-8.729 19.461,-19.459 l 0,-214.318 c 0,-10.731 -8.73,-19.462 -19.461,-19.462 z M 222.833,282.804 c -4.845,0 -8.771,-3.926 -8.771,-8.768 0,-4.842 3.926,-8.77 8.771,-8.77 4.84,0 8.767,3.928 8.767,8.77 0,4.842 -3.927,8.768 -8.767,8.768 z"
             inkscape:connector-curvature="0"
             style="fill:#ffffff" />
          <path
             id="path33412"
             d="m 124.125,141.633 -111.566,0 C 5.632,141.633 0,147.266 0,154.193 l 0,183.372 c 0,6.926 5.632,12.561 12.559,12.561 l 111.566,0 c 6.923,0 12.559,-5.635 12.559,-12.561 l 0,-183.372 c 0,-6.927 -5.636,-12.56 -12.559,-12.56 z m -69.545,12.81 27.523,0 c 1.313,0 2.38,1.064 2.38,2.381 0,1.314 -1.066,2.379 -2.38,2.379 l -27.523,0 c -1.315,0 -2.379,-1.065 -2.379,-2.379 0,-1.317 1.064,-2.381 2.379,-2.381 z m 13.595,186.861 c -3.59,0 -6.5,-2.91 -6.5,-6.5 0,-3.59 2.91,-6.5 6.5,-6.5 3.59,0 6.5,2.91 6.5,6.5 0,3.59 -2.91,6.5 -6.5,6.5 z M 125.893,322.2 c 0,1.676 -1.342,3.047 -2.98,3.047 l -109.139,0 c -1.639,0 -2.98,-1.371 -2.98,-3.047 l 0,-152.375 c 0,-1.676 1.342,-3.046 2.98,-3.046 l 109.139,0 c 1.639,0 2.98,1.371 2.98,3.046 l 0,152.375 z"
             inkscape:connector-curvature="0"
             style="fill:#ffffff" />
        </g>
      </g>
      <g
         id="g33414"
         style="fill:#ffffff" />
      <g
         id="g33416"
         style="fill:#ffffff" />
      <g
         id="g33418"
         style="fill:#ffffff" />
      <g
         id="g33420"
         style="fill:#ffffff" />
      <g
         id="g33422"
         style="fill:#ffffff" />
      <g
         id="g33424"
         style="fill:#ffffff" />
      <g
         id="g33426"
         style="fill:#ffffff" />
      <g
         id="g33428"
         style="fill:#ffffff" />
      <g
         id="g33430"
         style="fill:#ffffff" />
      <g
         id="g33432"
         style="fill:#ffffff" />
      <g
         id="g33434"
         style="fill:#ffffff" />
      <g
         id="g33436"
         style="fill:#ffffff" />
      <g
         id="g33438"
         style="fill:#ffffff" />
      <g
         id="g33440"
         style="fill:#ffffff" />
      <g
         id="g33442"
         style="fill:#ffffff" />
    </g>
  </g>
</svg>
