<?xml version="1.0" encoding="UTF-8" standalone="no"?>
<!-- Created with Inkscape (http://www.inkscape.org/) -->

<svg
   xmlns:dc="http://purl.org/dc/elements/1.1/"
   xmlns:cc="http://creativecommons.org/ns#"
   xmlns:rdf="http://www.w3.org/1999/02/22-rdf-syntax-ns#"
   xmlns:svg="http://www.w3.org/2000/svg"
   xmlns="http://www.w3.org/2000/svg"
   xmlns:sodipodi="http://sodipodi.sourceforge.net/DTD/sodipodi-0.dtd"
   xmlns:inkscape="http://www.inkscape.org/namespaces/inkscape"
   width="317.57141"
   height="581.82758"
   viewBox="0 0 317.57142 581.82759"
   id="svg6759"
   version="1.1"
   inkscape:version="0.91 r13725"
   sodipodi:docname="smartphone.svg">
  <defs
     id="defs6761" />
  <sodipodi:namedview
     id="base"
     pagecolor="#ffffff"
     bordercolor="#666666"
     borderopacity="1.0"
     inkscape:pageopacity="0.0"
     inkscape:pageshadow="2"
     inkscape:zoom="2.8"
     inkscape:cx="288.56077"
     inkscape:cy="541.48511"
     inkscape:document-units="px"
     inkscape:current-layer="layer1"
     showgrid="false"
     units="px"
     fit-margin-top="0"
     fit-margin-left="0"
     fit-margin-right="0"
     fit-margin-bottom="0"
     inkscape:window-width="1366"
     inkscape:window-height="768"
     inkscape:window-x="0"
     inkscape:window-y="0"
     inkscape:window-maximized="0"
     inkscape:snap-bbox="true"
     inkscape:bbox-paths="true"
     inkscape:snap-bbox-edge-midpoints="true"
     inkscape:snap-bbox-midpoints="true"
     inkscape:bbox-nodes="true"
     inkscape:snap-global="true" />
  <metadata
     id="metadata6764">
    <rdf:RDF>
      <cc:Work
         rdf:about="">
        <dc:format>image/svg+xml</dc:format>
        <dc:type
           rdf:resource="http://purl.org/dc/dcmitype/StillImage" />
        <dc:title></dc:title>
      </cc:Work>
    </rdf:RDF>
  </metadata>
  <g
     inkscape:label="Layer 1"
     inkscape:groupmode="layer"
     id="layer1"
     transform="translate(188.91147,-380.86007)">
    <g
       style="display:inline"
       id="g11831"
       transform="matrix(3.8169642,0,0,3.8177663,-377.8512,356.80814)">
      <path
         id="path11833"
         d="m 132.7,148.9 c 0,5.4 -4.4,9.8 -9.8,9.8 l -63.6,0 c -5.4,0 -9.8,-4.4 -9.8,-9.8 l 0,-132.8 c 0,-5.4 4.4,-9.8 9.8,-9.8 l 63.6,0 c 5.4,0 9.8,4.4 9.8,9.8 l 0,132.8 z"
         inkscape:connector-curvature="0" />
      <path
         id="path11835"
         d="m 132,147.9 c 0,5.3 -4.3,9.6 -9.6,9.6 l -62.6,0 c -5.3,0 -9.6,-4.3 -9.6,-9.6 l 0,-130.8 c 0,-5.3 4.3,-9.6 9.6,-9.6 l 62.6,0 c 5.3,0 9.6,4.3 9.6,9.6 l 0,130.8 z"
         class="st0"
         inkscape:connector-curvature="0"
         style="fill:#515254" />
      <path
         id="path11837"
         d="m 95.8,13.5 c 0,0.6 -0.4,1 -1,1 l -16.3,0 c -0.6,0 -1,-0.4 -1,-1 l 0,0 c 0,-0.6 0.4,-1 1,-1 l 16.2,0 c 0.6,0 1.1,0.4 1.1,1 l 0,0 z"
         class="st1"
         inkscape:connector-curvature="0"
         style="fill:#231f20" />
      <path
         id="path11839"
         d="m 130.4,144.5 c 0,0.9 -0.7,1.7 -1.7,1.7 l -74.9,0 c -0.9,0 -1.7,-0.7 -1.7,-1.7 L 52.1,21 c 0,-0.9 0.7,-1.7 1.7,-1.7 l 74.9,0 c 0.9,0 1.7,0.7 1.7,1.7 l 0,123.5 z"
         class="st2"
         inkscape:connector-curvature="0"
         style="fill:#00a69c" />
      <circle
         id="circle11841"
         r="1.5"
         cy="13.5"
         cx="102.1"
         class="st1"
         style="fill:#231f20" />
      <circle
         id="circle11843"
         r="1.5"
         cy="13.5"
         cx="108.8"
         class="st1"
         style="fill:#231f20" />
      <g
         id="g11845"
         class="st3"
         style="opacity:0.3">
        <path
           id="path11847"
           d="m 61.3,9.6 c -4.8,0 -8.8,3.9 -8.8,8.8 l 0,14.2 23,-23 -14.2,0 z"
           class="st4"
           inkscape:connector-curvature="0"
           style="fill:#ffffff" />
      </g>
      <g
         id="g11849">
        <path
           id="path11851"
           d="m 67.9,93.2 c 0,1.2 -0.9,2.1 -2.1,2.1 l -5.4,0 c -1.2,0 -2.1,-0.9 -2.1,-2.1 l 0,-5.4 c 0,-1.2 0.9,-2.1 2.1,-2.1 l 5.4,0 c 1.2,0 2.1,0.9 2.1,2.1 l 0,5.4 z"
           class="st5"
           inkscape:connector-curvature="0"
           style="fill:#6dbab4" />
        <path
           id="path11853"
           d="m 67.9,76.3 c 0,1.2 -0.9,2.1 -2.1,2.1 l -5.4,0 c -1.2,0 -2.1,-0.9 -2.1,-2.1 l 0,-5.4 c 0,-1.2 0.9,-2.1 2.1,-2.1 l 5.4,0 c 1.2,0 2.1,0.9 2.1,2.1 l 0,5.4 z"
           class="st5"
           inkscape:connector-curvature="0"
           style="fill:#6dbab4" />
      </g>
      <g
         id="g11855">
        <path
           id="path11857"
           d="m 67.9,59.4 c 0,1.2 -0.9,2.1 -2.1,2.1 l -5.4,0 c -1.2,0 -2.1,-0.9 -2.1,-2.1 l 0,-5.4 c 0,-1.2 0.9,-2.1 2.1,-2.1 l 5.4,0 c 1.2,0 2.1,0.9 2.1,2.1 l 0,5.4 z"
           class="st5"
           inkscape:connector-curvature="0"
           style="fill:#6dbab4" />
        <path
           id="path11859"
           d="m 67.9,42.5 c 0,1.2 -0.9,2.1 -2.1,2.1 l -5.4,0 c -1.2,0 -2.1,-0.9 -2.1,-2.1 l 0,-5.5 c 0,-1.2 0.9,-2.1 2.1,-2.1 l 5.4,0 c 1.2,0 2.1,0.9 2.1,2.1 l 0,5.5 z"
           class="st5"
           inkscape:connector-curvature="0"
           style="fill:#6dbab4" />
      </g>
      <g
         id="g11861">
        <path
           id="path11863"
           d="m 86.6,93.2 c 0,1.2 -0.9,2.1 -2.1,2.1 l -5.5,0 c -1.2,0 -2.1,-0.9 -2.1,-2.1 l 0,-5.4 c 0,-1.2 0.9,-2.1 2.1,-2.1 l 5.4,0 c 1.2,0 2.1,0.9 2.1,2.1 l 0,5.4 z"
           class="st5"
           inkscape:connector-curvature="0"
           style="fill:#6dbab4" />
        <path
           id="path11865"
           d="m 86.6,76.3 c 0,1.2 -0.9,2.1 -2.1,2.1 l -5.5,0 c -1.2,0 -2.1,-0.9 -2.1,-2.1 l 0,-5.4 c 0,-1.2 0.9,-2.1 2.1,-2.1 l 5.4,0 c 1.2,0 2.1,0.9 2.1,2.1 l 0,5.4 z"
           class="st5"
           inkscape:connector-curvature="0"
           style="fill:#6dbab4" />
      </g>
      <g
         id="g11867">
        <path
           id="path11869"
           d="m 86.6,59.4 c 0,1.2 -0.9,2.1 -2.1,2.1 l -5.5,0 c -1.2,0 -2.1,-0.9 -2.1,-2.1 l 0,-5.4 c 0,-1.2 0.9,-2.1 2.1,-2.1 l 5.4,0 c 1.2,0 2.1,0.9 2.1,2.1 l 0,5.4 z"
           class="st5"
           inkscape:connector-curvature="0"
           style="fill:#6dbab4" />
        <path
           id="path11871"
           d="m 86.6,42.5 c 0,1.2 -0.9,2.1 -2.1,2.1 l -5.5,0 c -1.2,0 -2.1,-0.9 -2.1,-2.1 l 0,-5.5 c 0,-1.2 0.9,-2.1 2.1,-2.1 l 5.4,0 c 1.2,0 2.1,0.9 2.1,2.1 l 0,5.5 z"
           class="st5"
           inkscape:connector-curvature="0"
           style="fill:#6dbab4" />
      </g>
      <g
         id="g11873">
        <path
           id="path11875"
           d="m 105.3,93.2 c 0,1.2 -0.9,2.1 -2.1,2.1 l -5.4,0 c -1.2,0 -2.1,-0.9 -2.1,-2.1 l 0,-5.4 c 0,-1.2 0.9,-2.1 2.1,-2.1 l 5.4,0 c 1.2,0 2.1,0.9 2.1,2.1 l 0,5.4 z"
           class="st5"
           inkscape:connector-curvature="0"
           style="fill:#6dbab4" />
        <path
           id="path11877"
           d="m 105.3,76.3 c 0,1.2 -0.9,2.1 -2.1,2.1 l -5.4,0 c -1.2,0 -2.1,-0.9 -2.1,-2.1 l 0,-5.4 c 0,-1.2 0.9,-2.1 2.1,-2.1 l 5.4,0 c 1.2,0 2.1,0.9 2.1,2.1 l 0,5.4 z"
           class="st5"
           inkscape:connector-curvature="0"
           style="fill:#6dbab4" />
      </g>
      <g
         id="g11879">
        <path
           id="path11881"
           d="m 105.3,59.4 c 0,1.2 -0.9,2.1 -2.1,2.1 l -5.4,0 c -1.2,0 -2.1,-0.9 -2.1,-2.1 l 0,-5.4 c 0,-1.2 0.9,-2.1 2.1,-2.1 l 5.4,0 c 1.2,0 2.1,0.9 2.1,2.1 l 0,5.4 z"
           class="st5"
           inkscape:connector-curvature="0"
           style="fill:#6dbab4" />
        <path
           id="path11883"
           d="m 105.3,42.5 c 0,1.2 -0.9,2.1 -2.1,2.1 l -5.4,0 c -1.2,0 -2.1,-0.9 -2.1,-2.1 l 0,-5.5 c 0,-1.2 0.9,-2.1 2.1,-2.1 l 5.4,0 c 1.2,0 2.1,0.9 2.1,2.1 l 0,5.5 z"
           class="st5"
           inkscape:connector-curvature="0"
           style="fill:#6dbab4" />
      </g>
      <g
         id="g11885">
        <path
           id="path11887"
           d="m 124,93.2 c 0,1.2 -0.9,2.1 -2.1,2.1 l -5.4,0 c -1.2,0 -2.1,-0.9 -2.1,-2.1 l 0,-5.4 c 0,-1.2 0.9,-2.1 2.1,-2.1 l 5.4,0 c 1.2,0 2.1,0.9 2.1,2.1 l 0,5.4 z"
           class="st5"
           inkscape:connector-curvature="0"
           style="fill:#6dbab4" />
        <path
           id="path11889"
           d="m 124,76.3 c 0,1.2 -0.9,2.1 -2.1,2.1 l -5.4,0 c -1.2,0 -2.1,-0.9 -2.1,-2.1 l 0,-5.4 c 0,-1.2 0.9,-2.1 2.1,-2.1 l 5.4,0 c 1.2,0 2.1,0.9 2.1,2.1 l 0,5.4 z"
           class="st5"
           inkscape:connector-curvature="0"
           style="fill:#6dbab4" />
      </g>
      <g
         id="g11891">
        <path
           id="path11893"
           d="m 124,59.4 c 0,1.2 -0.9,2.1 -2.1,2.1 l -5.4,0 c -1.2,0 -2.1,-0.9 -2.1,-2.1 l 0,-5.4 c 0,-1.2 0.9,-2.1 2.1,-2.1 l 5.4,0 c 1.2,0 2.1,0.9 2.1,2.1 l 0,5.4 z"
           class="st5"
           inkscape:connector-curvature="0"
           style="fill:#6dbab4" />
        <path
           id="path11895"
           d="m 124,42.5 c 0,1.2 -0.9,2.1 -2.1,2.1 l -5.4,0 c -1.2,0 -2.1,-0.9 -2.1,-2.1 l 0,-5.5 c 0,-1.2 0.9,-2.1 2.1,-2.1 l 5.4,0 c 1.2,0 2.1,0.9 2.1,2.1 l 0,5.5 z"
           class="st5"
           inkscape:connector-curvature="0"
           style="fill:#6dbab4" />
      </g>
      <circle
         id="circle11897"
         r="1.1"
         cy="114.3"
         cx="75.900002"
         class="st5"
         style="fill:#6dbab4" />
      <circle
         id="circle11899"
         r="1.1"
         cy="114.3"
         cx="81.800003"
         class="st5"
         style="fill:#6dbab4" />
      <circle
         id="circle11901"
         r="1.1"
         cy="114.3"
         cx="87.699997"
         class="st5"
         style="fill:#6dbab4" />
      <circle
         id="circle11903"
         r="1.1"
         cy="114.3"
         cx="93.599998"
         class="st5"
         style="fill:#6dbab4" />
      <circle
         id="circle11905"
         r="1.1"
         cy="114.3"
         cx="99.5"
         class="st5"
         style="fill:#6dbab4" />
      <circle
         id="circle11907"
         r="1.1"
         cy="114.3"
         cx="105.4"
         class="st5"
         style="fill:#6dbab4" />
      <path
         id="path11915"
         d="m 59.3,158.6 63.6,0 c 5.4,0 9.8,-4.4 9.8,-9.8 l 0,-119 -83.2,83.2 0,35.7 c 0,5.6 4.4,9.9 9.8,9.9 z"
         class="st6"
         inkscape:connector-curvature="0"
         style="opacity:0.2" />
    </g>
  </g>
</svg>
