<?xml version="1.0" encoding="UTF-8" standalone="no"?>
<!-- Created with Inkscape (http://www.inkscape.org/) -->

<svg
   xmlns:dc="http://purl.org/dc/elements/1.1/"
   xmlns:cc="http://creativecommons.org/ns#"
   xmlns:rdf="http://www.w3.org/1999/02/22-rdf-syntax-ns#"
   xmlns:svg="http://www.w3.org/2000/svg"
   xmlns="http://www.w3.org/2000/svg"
   xmlns:sodipodi="http://sodipodi.sourceforge.net/DTD/sodipodi-0.dtd"
   xmlns:inkscape="http://www.inkscape.org/namespaces/inkscape"
   width="59.682873"
   height="76.736618"
   viewBox="0 0 59.682871 76.73662"
   id="svg8114"
   version="1.1"
   inkscape:version="0.91 r13725"
   sodipodi:docname="usabilidade.svg">
  <defs
     id="defs8116" />
  <sodipodi:namedview
     id="base"
     pagecolor="#ffffff"
     bordercolor="#666666"
     borderopacity="1.0"
     inkscape:pageopacity="0.0"
     inkscape:pageshadow="2"
     inkscape:zoom="1.979899"
     inkscape:cx="-28.481797"
     inkscape:cy="49.244697"
     inkscape:document-units="px"
     inkscape:current-layer="layer1"
     showgrid="false"
     units="px"
     fit-margin-top="0"
     fit-margin-left="0"
     fit-margin-right="0"
     fit-margin-bottom="0"
     inkscape:window-width="1366"
     inkscape:window-height="768"
     inkscape:window-x="0"
     inkscape:window-y="0"
     inkscape:window-maximized="0" />
  <metadata
     id="metadata8119">
    <rdf:RDF>
      <cc:Work
         rdf:about="">
        <dc:format>image/svg+xml</dc:format>
        <dc:type
           rdf:resource="http://purl.org/dc/dcmitype/StillImage" />
        <dc:title></dc:title>
      </cc:Work>
    </rdf:RDF>
  </metadata>
  <g
     inkscape:label="Camada 1"
     inkscape:groupmode="layer"
     id="layer1"
     transform="translate(-315.31712,-532.3622)">
    <path
       style="display:none;fill:#ff601e"
       inkscape:connector-curvature="0"
       class="st0"
       d="m 345.01097,537.40237 c 9.19832,0 17.5146,3.78013 23.56281,9.70234 6.0482,6.0482 9.70233,14.36449 9.70233,23.5628 0,9.19831 -3.78013,17.5146 -9.70233,23.4368 -6.04821,6.04821 -14.36449,9.70233 -23.56281,9.70233 -9.19831,0 -17.5146,-3.78013 -23.5628,-9.70233 -6.04821,-6.04821 -9.70233,-14.36449 -9.70233,-23.4368 0,-9.19831 3.65412,-17.5146 9.70233,-23.5628 6.0482,-5.92221 14.36449,-9.70234 23.5628,-9.70234 l 0,0 z m -1.51205,61.3641 0,0 0,-10.71037 c -3.0241,0.12601 -5.9222,0.75603 -8.6943,1.76406 -0.37801,0.12601 -0.75602,0.25201 -1.13403,0.37802 0.252,0.50401 0.50401,1.00803 0.75602,1.38604 1.63806,3.02411 3.65413,5.41819 5.9222,6.80424 1.00804,0.252 2.14208,0.252 3.15011,0.37801 l 0,0 z m 21.42073,-48.00764 0,0 c -0.25201,-0.25201 -0.50402,-0.50402 -0.63002,-0.63002 -1.26004,0.88203 -2.52009,1.76406 -3.90613,2.52009 1.76406,4.78816 2.8981,10.45835 3.1501,16.50656 l 9.70234,0 c -0.50402,-7.18225 -3.52812,-13.60847 -8.31629,-18.39663 l 0,0 z m -3.15011,-2.64609 0,0 c -1.76406,-1.26004 -3.65412,-2.39408 -5.67019,-3.27611 0.75603,1.00803 1.51205,2.14207 2.26808,3.40211 0.25201,0.50402 0.50402,1.00804 0.75602,1.51206 0.88203,-0.50402 1.76406,-1.00804 2.64609,-1.63806 l 0,0 z m -12.09641,-5.16618 0,0 c -1.00803,-0.126 -2.01607,-0.252 -3.15011,-0.37801 l 0,10.71037 c 3.02411,-0.12601 5.92221,-0.75603 8.6943,-1.76406 0.37801,-0.12601 0.75603,-0.25201 1.13404,-0.50402 -0.25201,-0.50402 -0.50402,-1.00804 -0.75603,-1.38605 -1.63805,-3.0241 -3.65412,-5.29218 -5.9222,-6.67823 l 0,0 z m -6.17421,-0.37801 0,0 c -1.00803,0 -2.14207,0.12601 -3.15011,0.37801 -2.26807,1.38605 -4.28414,3.78013 -5.9222,6.80424 -0.25201,0.50401 -0.50402,0.88203 -0.75602,1.38604 0.37801,0.12601 0.75602,0.25201 1.13403,0.50402 2.64609,1.00804 5.54419,1.63806 8.6943,1.76406 l 0,-10.83637 0,0 z m -9.57633,2.26808 0,0 c -2.01606,0.88203 -3.90613,2.01607 -5.79619,3.27611 0.88203,0.63002 1.76406,1.13404 2.77209,1.63806 0.25201,-0.50402 0.50402,-1.00804 0.75603,-1.51206 0.75602,-1.26004 1.51205,-2.39408 2.26807,-3.40211 l 0,0 z m -8.06427,5.29218 0,0 c -0.25201,0.25201 -0.50402,0.50402 -0.75603,0.63002 -4.78816,4.78816 -7.81226,11.21438 -8.19028,18.39663 l 9.70233,0 c 0.12601,-6.17421 1.26005,-11.84441 3.15011,-16.50656 -1.38605,-0.75603 -2.77209,-1.63806 -3.90613,-2.52009 l 0,0 z m -8.94631,22.05075 0,0 c 0.37802,7.18225 3.40212,13.60847 8.19028,18.39663 l 0.75603,0.63002 c 1.26004,-0.88203 2.52008,-1.76406 3.90613,-2.52009 -1.76406,-4.78816 -2.8981,-10.45835 -3.15011,-16.50656 l -9.70233,0 0,0 z m 11.34039,21.04272 0,0 c 1.76406,1.26004 3.65413,2.39408 5.7962,3.27611 -0.75603,-1.00803 -1.51205,-2.14207 -2.26808,-3.40211 -0.25201,-0.50402 -0.50402,-1.00804 -0.75602,-1.51206 -1.00804,0.50402 -1.89007,1.00804 -2.7721,1.63806 l 0,0 z m 18.27062,5.54419 0,0 c 1.00804,-0.12601 2.14208,-0.12601 3.15011,-0.37801 2.26808,-1.38605 4.28415,-3.78013 5.9222,-6.80424 0.25201,-0.50401 0.50402,-0.88203 0.75603,-1.38604 -0.37801,-0.12601 -0.75603,-0.25201 -1.13404,-0.37802 -2.64609,-1.00803 -5.54419,-1.63805 -8.56829,-1.76406 l 0,10.71037 -0.12601,0 z m 9.57633,-2.26808 0,0 c 2.01607,-0.88203 3.90613,-2.01607 5.67019,-3.27611 -0.88203,-0.63002 -1.76406,-1.13404 -2.64609,-1.63806 -0.252,0.50402 -0.50401,1.00804 -0.75602,1.51206 -0.75603,1.26004 -1.51205,2.39408 -2.26808,3.40211 l 0,0 z m 8.06428,-5.29218 0,0 0.63002,-0.63002 c 4.78816,-4.78816 7.81226,-11.21438 8.19028,-18.39663 l -9.70233,0 c -0.12601,6.17421 -1.26005,11.84441 -3.15011,16.50656 1.51205,0.75603 2.77209,1.63806 4.03214,2.52009 l 0,0 z m -6.67823,-37.29727 0,0 c -0.37801,0.126 -0.88203,0.37801 -1.26004,0.50402 -3.02411,1.13403 -6.30022,1.89006 -9.70234,2.01606 l 0,12.72644 13.73447,0 c -0.126,-5.6702 -1.13404,-10.83637 -2.77209,-15.24652 l 0,0 z m -13.98648,2.52008 0,0 c -3.40212,-0.126 -6.67823,-0.88203 -9.70233,-2.01606 -0.37801,-0.12601 -0.88203,-0.37802 -1.26004,-0.50402 -1.63806,4.41015 -2.64609,9.57632 -2.7721,15.24652 l 13.86048,0 0,-12.72644 -0.12601,0 z m 0,28.47698 0,0 0,-12.72644 -13.86047,0 c 0.126,5.6702 1.13404,10.83637 2.77209,15.24652 0.37802,-0.126 0.88203,-0.37801 1.26005,-0.50402 3.1501,-1.13403 6.42621,-1.89006 9.82833,-2.01606 l 0,0 z m 3.0241,0 0,0 c 3.40212,0.126 6.67823,0.88203 9.70234,2.01606 0.37801,0.12601 0.88203,0.37802 1.26004,0.50402 1.63805,-4.41015 2.64609,-9.57632 2.77209,-15.24652 l -13.73447,0 0,12.72644 0,0 z"
       id="path10375" />
    <path
       style="display:none;fill:#ff601e"
       inkscape:connector-curvature="0"
       class="st0"
       d="m 316.534,561.4692 0,0 c 5.54419,0 10.96237,0 16.38056,0 1.26004,0 2.39408,1.00803 2.39408,2.39408 0,1.26004 -1.00803,2.39408 -2.39408,2.39408 -4.66216,0 -9.32432,0 -13.98648,0 l 0,4.78816 c 17.3886,0 34.90319,0 52.29179,0 l 0,-4.78816 c -4.66216,0 -9.32432,0 -13.98648,0 -1.26004,0 -2.39408,-1.00803 -2.39408,-2.39408 0,-1.26005 1.00803,-2.39408 2.39408,-2.39408 5.41818,0 10.96237,0 16.38056,0 1.26004,0 2.39408,1.00803 2.39408,2.39408 l 0,0 0,9.45032 c 0,1.26004 -1.00803,2.39408 -2.39408,2.39408 l -0.12601,0 -2.89809,0 -3.52812,24.69684 c -0.12601,1.13404 -1.13404,2.01607 -2.39409,2.01607 l 0,0 -39.31334,0 c -1.26004,0 -2.26808,-1.00803 -2.39408,-2.14207 l -3.52812,-24.57084 -3.0241,0 c -1.26005,0 -2.39409,-1.00803 -2.39409,-2.39408 l 0,0 0,-9.45032 c 0.12601,-1.26005 1.13404,-2.39408 2.52009,-2.39408 l 0,0 z m 13.98648,18.14462 0,0 0,13.48246 c 0,0.75602 0.63002,1.38604 1.38605,1.38604 0.75602,0 1.38604,-0.63002 1.38604,-1.38604 l 0,-13.48246 c 0,-0.75603 -0.63002,-1.38605 -1.38604,-1.38605 -0.75603,0 -1.38605,0.63002 -1.38605,1.38605 l 0,0 z m 8.69429,0 0,0 0,13.48246 c 0,0.75602 0.63003,1.38604 1.38605,1.38604 0.75603,0 1.38605,-0.63002 1.38605,-1.38604 l 0,-13.48246 c 0,-0.75603 -0.63002,-1.38605 -1.38605,-1.38605 -0.75602,0 -1.38605,0.63002 -1.38605,1.38605 l 0,0 z m 8.6943,0 0,0 0,13.48246 c 0,0.75602 0.63002,1.38604 1.38605,1.38604 0.75602,0 1.38605,-0.63002 1.38605,-1.38604 l 0,-13.48246 c 0,-0.75603 -0.63003,-1.38605 -1.38605,-1.38605 -0.75603,0 -1.38605,0.63002 -1.38605,1.38605 l 0,0 z m 8.6943,0 0,0 0,13.48246 c 0,0.75602 0.63002,1.38604 1.38605,1.38604 0.75602,0 1.38604,-0.63002 1.38604,-1.38604 l 0,-13.48246 c 0,-0.75603 -0.63002,-1.38605 -1.38604,-1.38605 -0.75603,0 -1.38605,0.63002 -1.38605,1.38605 l 0,0 z m 9.19831,-39.94337 0,0 -20.79071,23.81481 -20.79071,-23.81481 c -0.88203,-1.00803 -2.39408,-1.13404 -3.40211,-0.25201 -1.00804,0.88203 -1.13404,2.39409 -0.25201,3.27612 l 22.55477,25.83088 c 0.126,0.126 0.126,0.126 0.25201,0.25201 1.00803,0.88203 2.52008,0.75602 3.40211,-0.25201 l 22.55477,-25.95689 c 0.88203,-1.00803 0.75603,-2.52008 -0.25201,-3.27611 -0.88203,-0.75603 -2.39408,-0.63002 -3.27611,0.37801 l 0,0 z m 0.25201,34.14717 0,0 -42.08544,0 3.40212,23.94081 35.1552,0 3.52812,-23.94081 0,0 z"
       id="path10377" />
    <path
       id="path10381"
       d="m 338.71076,609.09882 c -3.90614,0 -7.81227,-1.00803 -11.34039,-3.0241 -3.78013,-2.14207 -6.93024,-5.29218 -9.07231,-8.94631 -2.8981,-5.04017 -3.65412,-10.71036 -2.39408,-16.38056 l 6.17421,-23.05878 c 0.75603,-2.8981 2.8981,-4.78817 5.67019,-5.04017 0.25201,0 0.50402,0 0.75603,0 1.00803,0 1.51205,0.126 2.01607,0.252 0.88203,0.25201 1.76406,0.63003 2.52008,1.26005 2.26808,1.76406 3.15011,4.41015 2.39409,7.30825 l -0.50402,1.63805 17.6406,-17.6406 c 1.26004,-1.26004 2.7721,-2.01607 4.41015,-2.01607 0.88203,0 1.63806,0.12601 2.52009,0.50402 0.75602,0.37801 1.51205,0.75602 2.14207,1.38605 0.63002,0.63002 1.13404,1.38604 1.51205,2.14207 1.00804,2.39408 0.50402,5.04017 -1.38605,6.93024 l -6.93023,6.93023 c 0.25201,0 0.37801,0.12601 0.63002,0.25201 0.75603,0.37801 1.51205,0.88203 2.14207,1.51205 0.63002,0.63002 1.13404,1.38605 1.38605,2.14208 0.63002,1.51205 0.75603,3.1501 0.126,4.53615 0.25201,-0.50402 0.50402,-0.75603 1.00804,-0.75603 0.37801,0 0.75602,0.12601 1.00803,0.25201 0.75603,0.37802 1.51205,0.88203 2.14208,1.38605 0.63002,0.63002 1.13403,1.38605 1.51205,2.14207 0.88203,2.01607 0.63002,4.03214 -0.37802,5.6702 0.25201,0.126 0.50402,0.126 0.75603,0.25201 0.88203,0.37801 1.51205,0.88203 2.14207,1.38604 0.63003,0.63002 1.13404,1.26005 1.38605,2.14208 1.00804,2.39408 0.50402,5.04017 -1.38605,6.93023 l -12.60043,12.60043 c -4.15814,4.28415 -9.45032,6.55223 -14.99451,6.80423 0,0.50402 -1.00803,0.50402 -1.00803,0.50402 z M 328.2524,557.05905 c -0.50402,0 -1.51205,0.37801 -1.89006,1.63805 l -6.04821,22.93278 c -1.00803,4.53616 -0.37801,9.07231 1.89006,13.10445 1.76406,3.0241 4.28415,5.41819 7.30825,7.18225 2.8981,1.63805 6.04821,2.39408 9.19832,2.39408 5.16617,-0.25201 9.32432,-2.14208 12.72643,-5.54419 l 12.60043,-12.60043 c 0.75603,-0.75603 0.63002,-1.51205 0.50402,-1.89007 0,0 -1.13404,-1.26004 -1.13404,-1.26004 -0.25201,0 -0.37801,0 -0.63002,0 -0.63002,0 -1.00804,0.12601 -1.26004,0.50402 -1.00804,1.00803 -1.76406,1.26004 -2.52009,1.38605 -0.75603,0 -1.51205,-0.37802 -2.01607,-0.88203 -0.63002,-0.63003 -0.88203,-1.26005 -1.00803,-1.89007 0,-1.00803 0.25201,-1.63805 0.75602,-2.14207 l 3.40212,-3.40212 c 0.75602,-0.75602 0.63002,-1.51205 0.50402,-1.89006 l -0.50402,-0.63002 -0.63002,-0.50402 c -0.25201,0 -0.37802,0 -0.63002,0 -0.63003,0 -1.00804,0.126 -1.26005,0.50402 l -3.40211,3.27611 c -0.37802,0.50402 -1.00804,0.75602 -1.76406,0.75602 -1.00804,0 -1.76406,-0.252 -2.26808,-0.75602 -0.63002,-0.63002 -1.00804,-1.38605 -1.00804,-2.14208 0,-0.75602 0.25201,-1.51205 0.75603,-2.01606 l 4.28415,-4.28415 c 0.75602,-0.75603 0.63002,-1.38605 0.50401,-1.89006 l -0.50401,-0.63003 -0.75603,-0.50401 c -0.25201,0 -0.37801,0 -0.63002,0 -0.63002,0 -1.00804,0.25201 -1.38605,0.50401 l -4.28414,4.28415 c -0.50402,0.50402 -1.26005,0.75603 -2.01607,0.75603 -0.75603,0 -1.51205,-0.25201 -2.01607,-0.75603 -0.63002,-0.63002 -0.88203,-1.26004 -1.00804,-1.89006 0,-1.00804 0.25201,-1.76406 0.75603,-2.26808 l 15.24652,-15.24652 c 0.75603,-0.75603 0.63002,-1.51205 0.50402,-1.89007 l -0.50402,-0.63002 -0.63002,-0.50402 c -0.25201,0 -0.37801,0 -0.63002,0 -0.63002,0 -1.00804,0.12601 -1.26005,0.50402 l -21.42073,21.42073 c -0.50401,0.50402 -1.13404,0.75603 -1.76406,0.88203 -0.126,0 -0.126,0 -0.25201,0 -0.88203,0 -1.38604,-0.126 -1.89006,-0.37801 -0.63002,-0.37801 -1.13404,-0.88203 -1.38605,-1.51205 -0.25201,-0.63002 -0.25201,-1.38605 -0.126,-2.01607 l 1.89006,-6.93024 c 0.37802,-1.51205 -0.37801,-2.26807 -0.75602,-2.52008 l -0.75603,-0.37802 -0.88203,-0.126 -0.126,0 0.126,-0.126 z"
       class="st1"
       inkscape:connector-curvature="0"
       style="fill:#a676ff;fill-opacity:1" />
    <path
       id="path10383"
       d="m 344.88497,547.60872 c 1.00803,-6.17421 6.0482,-10.96237 12.60043,-10.96237 7.18224,0 12.97844,5.7962 12.97844,12.97844 0,4.78817 -2.77209,8.8203 -6.55222,11.08838 l 1.00803,4.66216 C 370.84185,562.60323 375,556.68103 375,549.7508 c 0,-9.57633 -7.81227,-17.3886 -17.26259,-17.3886 -9.45033,0 -17.26259,7.81227 -17.26259,17.3886 0,0.50401 0.126,1.13403 0.126,1.63805 l 4.28415,-3.78013 z"
       class="st1"
       inkscape:connector-curvature="0"
       style="fill:#a676ff;fill-opacity:1" />
    <path
       style="display:none;fill:#ff601e"
       inkscape:connector-curvature="0"
       class="st0"
       d="m 363.4076,596.12038 -19.90868,-13.23045 c -0.63002,-0.50402 -1.00803,-1.26005 -1.00803,-2.01607 l 0,0 0,0 -2.52009,0 4.53616,12.97844 c 0.37801,1.26004 -0.25201,2.64609 -1.51206,3.0241 l -4.41015,1.51206 -4.41015,1.51205 c -1.26004,0.37801 -2.64609,-0.25201 -3.0241,-1.51205 l -6.30022,-18.01862 c -2.39408,-0.63002 -4.53615,-1.89006 -6.0482,-3.65412 -1.89007,-2.14208 -3.02411,-4.91417 -3.02411,-7.93827 0,-3.27612 1.38605,-6.30022 3.52813,-8.44229 l 0,0 0,0 c 2.14207,-2.14208 5.16617,-3.52812 8.44228,-3.52812 l 14.74251,0 0,0 c 0,-0.88203 0.50401,-1.63806 1.13404,-2.01607 l 19.90867,-13.23045 c 1.13404,-0.75603 2.52009,-0.37802 3.27612,0.63002 0.25201,0.37801 0.37801,0.88203 0.37801,1.26004 l 0,0 0,16.12855 c 1.63806,0.37801 3.0241,1.26004 4.28415,2.39408 l 0.126,0.12601 c 1.76406,1.76406 2.77209,4.03214 2.77209,6.67823 0,2.64609 -1.00803,5.04017 -2.77209,6.67822 l 0,0 c -1.13404,1.13404 -2.64609,2.01607 -4.28415,2.52009 l 0,16.12855 c 0,1.26004 -1.00803,2.39408 -2.39408,2.39408 -0.63002,0.12601 -1.13404,-0.126 -1.51205,-0.37801 l 0,0 z m -19.02665,-20.03469 0,0 0,-14.49049 -16.63257,0 c -2.01607,0 -3.78013,0.75603 -5.16617,2.14207 -1.26005,1.26005 -2.14208,3.15011 -2.14208,5.16618 0,1.89006 0.75603,3.52812 1.89007,4.78816 1.13404,1.26005 2.77209,2.14208 4.66216,2.39408 0.88203,0.12601 1.63805,0.63003 2.01607,1.63806 l 5.9222,17.13659 2.14207,-0.75603 2.26808,-0.75603 -4.91417,-13.86047 c -0.126,-0.25201 -0.126,-0.63002 -0.126,-1.00803 0,-1.26005 1.00803,-2.39409 2.39408,-2.39409 l 7.68626,0 0,0 z m 2.7721,-16.75857 0,0 0,19.15266 0,0 0,0.126 0,0 0,1.00804 15.24652,10.20634 0,-41.83342 -15.24652,10.20634 0,1.13404 0,0 0,0 0,0 z m 20.03468,3.40212 0,0 0,12.47442 c 0.88203,-0.37801 1.63806,-0.88203 2.26808,-1.51205 1.26004,-1.26004 1.89006,-2.8981 1.89006,-4.66216 0,-1.89006 -0.75602,-3.52812 -1.89006,-4.66215 l 0,-0.12601 c -0.63002,-0.75603 -1.38605,-1.26004 -2.26808,-1.51205 l 0,0 z"
       id="path10385" />
    <path
       style="display:none;fill:#ff601e"
       inkscape:connector-curvature="0"
       class="st0"
       d="m 324.47227,539.79646 0,0 41.20341,0 c 1.26004,0 2.39408,1.00803 2.39408,2.39408 l 0,0 0,56.95394 c 0,1.26004 -1.00803,2.39408 -2.39408,2.39408 l 0,0 -41.20341,0 c -1.26004,0 -2.39408,-1.13404 -2.39408,-2.39408 l 0,0 0,-56.95394 c 0,-1.38605 1.00803,-2.39408 2.39408,-2.39408 l 0,0 z m 13.48246,26.96492 c -0.50402,0.63002 -1.38605,0.75602 -2.01607,0.25201 -0.63002,-0.50402 -0.75602,-1.38605 -0.37801,-2.01607 1.13404,-1.51206 2.52009,-2.64609 4.15814,-3.52812 1.51205,-0.75603 3.27611,-1.26005 5.16618,-1.26005 1.89006,0 3.65412,0.50402 5.16617,1.26005 1.63806,0.75602 3.02411,2.01606 4.15815,3.40211 0.50401,0.63002 0.37801,1.51205 -0.25201,2.01607 -0.63002,0.50402 -1.51205,0.37801 -2.01607,-0.25201 -0.75603,-1.13404 -1.89007,-2.01607 -3.0241,-2.64609 -1.13404,-0.63002 -2.52009,-0.88203 -3.90614,-0.88203 -1.38604,0 -2.77209,0.37801 -3.90613,0.88203 -1.26004,0.75603 -2.26808,1.63806 -3.15011,2.7721 l 0,0 z m 7.05624,-0.12601 c 1.51205,0 2.7721,0.63002 3.65413,1.51205 1.00803,1.00804 1.51205,2.26808 1.51205,3.78013 0,1.51205 -0.63002,2.7721 -1.51205,3.78013 -1.00804,1.00804 -2.26808,1.51205 -3.65413,1.51205 -1.51205,0 -2.77209,-0.63002 -3.78013,-1.51205 -1.00803,-1.00803 -1.51205,-2.26808 -1.51205,-3.78013 0,-1.51205 0.63002,-2.77209 1.51205,-3.78013 1.00804,-0.88203 2.26808,-1.51205 3.78013,-1.51205 l 0,0 z m 1.76406,3.52812 c -0.50401,-0.37801 -1.13404,-0.75602 -1.76406,-0.75602 -0.63002,0 -1.26004,0.25201 -1.76406,0.75602 -0.37801,0.37802 -0.75602,1.00804 -0.75602,1.76406 0,0.63002 0.25201,1.26005 0.75602,1.76406 0.37802,0.37802 1.00804,0.75603 1.76406,0.75603 0.63002,0 1.26005,-0.25201 1.76406,-0.75603 0.37802,-0.37801 0.75603,-1.00803 0.75603,-1.76406 -0.12601,-0.75602 -0.37801,-1.26004 -0.75603,-1.76406 l 0,0 z m -13.35645,-7.81226 c -0.50402,0.63002 -1.38605,0.63002 -2.01607,0.126 -0.63002,-0.50402 -0.63002,-1.38605 -0.12601,-2.01607 1.63806,-2.01607 3.78013,-3.65412 6.17421,-4.78816 4.78817,-2.26808 10.33236,-2.26808 15.12052,0 2.39408,1.13404 4.53616,2.77209 6.17421,4.78816 0.50402,0.63002 0.37801,1.51205 -0.25201,2.01607 -0.63002,0.50402 -1.51205,0.37801 -2.01607,-0.126 -1.38604,-1.63806 -3.1501,-3.02411 -5.16617,-4.03214 -1.89007,-0.88203 -4.15814,-1.38605 -6.42622,-1.38605 -2.26808,0 -4.41015,0.50402 -6.42622,1.38605 -1.76406,0.88203 -3.52812,2.26808 -5.04017,4.03214 l 0,0 z m 3.65412,30.49304 c -0.75602,0 -1.38605,-0.63002 -1.38605,-1.38605 0,-0.75603 0.63003,-1.38605 1.38605,-1.38605 l 15.87654,0 c 0.75603,0 1.38605,0.63002 1.38605,1.38605 0,0.75603 -0.63002,1.38605 -1.38605,1.38605 l -15.87654,0 0,0 z m 26.08289,-48.25965 -36.28924,0 0,52.29178 36.41525,0 0,-52.29178 -0.12601,0 z"
       id="path10387" />
    <g
       style="display:none"
       class="st2"
       id="g10389"
       transform="matrix(1.260043,0,0,1.260043,259.95807,469.86407)">
      <g
         style="display:inline"
         class="st3"
         id="g10391">
        <path
           style="fill:#ff601e"
           inkscape:connector-curvature="0"
           class="st1"
           d="m 42.1,107.4 c -2.6,0 -4.6,-2.1 -4.6,-4.6 l 0,-35.4 c 0,-2.6 2.1,-4.6 4.6,-4.6 l 50.7,0 c 2.6,0 4.6,2.1 4.6,4.6 l 0,35.4 c 0,2.6 -2.1,4.6 -4.6,4.6 l -50.7,0 z m 0,-41.2 c -0.5,0 -1.1,0.6 -1.1,1.1 l 0,35.4 c 0,0.5 0.6,1.1 1.1,1.1 l 50.7,0 c 0.5,0 1.1,-0.6 1.1,-1.1 l 0,-35.3 c 0,-0.5 -0.6,-1.1 -1.1,-1.1 l -50.7,0 z"
           id="path10393" />
      </g>
      <g
         style="display:inline"
         class="st3"
         id="g10395">
        <path
           style="fill:#ff601e"
           inkscape:connector-curvature="0"
           class="st1"
           d="m 77.9,65.5 c -1,0 -1.8,-0.8 -1.8,-1.8 l 0,-6.5 c 0,-0.5 -0.6,-1.1 -1.1,-1.1 l -15,0 c -0.5,0 -1.1,0.6 -1.1,1.1 l 0,6.5 c 0,1 -0.8,1.8 -1.8,1.8 -1,0 -1.8,-0.8 -1.8,-1.8 l 0,-6.5 c 0,-2.6 2.1,-4.6 4.6,-4.6 l 15.1,0 c 2.6,0 4.6,2.1 4.6,4.6 l 0,6.5 c 0.1,1 -0.7,1.8 -1.7,1.8 z"
           id="path10397" />
      </g>
      <g
         style="display:inline"
         class="st3"
         id="g10399">
        <path
           style="fill:#ff601e"
           inkscape:connector-curvature="0"
           class="st1"
           d="m 64.8,94.4 0,-5.8 c 0,-0.5 -0.4,-0.8 -0.8,-0.8 l -5.8,0 0,-5.3 5.8,0 c 0.5,0 0.8,-0.4 0.8,-0.8 l 0,-5.8 5.3,0 0,5.8 c 0,0.5 0.4,0.8 0.8,0.8 l 5.8,0 0,5.3 -5.7,0 c -0.5,0 -0.8,0.4 -0.8,0.8 l 0,5.8 -5.4,0 z"
           id="path10401" />
      </g>
    </g>
  </g>
</svg>
