<?xml version="1.0" encoding="UTF-8" standalone="no"?>
<!-- Created with Inkscape (http://www.inkscape.org/) -->

<svg
   xmlns:dc="http://purl.org/dc/elements/1.1/"
   xmlns:cc="http://creativecommons.org/ns#"
   xmlns:rdf="http://www.w3.org/1999/02/22-rdf-syntax-ns#"
   xmlns:svg="http://www.w3.org/2000/svg"
   xmlns="http://www.w3.org/2000/svg"
   xmlns:xlink="http://www.w3.org/1999/xlink"
   xmlns:sodipodi="http://sodipodi.sourceforge.net/DTD/sodipodi-0.dtd"
   xmlns:inkscape="http://www.inkscape.org/namespaces/inkscape"
   width="250.66667"
   height="250.66667"
   viewBox="0 0 250.66667 250.66667"
   id="svg8973"
   version="1.1"
   inkscape:version="0.91 r13725"
   sodipodi:docname="ajudado.svg">
  <defs
     id="defs8975">
    <clipPath
       id="XMLID_32_">
      <use
         id="use6220"
         style="overflow:visible"
         xlink:href="#XMLID_5_"
         x="0"
         y="0"
         width="100%"
         height="100%" />
    </clipPath>
    <clipPath
       id="clipPath8854">
      <use
         id="use8856"
         style="overflow:visible"
         xlink:href="#XMLID_5_"
         x="0"
         y="0"
         width="100%"
         height="100%" />
    </clipPath>
    <clipPath
       id="clipPath8858">
      <use
         id="use8860"
         style="overflow:visible"
         xlink:href="#XMLID_5_"
         x="0"
         y="0"
         width="100%"
         height="100%" />
    </clipPath>
    <clipPath
       id="clipPath8862">
      <use
         id="use8864"
         style="overflow:visible"
         xlink:href="#XMLID_5_"
         x="0"
         y="0"
         width="100%"
         height="100%" />
    </clipPath>
    <clipPath
       id="clipPath8866">
      <use
         id="use8868"
         style="overflow:visible"
         xlink:href="#XMLID_5_"
         x="0"
         y="0"
         width="100%"
         height="100%" />
    </clipPath>
    <clipPath
       id="clipPath8870">
      <use
         id="use8872"
         style="overflow:visible"
         xlink:href="#XMLID_5_"
         x="0"
         y="0"
         width="100%"
         height="100%" />
    </clipPath>
    <clipPath
       id="clipPath8874">
      <use
         id="use8876"
         style="overflow:visible"
         xlink:href="#XMLID_5_"
         x="0"
         y="0"
         width="100%"
         height="100%" />
    </clipPath>
    <clipPath
       id="clipPath8878">
      <use
         id="use8880"
         style="overflow:visible"
         xlink:href="#XMLID_5_"
         x="0"
         y="0"
         width="100%"
         height="100%" />
    </clipPath>
    <clipPath
       id="clipPath8882">
      <use
         id="use8884"
         style="overflow:visible"
         xlink:href="#XMLID_5_"
         x="0"
         y="0"
         width="100%"
         height="100%" />
    </clipPath>
    <clipPath
       id="clipPath8886">
      <use
         id="use8888"
         style="overflow:visible"
         xlink:href="#XMLID_5_"
         x="0"
         y="0"
         width="100%"
         height="100%" />
    </clipPath>
    <clipPath
       id="clipPath8890">
      <use
         id="use8892"
         style="overflow:visible"
         xlink:href="#XMLID_5_"
         x="0"
         y="0"
         width="100%"
         height="100%" />
    </clipPath>
    <clipPath
       id="clipPath8894">
      <use
         id="use8896"
         style="overflow:visible"
         xlink:href="#XMLID_5_"
         x="0"
         y="0"
         width="100%"
         height="100%" />
    </clipPath>
    <clipPath
       id="clipPath8898">
      <use
         id="use8900"
         style="overflow:visible"
         xlink:href="#XMLID_5_"
         x="0"
         y="0"
         width="100%"
         height="100%" />
    </clipPath>
    <clipPath
       id="clipPath8902">
      <use
         id="use8904"
         style="overflow:visible"
         xlink:href="#XMLID_5_"
         x="0"
         y="0"
         width="100%"
         height="100%" />
    </clipPath>
    <clipPath
       id="clipPath8906">
      <use
         id="use8908"
         style="overflow:visible"
         xlink:href="#XMLID_5_"
         x="0"
         y="0"
         width="100%"
         height="100%" />
    </clipPath>
    <clipPath
       id="clipPath8910">
      <use
         id="use8912"
         style="overflow:visible"
         xlink:href="#XMLID_5_"
         x="0"
         y="0"
         width="100%"
         height="100%" />
    </clipPath>
    <clipPath
       id="clipPath8914">
      <use
         id="use8916"
         style="overflow:visible"
         xlink:href="#XMLID_5_"
         x="0"
         y="0"
         width="100%"
         height="100%" />
    </clipPath>
    <clipPath
       id="clipPath8918">
      <use
         id="use8920"
         style="overflow:visible"
         xlink:href="#XMLID_5_"
         x="0"
         y="0"
         width="100%"
         height="100%" />
    </clipPath>
    <clipPath
       id="clipPath8922">
      <use
         id="use8924"
         style="overflow:visible"
         xlink:href="#XMLID_5_"
         x="0"
         y="0"
         width="100%"
         height="100%" />
    </clipPath>
    <clipPath
       id="clipPath8926">
      <use
         id="use8928"
         style="overflow:visible"
         xlink:href="#XMLID_5_"
         x="0"
         y="0"
         width="100%"
         height="100%" />
    </clipPath>
    <clipPath
       id="clipPath8930">
      <use
         id="use8932"
         style="overflow:visible"
         xlink:href="#XMLID_5_"
         x="0"
         y="0"
         width="100%"
         height="100%" />
    </clipPath>
    <clipPath
       id="clipPath8934">
      <use
         id="use8936"
         style="overflow:visible"
         xlink:href="#XMLID_5_"
         x="0"
         y="0"
         width="100%"
         height="100%" />
    </clipPath>
  </defs>
  <sodipodi:namedview
     id="base"
     pagecolor="#ffffff"
     bordercolor="#666666"
     borderopacity="1.0"
     inkscape:pageopacity="0.0"
     inkscape:pageshadow="2"
     inkscape:zoom="0.35"
     inkscape:cx="-119.66666"
     inkscape:cy="-146.09523"
     inkscape:document-units="px"
     inkscape:current-layer="layer1"
     showgrid="false"
     fit-margin-top="0"
     fit-margin-left="0"
     fit-margin-right="0"
     fit-margin-bottom="0"
     units="px"
     inkscape:window-width="735"
     inkscape:window-height="719"
     inkscape:window-x="629"
     inkscape:window-y="18"
     inkscape:window-maximized="0" />
  <metadata
     id="metadata8978">
    <rdf:RDF>
      <cc:Work
         rdf:about="">
        <dc:format>image/svg+xml</dc:format>
        <dc:type
           rdf:resource="http://purl.org/dc/dcmitype/StillImage" />
        <dc:title></dc:title>
      </cc:Work>
    </rdf:RDF>
  </metadata>
  <g
     inkscape:label="Layer 1"
     inkscape:groupmode="layer"
     id="layer1"
     transform="translate(-343.23809,-135.6003)">
    <g
       style="display:inline"
       id="XMLID_1_"
       transform="matrix(3.8564104,0,0,3.8564104,283.46373,75.825934)">
      <circle
         r="32.5"
         cy="48"
         cx="48"
         class="st0"
         id="XMLID_3_"
         style="fill:#88c5cc" />
      <g
         id="XMLID_6_">
        <defs
           id="defs6216">
          <circle
             r="32.5"
             cy="48"
             cx="48"
             id="XMLID_5_" />
        </defs>
        <clipPath
           id="clipPath8943">
          <use
             id="use8945"
             style="overflow:visible"
             xlink:href="#XMLID_5_"
             x="0"
             y="0"
             width="100%"
             height="100%" />
        </clipPath>
        <path
           clip-path="url(#XMLID_32_)"
           d="m 53.9,59.1 3.7,6.2 4.4,0 c 7.1,0 12.4,4 12.4,10.9 l 0,16 -53.3,0 0,-16 c 0,-6.9 4.6,-10.9 11.7,-10.9 l 4.4,0 4.6,-6.1"
           class="st1"
           id="XMLID_7_"
           inkscape:connector-curvature="0"
           style="fill:#406a80" />
        <polygon
           clip-path="url(#XMLID_32_)"
           points="55.6,93.2 48.6,93.2 55.1,65.3 63.3,65.3 60.5,73 56.1,72.2 58.6,80.3 "
           class="st2"
           id="XMLID_8_"
           style="fill:#395f73" />
        <path
           clip-path="url(#XMLID_32_)"
           d="m 62,65.3 -2,0 c 7.1,0 12.4,4 12.4,10.9 l 0,16 2,0 0,-16 C 74.4,69.3 69.1,65.3 62,65.3 Z"
           class="st2"
           id="XMLID_9_"
           inkscape:connector-curvature="0"
           style="fill:#395f73" />
        <rect
           clip-path="url(#XMLID_32_)"
           height="34.5"
           width="10.7"
           class="st3"
           y="59.700001"
           x="42.400002"
           id="XMLID_10_"
           style="fill:#cccccc" />
        <polygon
           clip-path="url(#XMLID_32_)"
           points="49.7,73.9 52.1,70.1 52.1,61.2 43.4,61.2 43.4,70.1 45.8,73.9 "
           class="st4"
           id="XMLID_11_"
           style="fill:#242424" />
        <polygon
           clip-path="url(#XMLID_32_)"
           points="43,89.2 45.8,73.9 49.7,73.9 52.5,89.2 47.7,99.8 "
           class="st4"
           id="XMLID_12_"
           style="fill:#242424" />
        <polygon
           clip-path="url(#XMLID_32_)"
           points="52.2,87.7 45.4,76 45,78.2 52,90.3 52.5,89.3 "
           class="st5"
           id="XMLID_13_"
           style="fill:#c23527" />
        <polygon
           clip-path="url(#XMLID_32_)"
           points="48.1,73.9 46.4,73.9 51.2,82.4 50.5,78.1 "
           class="st5"
           id="XMLID_14_"
           style="fill:#c23527" />
        <polygon
           clip-path="url(#XMLID_32_)"
           points="40.6,93.2 47.6,93.2 41.2,65.3 33,65.3 35.8,73 40.2,72.2 37.6,80.3 "
           class="st6"
           id="XMLID_15_"
           style="fill:#335466" />
        <polygon
           clip-path="url(#XMLID_32_)"
           points="47.6,93.2 41.2,65.3 40.2,65.3 46.6,93.2 "
           class="st7"
           id="XMLID_16_"
           style="fill:#2d4a59" />
        <polygon
           clip-path="url(#XMLID_32_)"
           points="54.6,93.2 47.6,93.2 54.1,65.3 62.2,65.3 59.4,73 55,72.2 57.6,80.3 "
           class="st6"
           id="XMLID_17_"
           style="fill:#335466" />
        <polygon
           clip-path="url(#XMLID_32_)"
           points="40.8,58.5 35,65.6 43,70 47.7,61.4 52.5,70 60.5,65.6 54.7,58.5 47.7,60.6 "
           class="st8"
           id="XMLID_18_"
           style="fill:#f5f5f5" />
        <polygon
           clip-path="url(#XMLID_32_)"
           points="47.7,61.4 46.7,59.4 41.3,69.1 43,70 "
           class="st3"
           id="XMLID_19_"
           style="fill:#cccccc" />
        <polygon
           clip-path="url(#XMLID_32_)"
           points="52,69.1 52.5,70 60.5,65.6 54.7,58.5 52.9,59 58.4,65.6 "
           class="st3"
           id="XMLID_20_"
           style="fill:#cccccc" />
        <path
           clip-path="url(#XMLID_32_)"
           d="m 47.5,61.2 c -7.1,0 -13.2,-7.9 -13.2,-14.7 -1.5,0 -2,-1.1 -2,-2.5 l 0,-5.6 c 0,-1.4 2,-1.5 2,-1.5 l 0,-5.3 c 0,-4.1 0.7,-7.3 11,-7.3 10.3,-7.5 20.5,-0.2 15.4,7.3 l 0,5.3 c 0,0 2,0.1 2,1.5 l 0,5.6 c 0,1.4 -1,2.5 -2,2.5 0,6.8 -6.1,14.7 -13.2,14.7 z"
           class="st9"
           id="XMLID_21_"
           inkscape:connector-curvature="0"
           style="fill:#ffe1d9" />
        <path
           clip-path="url(#XMLID_32_)"
           d="m 52.7,21.2 c 5.5,0.6 8.8,5.5 5.4,10.3 l 0,5.3 0,9.6 c 0,6.5 -5.3,13.8 -11.9,14.6 0.4,0.1 0.8,0.1 1.2,0.1 7.1,0 13.2,-7.9 13.2,-14.7 l 0,-9.6 0,-5.3 C 64.5,25.9 59.7,20.4 52.7,21.2 Z"
           class="st10"
           id="XMLID_22_"
           inkscape:connector-curvature="0"
           style="fill:#f2d6ce" />
        <path
           clip-path="url(#XMLID_32_)"
           d="m 55.8,31.5 c 0,1.5 4.9,6.5 4.9,9.8 0,-2.5 0,-11.1 0,-11.1 l -4.9,1.3 z"
           class="st11"
           id="XMLID_23_"
           inkscape:connector-curvature="0"
           style="fill:#e78244" />
        <path
           clip-path="url(#XMLID_32_)"
           d="m 59.2,30.7 c 0,1 0,4 0,6.6 0.8,1.4 1.5,2.9 1.5,4.1 0,-2.5 0,-11.1 0,-11.1 l -1.5,0.4 z"
           class="st12"
           id="XMLID_24_"
           inkscape:connector-curvature="0"
           style="fill:#d97a40" />
        <path
           clip-path="url(#XMLID_32_)"
           d="m 45.2,24.2 c -10.3,0 -10.9,3.2 -10.9,7.3 l 0,11 c 0,-8 9.5,-5.8 11.7,-14.6 1.5,4.4 11.8,7.4 14.6,3.7 C 66,24.3 55.5,16.8 45.2,24.2 Z"
           class="st11"
           id="XMLID_25_"
           inkscape:connector-curvature="0"
           style="fill:#e78244" />
        <path
           clip-path="url(#XMLID_32_)"
           d="m 45.8,25.9 c -1.5,6.2 -8.6,8.9 -11.6,11.6 l 0,5 c 0,-7.4 9.7,-6.2 11.7,-14.6 -0.1,-0.9 -0.2,-1.1 -0.1,-2 z"
           class="st12"
           id="XMLID_26_"
           inkscape:connector-curvature="0"
           style="fill:#d97a40" />
        <path
           clip-path="url(#XMLID_32_)"
           d="m 52.8,21.2 c 5.8,0.5 9.3,5.5 5.7,10.3 -0.7,1 -2,1.5 -3.5,1.7 2.3,0.2 4.4,-0.2 5.5,-1.7 4.1,-5.4 -0.7,-10.9 -7.7,-10.3 z"
           class="st12"
           id="XMLID_27_"
           inkscape:connector-curvature="0"
           style="fill:#d97a40" />
        <rect
           clip-path="url(#XMLID_32_)"
           height="0.5"
           width="6.5999999"
           class="st6"
           y="77.5"
           x="60.700001"
           id="XMLID_28_"
           style="fill:#335466" />
      </g>
      <ellipse
         ry="1.5"
         rx="2"
         cy="40.400002"
         cx="42.400002"
         class="st13"
         id="XMLID_4_"
         style="fill:#f5f5f5" />
      <circle
         r="1"
         cy="40.400002"
         cx="42.400002"
         class="st14"
         id="XMLID_29_"
         style="fill:#2179a6" />
      <ellipse
         ry="1.5"
         rx="2"
         cy="40.400002"
         cx="52.599998"
         class="st13"
         id="XMLID_30_"
         style="fill:#f5f5f5" />
      <circle
         r="1"
         cy="40.400002"
         cx="52.599998"
         class="st14"
         id="XMLID_31_"
         style="fill:#2179a6" />
    </g>
  </g>
</svg>
