<?xml version="1.0" encoding="UTF-8" standalone="no"?>
<!-- Created with Inkscape (http://www.inkscape.org/) -->

<svg
   xmlns:dc="http://purl.org/dc/elements/1.1/"
   xmlns:cc="http://creativecommons.org/ns#"
   xmlns:rdf="http://www.w3.org/1999/02/22-rdf-syntax-ns#"
   xmlns:svg="http://www.w3.org/2000/svg"
   xmlns="http://www.w3.org/2000/svg"
   xmlns:sodipodi="http://sodipodi.sourceforge.net/DTD/sodipodi-0.dtd"
   xmlns:inkscape="http://www.inkscape.org/namespaces/inkscape"
   width="64.340805mm"
   height="64.340805mm"
   viewBox="0 0 227.97923 227.97923"
   id="svg18414"
   version="1.1"
   inkscape:version="0.91 r13725"
   sodipodi:docname="demanda.svg">
  <defs
     id="defs18416" />
  <sodipodi:namedview
     id="base"
     pagecolor="#ffffff"
     bordercolor="#666666"
     borderopacity="1.0"
     inkscape:pageopacity="0.0"
     inkscape:pageshadow="2"
     inkscape:zoom="0.35"
     inkscape:cx="166.1325"
     inkscape:cy="262.56107"
     inkscape:document-units="px"
     inkscape:current-layer="layer1"
     showgrid="false"
     fit-margin-top="1"
     fit-margin-left="1"
     fit-margin-right="1"
     fit-margin-bottom="1"
     inkscape:window-width="1366"
     inkscape:window-height="768"
     inkscape:window-x="0"
     inkscape:window-y="0"
     inkscape:window-maximized="0" />
  <metadata
     id="metadata18419">
    <rdf:RDF>
      <cc:Work
         rdf:about="">
        <dc:format>image/svg+xml</dc:format>
        <dc:type
           rdf:resource="http://purl.org/dc/dcmitype/StillImage" />
        <dc:title></dc:title>
      </cc:Work>
    </rdf:RDF>
  </metadata>
  <g
     inkscape:label="Layer 1"
     inkscape:groupmode="layer"
     id="layer1"
     transform="translate(-148.86751,-566.94403)">
    <g
       style="display:inline"
       id="g8519"
       transform="translate(-1350.263,235.37791)">
      <circle
         r="108.48011"
         cy="445.55573"
         cx="1613.1201"
         id="circle8503"
         style="color:#000000;clip-rule:nonzero;display:inline;overflow:visible;visibility:visible;opacity:1;isolation:auto;mix-blend-mode:normal;color-interpolation:sRGB;color-interpolation-filters:linearRGB;solid-color:#000000;solid-opacity:1;fill:none;fill-opacity:1;fill-rule:evenodd;stroke:#3cff45;stroke-width:3.93238211;stroke-linecap:butt;stroke-linejoin:miter;stroke-miterlimit:4;stroke-dasharray:none;stroke-dashoffset:0;stroke-opacity:1;color-rendering:auto;image-rendering:auto;shape-rendering:auto;text-rendering:auto;enable-background:accumulate" />
      <g
         style="display:inline"
         id="g9473"
         transform="matrix(0.65336896,0,0,0.65336896,653.34408,278.59376)">
        <path
           id="path9424"
           d="m 1387.2656,152.60352 c -0.9,0.5 -1.7996,1.10078 -2.5996,1.80078 -9.9,7.8 -12.2,21.4 -5,30.5 l 10.8985,-8.5 7.4003,9.30078 c -17.7,18 -28.5996,42.59883 -28.5996,69.79883 0,27.7 11.3004,52.70117 29.4004,70.70117 l -14.5,27.89844 c -2.1,4.1 -0.5,9.40039 3.5,11.90039 4.1,2.5 9.0992,1.19961 11.1992,-2.90039 l 13.3008,-25.59961 c 16.1,11.1 35.5992,17.70117 56.6992,17.70117 17.6,0 34.0004,-4.6 48.4004,-12.5 l -8.1992,-11.90039 -1.2871,-1.88086 a 83.5,83.5 0 0 1 -38.9141,9.67969 83.5,83.5 0 0 1 -83.5,-83.5 83.5,83.5 0 0 1 28.8145,-62.9629 l -0.9141,-1.33593 -26.0996,-38.20117 z"
           style="fill:#3cff45;fill-opacity:1"
           inkscape:connector-curvature="0" />
        <path
           id="path9426"
           d="m 1447.5645,143.80469 c -5.1,0 -9.1993,4 -9.1993,9 0,2.7 1.1996,5.09883 3.0996,6.79883 -11.1,3.2 -21.4996,8.20078 -30.5996,14.80078 l -6.9004,-8.69922 11.4004,-9 c -6.5,-8.3 -18.5992,-9.90117 -28.1992,-4.20117 l 26.0996,38.20117 0.9942,1.45312 a 83.5,83.5 0 0 1 54.705,-20.55468 83.5,83.5 0 0 1 83.5,83.5 83.5,83.5 0 0 1 -44.6093,73.83398 l 1.209,1.76758 8.1015,11.89844 c 3,-1.7 5.8992,-3.49844 8.6992,-5.39844 l 13.4004,25.89844 c 2.1,4.1 7.0992,5.40039 11.1992,2.90039 4.1,-2.5 5.6,-7.80039 3.5,-11.90039 l -14.5,-28.19922 c 3.8,-3.8 7.4,-8.00039 10.5,-12.40039 11.4,-15.8 18.1997,-35.1 18.5997,-56 l 0,-2 0,-2.79883 c -0.7,-26.5 -11.7989,-50.40039 -29.2989,-67.90039 l 6.6992,-8.5 10.9004,8.5 c 7.1,-9.1 4.9,-22.8 -5,-30.5 -9.9,-7.8 -23.7007,-6.69961 -30.8007,2.40039 l 11.4003,8.89844 -6.4003,8.10156 c -8.9,-6.3 -18.8993,-11.10117 -29.6993,-14.20117 1.9,-1.7 3.0996,-3.99922 3.0996,-6.69922 0,-5.1 -4.0992,-9 -9.1992,-9 l -42.7011,0 z"
           style="fill:#3cff44;fill-opacity:1"
           inkscape:connector-curvature="0" />
        <path
           id="path9432"
           d="m 1421.4293,214.29947 4.448,-4.74 46.675,43.788 -4.448,4.74 z"
           class="st0"
           inkscape:connector-curvature="0"
           style="fill:#009007;fill-opacity:1" />
        <path
           id="path9434"
           d="m 1430.3353,301.13447 -2.392,-2.128 39.95,-44.9 2.39,2.126 z"
           class="st3"
           inkscape:connector-curvature="0"
           style="fill:#40e548;fill-opacity:1" />
        <path
           id="path9436"
           d="m 1464.0653,217.20447 10.4,0 0,38.2 -10.4,0 z"
           class="st0"
           inkscape:connector-curvature="0"
           style="fill:#009007;fill-opacity:1" />
        <circle
           id="circle9438"
           r="9.8000002"
           cy="255.00447"
           cx="1469.2653"
           style="fill:#009007;fill-opacity:1" />
        <path
           id="path9440"
           d="m 1468.6653,333.90447 -2.8,0 0.3,-9.1 2.5,0 0,9.1 z m 36.5,-9 -4.3,-8.1 c 0.7,-0.4 1.5,-0.8 2.2,-1.2 l 4.6,7.9 c -0.8,0.5 -1.6,0.9 -2.5,1.4 z m -75.6,-1.4 -2.4,-1.5 4.9,-7.8 c 0.7,0.4 1.4,0.9 2.2,1.3 l -4.7,8 z m 105.2,-26.1 -7.7,-4.9 c 0.4,-0.7 0.9,-1.4 1.3,-2.2 l 7.9,4.6 c -0.5,0.8 -1,1.6 -1.5,2.5 z m -133.8,-2.4 c -0.5,-0.8 -0.9,-1.6 -1.4,-2.5 l 8.1,-4.3 c 0.4,0.7 0.8,1.5 1.2,2.2 l -7.9,4.6 z m 145.6,-36.3 -9.6,-0.3 c 0,-0.8 -0.4,-1.7 -0.4,-2.5 l 10,0 c 0,0.9 0.1,1.9 0,2.8 z m -156,-2.8 0,-2.8 9.1,0.3 0,2.4 -9.1,0.1 z m 138.9,-32.5 c -0.4,-0.7 -0.8,-1.5 -1.2,-2.2 l 7.9,-4.6 c 0.5,0.8 0.9,1.6 1.4,2.5 l -8.1,4.3 z m -120.7,-2 -7.9,-4.6 1.5,-2.4 7.8,4.9 c -0.5,0.7 -1,1.4 -1.4,2.1 z m 96.4,-24.1 c -0.7,-0.4 -1.4,-0.9 -2.2,-1.3 l 4.6,-7.9 2.4,1.5 -4.8,7.7 z m -71.2,-1.1 -4.6,-7.9 c 0.8,-0.5 1.7,-0.9 2.5,-1.4 l 4.3,8.1 c -0.7,0.3 -1.4,0.7 -2.2,1.2 z m 37,-8.8 c -0.8,0 -1.6,0.5 -2.4,0.5 l 0,-9 c 0.9,0 1.8,-0.3 2.7,-0.3 l -0.3,8.8 z"
           class="st1"
           inkscape:connector-curvature="0"
           style="fill:#a1ce57" />
      </g>
    </g>
  </g>
</svg>
