<?xml version="1.0" encoding="UTF-8" standalone="no"?>
<svg
   xmlns:dc="http://purl.org/dc/elements/1.1/"
   xmlns:cc="http://creativecommons.org/ns#"
   xmlns:rdf="http://www.w3.org/1999/02/22-rdf-syntax-ns#"
   xmlns:svg="http://www.w3.org/2000/svg"
   xmlns="http://www.w3.org/2000/svg"
   xmlns:sodipodi="http://sodipodi.sourceforge.net/DTD/sodipodi-0.dtd"
   xmlns:inkscape="http://www.inkscape.org/namespaces/inkscape"
   width="109mm"
   height="90mm"
   viewBox="0 0 10900 9000"
   version="1.1"
   stroke-width="28.222"
   stroke-linejoin="round"
   xml:space="preserve"
   id="svg11329"
   inkscape:version="0.91 r13725"
   sodipodi:docname="domicilios_grafico1.svg"><metadata
     id="metadata11631"><rdf:RDF><cc:Work
         rdf:about=""><dc:format>image/svg+xml</dc:format><dc:type
           rdf:resource="http://purl.org/dc/dcmitype/StillImage" /><dc:title /></cc:Work></rdf:RDF></metadata><defs
     id="defs11629" /><sodipodi:namedview
     pagecolor="#ffffff"
     bordercolor="#666666"
     borderopacity="1"
     objecttolerance="10"
     gridtolerance="10"
     guidetolerance="10"
     inkscape:pageopacity="0"
     inkscape:pageshadow="2"
     inkscape:window-width="462"
     inkscape:window-height="719"
     id="namedview11627"
     showgrid="false"
     inkscape:zoom="2.0285675"
     inkscape:cx="224.76302"
     inkscape:cy="159.46172"
     inkscape:window-x="902"
     inkscape:window-y="18"
     inkscape:window-maximized="0"
     inkscape:current-layer="svg11329" /><path
     fill="rgb(255,255,255)"
     stroke="none"
     d="M 5429,8999 L 0,8999 0,0 10858,0 10858,8999 5429,8999 Z"
     id="path11331"
     style="fill:#ffffff;fill-opacity:0" /><path
     fill="none"
     stroke="rgb(179,179,179)"
     stroke-linejoin="round"
     d="M 891,8295 L 891,8145"
     id="path11333"
     style="stroke:#ffffff" /><path
     fill="none"
     stroke="rgb(179,179,179)"
     stroke-linejoin="round"
     d="M 891,8295 L 891,8145"
     id="path11335"
     style="stroke:#ffffff" /><path
     fill="none"
     stroke="rgb(179,179,179)"
     stroke-linejoin="round"
     d="M 2056,8295 L 2056,8145"
     id="path11337"
     style="stroke:#ffffff" /><path
     fill="none"
     stroke="rgb(179,179,179)"
     stroke-linejoin="round"
     d="M 2056,8295 L 2056,8145"
     id="path11339"
     style="stroke:#ffffff" /><path
     fill="none"
     stroke="rgb(179,179,179)"
     stroke-linejoin="round"
     d="M 3222,8295 L 3222,8145"
     id="path11341"
     style="stroke:#ffffff" /><path
     fill="none"
     stroke="rgb(179,179,179)"
     stroke-linejoin="round"
     d="M 3222,8295 L 3222,8145"
     id="path11343"
     style="stroke:#ffffff" /><path
     fill="none"
     stroke="rgb(179,179,179)"
     stroke-linejoin="round"
     d="M 4388,8295 L 4388,8145"
     id="path11345"
     style="stroke:#ffffff" /><path
     fill="none"
     stroke="rgb(179,179,179)"
     stroke-linejoin="round"
     d="M 4388,8295 L 4388,8145"
     id="path11347"
     style="stroke:#ffffff" /><path
     fill="none"
     stroke="rgb(179,179,179)"
     stroke-linejoin="round"
     d="M 5553,8295 L 5553,8145"
     id="path11349"
     style="stroke:#ffffff" /><path
     fill="none"
     stroke="rgb(179,179,179)"
     stroke-linejoin="round"
     d="M 5553,8295 L 5553,8145"
     id="path11351"
     style="stroke:#ffffff" /><path
     fill="none"
     stroke="rgb(179,179,179)"
     stroke-linejoin="round"
     d="M 6718,8295 L 6718,8145"
     id="path11353"
     style="stroke:#ffffff" /><path
     fill="none"
     stroke="rgb(179,179,179)"
     stroke-linejoin="round"
     d="M 6718,8295 L 6718,8145"
     id="path11355"
     style="stroke:#ffffff" /><path
     fill="none"
     stroke="rgb(179,179,179)"
     stroke-linejoin="round"
     d="M 7884,8295 L 7884,8145"
     id="path11357"
     style="stroke:#ffffff" /><path
     fill="none"
     stroke="rgb(179,179,179)"
     stroke-linejoin="round"
     d="M 7884,8295 L 7884,8145"
     id="path11359"
     style="stroke:#ffffff" /><path
     fill="none"
     stroke="rgb(179,179,179)"
     stroke-linejoin="round"
     d="M 9050,8295 L 9050,8145"
     id="path11361"
     style="stroke:#ffffff" /><path
     fill="none"
     stroke="rgb(179,179,179)"
     stroke-linejoin="round"
     d="M 9050,8295 L 9050,8145"
     id="path11363"
     style="stroke:#ffffff" /><path
     fill="none"
     stroke="rgb(179,179,179)"
     stroke-linejoin="round"
     d="M 10216,8295 L 10216,8145"
     id="path11365"
     style="stroke:#ffffff" /><path
     fill="none"
     stroke="rgb(179,179,179)"
     stroke-linejoin="round"
     d="M 10216,8295 L 10216,8145"
     id="path11367"
     style="stroke:#ffffff" /><path
     fill="none"
     stroke="rgb(179,179,179)"
     stroke-linejoin="round"
     d="M 891,8145 L 10216,8145"
     id="path11369"
     style="stroke:#ffffff" /><path
     fill="none"
     stroke="rgb(179,179,179)"
     stroke-linejoin="round"
     d="M 741,8145 L 891,8145"
     id="path11371"
     style="stroke:#ffffff" /><path
     fill="none"
     stroke="rgb(179,179,179)"
     stroke-linejoin="round"
     d="M 741,8145 L 891,8145"
     id="path11373"
     style="stroke:#ffffff" /><path
     fill="none"
     stroke="rgb(179,179,179)"
     stroke-linejoin="round"
     d="M 741,7043 L 891,7043"
     id="path11375"
     style="stroke:#ffffff" /><path
     fill="none"
     stroke="rgb(179,179,179)"
     stroke-linejoin="round"
     d="M 741,7043 L 891,7043"
     id="path11377"
     style="stroke:#ffffff" /><path
     fill="none"
     stroke="rgb(179,179,179)"
     stroke-linejoin="round"
     d="M 741,5942 L 891,5942"
     id="path11379"
     style="stroke:#ffffff" /><path
     fill="none"
     stroke="rgb(179,179,179)"
     stroke-linejoin="round"
     d="M 741,5942 L 891,5942"
     id="path11381"
     style="stroke:#ffffff" /><path
     fill="none"
     stroke="rgb(179,179,179)"
     stroke-linejoin="round"
     d="M 741,4841 L 891,4841"
     id="path11383"
     style="stroke:#ffffff" /><path
     fill="none"
     stroke="rgb(179,179,179)"
     stroke-linejoin="round"
     d="M 741,4841 L 891,4841"
     id="path11385"
     style="stroke:#ffffff" /><path
     fill="none"
     stroke="rgb(179,179,179)"
     stroke-linejoin="round"
     d="M 741,3741 L 891,3741"
     id="path11387"
     style="stroke:#ffffff" /><path
     fill="none"
     stroke="rgb(179,179,179)"
     stroke-linejoin="round"
     d="M 741,3741 L 891,3741"
     id="path11389"
     style="stroke:#ffffff" /><path
     fill="none"
     stroke="rgb(179,179,179)"
     stroke-linejoin="round"
     d="M 741,2640 L 891,2640"
     id="path11391"
     style="stroke:#ffffff" /><path
     fill="none"
     stroke="rgb(179,179,179)"
     stroke-linejoin="round"
     d="M 741,2640 L 891,2640"
     id="path11393"
     style="stroke:#ffffff" /><path
     fill="none"
     stroke="rgb(179,179,179)"
     stroke-linejoin="round"
     d="M 741,1539 L 891,1539"
     id="path11395"
     style="stroke:#ffffff" /><path
     fill="none"
     stroke="rgb(179,179,179)"
     stroke-linejoin="round"
     d="M 741,1539 L 891,1539"
     id="path11397"
     style="stroke:#ffffff" /><path
     fill="none"
     stroke="rgb(179,179,179)"
     stroke-linejoin="round"
     d="M 891,8145 L 891,1539"
     id="path11399"
     style="stroke:#ffffff" /><path
     fill="none"
     stroke="rgb(0,69,134)"
     stroke-width="80"
     stroke-linejoin="round"
     d="M 2056,6162 L 3222,5502 4388,5171 5553,4181 6718,3741 7884,3410 9050,2640 10216,2530"
     id="path11401"
     style="stroke:#ffff00" /><path
     fill="rgb(0,69,134)"
     stroke="none"
     d="M 2281,6162 L 2281,6153 2280,6143 2279,6133 2278,6123 2276,6114 2274,6104 2271,6095 2268,6085 2264,6076 2260,6067 2256,6059 2251,6050 2246,6042 2241,6033 2235,6025 2229,6018 2222,6010 2215,6003 2208,5997 2201,5990 2193,5984 2185,5978 2177,5973 2169,5968 2160,5963 2151,5958 2142,5955 2133,5951 2124,5948 2114,5945 2105,5943 2095,5941 2086,5939 2076,5938 2066,5938 2056,5937 2046,5938 2037,5938 2027,5939 2017,5941 2008,5943 1998,5945 1989,5948 1979,5951 1970,5955 1961,5958 1952,5963 1944,5968 1935,5973 1927,5978 1919,5984 1912,5990 1904,5997 1897,6003 1890,6010 1884,6018 1878,6025 1872,6033 1866,6042 1861,6050 1857,6059 1852,6067 1848,6076 1845,6085 1842,6095 1839,6104 1837,6114 1835,6123 1833,6133 1832,6143 1831,6153 1831,6162 1831,6172 1832,6182 1833,6192 1835,6201 1837,6211 1839,6221 1842,6230 1845,6239 1848,6249 1852,6257 1857,6266 1861,6275 1866,6283 1872,6291 1878,6299 1884,6307 1890,6314 1897,6321 1904,6328 1912,6335 1919,6341 1927,6347 1935,6352 1944,6357 1952,6362 1961,6366 1970,6370 1979,6374 1989,6377 1998,6380 2008,6382 2017,6384 2027,6385 2037,6387 2046,6387 2056,6387 2066,6387 2076,6387 2086,6385 2095,6384 2105,6382 2114,6380 2124,6377 2133,6374 2142,6370 2151,6366 2160,6362 2169,6357 2177,6352 2185,6347 2193,6341 2201,6335 2208,6328 2215,6321 2222,6314 2229,6307 2235,6299 2241,6291 2246,6283 2251,6275 2256,6266 2260,6257 2264,6249 2268,6239 2271,6230 2274,6221 2276,6211 2278,6201 2279,6192 2280,6182 2281,6172 2281,6162 Z"
     id="path11403"
     style="fill:#ffff00" /><path
     fill="none"
     stroke="rgb(0,69,134)"
     stroke-linejoin="round"
     d="M 2281,6162 L 2281,6153 2280,6143 2279,6133 2278,6123 2276,6114 2274,6104 2271,6095 2268,6085 2264,6076 2260,6067 2256,6059 2251,6050 2246,6042 2241,6033 2235,6025 2229,6018 2222,6010 2215,6003 2208,5997 2201,5990 2193,5984 2185,5978 2177,5973 2169,5968 2160,5963 2151,5958 2142,5955 2133,5951 2124,5948 2114,5945 2105,5943 2095,5941 2086,5939 2076,5938 2066,5938 2056,5937 2046,5938 2037,5938 2027,5939 2017,5941 2008,5943 1998,5945 1989,5948 1979,5951 1970,5955 1961,5958 1952,5963 1944,5968 1935,5973 1927,5978 1919,5984 1912,5990 1904,5997 1897,6003 1890,6010 1884,6018 1878,6025 1872,6033 1866,6042 1861,6050 1857,6059 1852,6067 1848,6076 1845,6085 1842,6095 1839,6104 1837,6114 1835,6123 1833,6133 1832,6143 1831,6153 1831,6162 1831,6172 1832,6182 1833,6192 1835,6201 1837,6211 1839,6221 1842,6230 1845,6239 1848,6249 1852,6257 1857,6266 1861,6275 1866,6283 1872,6291 1878,6299 1884,6307 1890,6314 1897,6321 1904,6328 1912,6335 1919,6341 1927,6347 1935,6352 1944,6357 1952,6362 1961,6366 1970,6370 1979,6374 1989,6377 1998,6380 2008,6382 2017,6384 2027,6385 2037,6387 2046,6387 2056,6387 2066,6387 2076,6387 2086,6385 2095,6384 2105,6382 2114,6380 2124,6377 2133,6374 2142,6370 2151,6366 2160,6362 2169,6357 2177,6352 2185,6347 2193,6341 2201,6335 2208,6328 2215,6321 2222,6314 2229,6307 2235,6299 2241,6291 2246,6283 2251,6275 2256,6266 2260,6257 2264,6249 2268,6239 2271,6230 2274,6221 2276,6211 2278,6201 2279,6192 2280,6182 2281,6172 2281,6162 Z"
     id="path11405" /><path
     fill="rgb(0,69,134)"
     stroke="none"
     d="M 3447,5502 L 3447,5492 3446,5482 3445,5472 3444,5463 3442,5453 3439,5443 3437,5434 3433,5425 3430,5416 3426,5407 3422,5398 3417,5389 3412,5381 3406,5373 3401,5365 3394,5357 3388,5350 3381,5343 3374,5336 3367,5329 3359,5323 3351,5317 3343,5312 3335,5307 3326,5302 3317,5298 3308,5294 3299,5290 3290,5287 3280,5284 3271,5282 3261,5280 3251,5279 3242,5278 3232,5277 3222,5277 3212,5277 3202,5278 3193,5279 3183,5280 3173,5282 3164,5284 3154,5287 3145,5290 3136,5294 3127,5298 3118,5302 3110,5307 3101,5312 3093,5317 3085,5323 3077,5329 3070,5336 3063,5343 3056,5350 3050,5357 3043,5365 3038,5373 3032,5381 3027,5389 3022,5398 3018,5407 3014,5416 3011,5425 3007,5434 3005,5443 3002,5453 3000,5463 2999,5472 2998,5482 2997,5492 2997,5502 2997,5512 2998,5521 2999,5531 3000,5541 3002,5550 3005,5560 3007,5569 3011,5579 3014,5588 3018,5597 3022,5606 3027,5614 3032,5623 3038,5631 3043,5639 3050,5646 3056,5654 3063,5661 3070,5668 3077,5674 3085,5680 3093,5686 3101,5691 3110,5697 3118,5701 3127,5706 3136,5710 3145,5713 3154,5716 3164,5719 3173,5721 3183,5723 3193,5725 3202,5726 3212,5726 3222,5727 3232,5726 3242,5726 3251,5725 3261,5723 3271,5721 3280,5719 3290,5716 3299,5713 3308,5710 3317,5706 3326,5701 3335,5697 3343,5691 3351,5686 3359,5680 3367,5674 3374,5668 3381,5661 3388,5654 3394,5646 3401,5639 3406,5631 3412,5623 3417,5614 3422,5606 3426,5597 3430,5588 3433,5579 3437,5569 3439,5560 3442,5550 3444,5541 3445,5531 3446,5521 3447,5512 3447,5502 Z"
     id="path11407" /><path
     fill="none"
     stroke="rgb(0,69,134)"
     stroke-linejoin="round"
     d="M 3447,5502 L 3447,5492 3446,5482 3445,5472 3444,5463 3442,5453 3439,5443 3437,5434 3433,5425 3430,5416 3426,5407 3422,5398 3417,5389 3412,5381 3406,5373 3401,5365 3394,5357 3388,5350 3381,5343 3374,5336 3367,5329 3359,5323 3351,5317 3343,5312 3335,5307 3326,5302 3317,5298 3308,5294 3299,5290 3290,5287 3280,5284 3271,5282 3261,5280 3251,5279 3242,5278 3232,5277 3222,5277 3212,5277 3202,5278 3193,5279 3183,5280 3173,5282 3164,5284 3154,5287 3145,5290 3136,5294 3127,5298 3118,5302 3110,5307 3101,5312 3093,5317 3085,5323 3077,5329 3070,5336 3063,5343 3056,5350 3050,5357 3043,5365 3038,5373 3032,5381 3027,5389 3022,5398 3018,5407 3014,5416 3011,5425 3007,5434 3005,5443 3002,5453 3000,5463 2999,5472 2998,5482 2997,5492 2997,5502 2997,5512 2998,5521 2999,5531 3000,5541 3002,5550 3005,5560 3007,5569 3011,5579 3014,5588 3018,5597 3022,5606 3027,5614 3032,5623 3038,5631 3043,5639 3050,5646 3056,5654 3063,5661 3070,5668 3077,5674 3085,5680 3093,5686 3101,5691 3110,5697 3118,5701 3127,5706 3136,5710 3145,5713 3154,5716 3164,5719 3173,5721 3183,5723 3193,5725 3202,5726 3212,5726 3222,5727 3232,5726 3242,5726 3251,5725 3261,5723 3271,5721 3280,5719 3290,5716 3299,5713 3308,5710 3317,5706 3326,5701 3335,5697 3343,5691 3351,5686 3359,5680 3367,5674 3374,5668 3381,5661 3388,5654 3394,5646 3401,5639 3406,5631 3412,5623 3417,5614 3422,5606 3426,5597 3430,5588 3433,5579 3437,5569 3439,5560 3442,5550 3444,5541 3445,5531 3446,5521 3447,5512 3447,5502 Z"
     id="path11409"
     style="fill:#ffff00" /><path
     fill="rgb(0,69,134)"
     stroke="none"
     d="M 4613,5171 L 4613,5162 4612,5152 4611,5142 4609,5132 4607,5123 4605,5113 4602,5104 4599,5094 4596,5085 4592,5076 4587,5067 4583,5059 4578,5050 4572,5042 4566,5034 4560,5027 4554,5019 4547,5012 4540,5005 4532,4999 4525,4993 4517,4987 4509,4982 4500,4976 4492,4972 4483,4967 4474,4963 4465,4960 4455,4957 4446,4954 4436,4952 4427,4950 4417,4948 4407,4947 4398,4947 4388,4946 4378,4947 4368,4947 4358,4948 4349,4950 4339,4952 4330,4954 4320,4957 4311,4960 4302,4963 4293,4967 4284,4972 4275,4976 4267,4982 4259,4987 4251,4993 4243,4999 4236,5005 4229,5012 4222,5019 4215,5027 4209,5034 4203,5042 4198,5050 4193,5059 4188,5067 4184,5076 4180,5085 4176,5094 4173,5104 4170,5113 4168,5123 4166,5132 4165,5142 4164,5152 4163,5162 4163,5171 4163,5181 4164,5191 4165,5201 4166,5210 4168,5220 4170,5230 4173,5239 4176,5248 4180,5257 4184,5266 4188,5275 4193,5284 4198,5292 4203,5300 4209,5308 4215,5316 4222,5323 4229,5330 4236,5337 4243,5344 4251,5350 4259,5356 4267,5361 4275,5366 4284,5371 4293,5375 4302,5379 4311,5383 4320,5386 4330,5389 4339,5391 4349,5393 4358,5394 4368,5395 4378,5396 4388,5396 4398,5396 4407,5395 4417,5394 4427,5393 4436,5391 4446,5389 4455,5386 4465,5383 4474,5379 4483,5375 4492,5371 4500,5366 4509,5361 4517,5356 4525,5350 4532,5344 4540,5337 4547,5330 4554,5323 4560,5316 4566,5308 4572,5300 4578,5292 4583,5284 4587,5275 4592,5266 4596,5257 4599,5248 4602,5239 4605,5230 4607,5220 4609,5210 4611,5201 4612,5191 4613,5181 4613,5171 Z"
     id="path11411" /><path
     fill="none"
     stroke="rgb(0,69,134)"
     stroke-linejoin="round"
     d="M 4613,5171 L 4613,5162 4612,5152 4611,5142 4609,5132 4607,5123 4605,5113 4602,5104 4599,5094 4596,5085 4592,5076 4587,5067 4583,5059 4578,5050 4572,5042 4566,5034 4560,5027 4554,5019 4547,5012 4540,5005 4532,4999 4525,4993 4517,4987 4509,4982 4500,4976 4492,4972 4483,4967 4474,4963 4465,4960 4455,4957 4446,4954 4436,4952 4427,4950 4417,4948 4407,4947 4398,4947 4388,4946 4378,4947 4368,4947 4358,4948 4349,4950 4339,4952 4330,4954 4320,4957 4311,4960 4302,4963 4293,4967 4284,4972 4275,4976 4267,4982 4259,4987 4251,4993 4243,4999 4236,5005 4229,5012 4222,5019 4215,5027 4209,5034 4203,5042 4198,5050 4193,5059 4188,5067 4184,5076 4180,5085 4176,5094 4173,5104 4170,5113 4168,5123 4166,5132 4165,5142 4164,5152 4163,5162 4163,5171 4163,5181 4164,5191 4165,5201 4166,5210 4168,5220 4170,5230 4173,5239 4176,5248 4180,5257 4184,5266 4188,5275 4193,5284 4198,5292 4203,5300 4209,5308 4215,5316 4222,5323 4229,5330 4236,5337 4243,5344 4251,5350 4259,5356 4267,5361 4275,5366 4284,5371 4293,5375 4302,5379 4311,5383 4320,5386 4330,5389 4339,5391 4349,5393 4358,5394 4368,5395 4378,5396 4388,5396 4398,5396 4407,5395 4417,5394 4427,5393 4436,5391 4446,5389 4455,5386 4465,5383 4474,5379 4483,5375 4492,5371 4500,5366 4509,5361 4517,5356 4525,5350 4532,5344 4540,5337 4547,5330 4554,5323 4560,5316 4566,5308 4572,5300 4578,5292 4583,5284 4587,5275 4592,5266 4596,5257 4599,5248 4602,5239 4605,5230 4607,5220 4609,5210 4611,5201 4612,5191 4613,5181 4613,5171 Z"
     id="path11413"
     style="fill:#ffff00" /><path
     fill="rgb(0,69,134)"
     stroke="none"
     d="M 5778,4181 L 5777,4171 5777,4162 5776,4152 5774,4142 5772,4133 5770,4123 5767,4114 5764,4104 5760,4095 5756,4086 5752,4077 5747,4069 5742,4060 5737,4052 5731,4044 5725,4037 5718,4029 5712,4022 5705,4015 5697,4009 5689,4003 5682,3997 5673,3992 5665,3986 5656,3982 5648,3977 5639,3973 5629,3970 5620,3967 5611,3964 5601,3962 5592,3960 5582,3958 5572,3957 5562,3957 5553,3956 5543,3957 5533,3957 5523,3958 5513,3960 5504,3962 5494,3964 5485,3967 5476,3970 5466,3973 5457,3977 5449,3982 5440,3986 5432,3992 5424,3997 5417,4003 5409,4009 5401,4015 5394,4022 5388,4029 5381,4037 5375,4044 5369,4052 5364,4060 5359,4069 5354,4077 5350,4086 5346,4095 5342,4104 5339,4114 5336,4123 5334,4133 5332,4142 5330,4152 5329,4162 5329,4171 5329,4181 5329,4191 5329,4201 5330,4211 5332,4220 5334,4230 5336,4240 5339,4249 5342,4258 5346,4267 5350,4276 5354,4285 5359,4294 5364,4302 5369,4310 5375,4318 5381,4326 5388,4333 5394,4340 5401,4347 5409,4354 5417,4360 5424,4366 5432,4371 5440,4376 5449,4381 5457,4385 5466,4389 5476,4393 5485,4396 5494,4399 5504,4401 5513,4403 5523,4404 5533,4405 5543,4406 5553,4406 5562,4406 5572,4405 5582,4404 5592,4403 5601,4401 5611,4399 5620,4396 5629,4393 5639,4389 5648,4385 5656,4381 5665,4376 5673,4371 5682,4366 5689,4360 5697,4354 5705,4347 5712,4340 5718,4333 5725,4326 5731,4318 5737,4310 5742,4302 5747,4294 5752,4285 5756,4276 5760,4267 5764,4258 5767,4249 5770,4240 5772,4230 5774,4220 5776,4211 5777,4201 5777,4191 5778,4181 Z"
     id="path11415" /><path
     fill="none"
     stroke="rgb(0,69,134)"
     stroke-linejoin="round"
     d="M 5778,4181 L 5777,4171 5777,4162 5776,4152 5774,4142 5772,4133 5770,4123 5767,4114 5764,4104 5760,4095 5756,4086 5752,4077 5747,4069 5742,4060 5737,4052 5731,4044 5725,4037 5718,4029 5712,4022 5705,4015 5697,4009 5689,4003 5682,3997 5673,3992 5665,3986 5656,3982 5648,3977 5639,3973 5629,3970 5620,3967 5611,3964 5601,3962 5592,3960 5582,3958 5572,3957 5562,3957 5553,3956 5543,3957 5533,3957 5523,3958 5513,3960 5504,3962 5494,3964 5485,3967 5476,3970 5466,3973 5457,3977 5449,3982 5440,3986 5432,3992 5424,3997 5417,4003 5409,4009 5401,4015 5394,4022 5388,4029 5381,4037 5375,4044 5369,4052 5364,4060 5359,4069 5354,4077 5350,4086 5346,4095 5342,4104 5339,4114 5336,4123 5334,4133 5332,4142 5330,4152 5329,4162 5329,4171 5329,4181 5329,4191 5329,4201 5330,4211 5332,4220 5334,4230 5336,4240 5339,4249 5342,4258 5346,4267 5350,4276 5354,4285 5359,4294 5364,4302 5369,4310 5375,4318 5381,4326 5388,4333 5394,4340 5401,4347 5409,4354 5417,4360 5424,4366 5432,4371 5440,4376 5449,4381 5457,4385 5466,4389 5476,4393 5485,4396 5494,4399 5504,4401 5513,4403 5523,4404 5533,4405 5543,4406 5553,4406 5562,4406 5572,4405 5582,4404 5592,4403 5601,4401 5611,4399 5620,4396 5629,4393 5639,4389 5648,4385 5656,4381 5665,4376 5673,4371 5682,4366 5689,4360 5697,4354 5705,4347 5712,4340 5718,4333 5725,4326 5731,4318 5737,4310 5742,4302 5747,4294 5752,4285 5756,4276 5760,4267 5764,4258 5767,4249 5770,4240 5772,4230 5774,4220 5776,4211 5777,4201 5777,4191 5778,4181 Z"
     id="path11417"
     style="fill:#ffff00" /><path
     fill="rgb(0,69,134)"
     stroke="none"
     d="M 6943,3741 L 6943,3731 6942,3721 6941,3711 6940,3702 6938,3692 6936,3683 6933,3673 6930,3664 6926,3655 6922,3646 6918,3637 6913,3628 6908,3620 6903,3612 6897,3604 6891,3596 6884,3589 6877,3582 6870,3575 6863,3568 6855,3562 6847,3557 6839,3551 6831,3546 6822,3541 6813,3537 6804,3533 6795,3529 6786,3526 6776,3524 6767,3521 6757,3519 6748,3518 6738,3517 6728,3516 6718,3516 6708,3516 6699,3517 6689,3518 6679,3519 6670,3521 6660,3524 6651,3526 6641,3529 6632,3533 6623,3537 6614,3541 6606,3546 6597,3551 6589,3557 6581,3562 6574,3568 6566,3575 6559,3582 6552,3589 6546,3596 6540,3604 6534,3612 6528,3620 6523,3628 6519,3637 6514,3646 6510,3655 6507,3664 6504,3673 6501,3683 6499,3692 6497,3702 6495,3711 6494,3721 6493,3731 6493,3741 6493,3751 6494,3760 6495,3770 6497,3780 6499,3790 6501,3799 6504,3808 6507,3818 6510,3827 6514,3836 6519,3845 6523,3853 6528,3862 6534,3870 6540,3878 6546,3885 6552,3893 6559,3900 6566,3907 6574,3913 6581,3919 6589,3925 6597,3931 6606,3936 6614,3940 6623,3945 6632,3949 6641,3952 6651,3955 6660,3958 6670,3960 6679,3962 6689,3964 6699,3965 6708,3966 6718,3966 6728,3966 6738,3965 6748,3964 6757,3962 6767,3960 6776,3958 6786,3955 6795,3952 6804,3949 6813,3945 6822,3940 6831,3936 6839,3931 6847,3925 6855,3919 6863,3913 6870,3907 6877,3900 6884,3893 6891,3885 6897,3878 6903,3870 6908,3862 6913,3853 6918,3845 6922,3836 6926,3827 6930,3818 6933,3808 6936,3799 6938,3790 6940,3780 6941,3770 6942,3760 6943,3751 6943,3741 Z"
     id="path11419" /><path
     fill="none"
     stroke="rgb(0,69,134)"
     stroke-linejoin="round"
     d="M 6943,3741 L 6943,3731 6942,3721 6941,3711 6940,3702 6938,3692 6936,3683 6933,3673 6930,3664 6926,3655 6922,3646 6918,3637 6913,3628 6908,3620 6903,3612 6897,3604 6891,3596 6884,3589 6877,3582 6870,3575 6863,3568 6855,3562 6847,3557 6839,3551 6831,3546 6822,3541 6813,3537 6804,3533 6795,3529 6786,3526 6776,3524 6767,3521 6757,3519 6748,3518 6738,3517 6728,3516 6718,3516 6708,3516 6699,3517 6689,3518 6679,3519 6670,3521 6660,3524 6651,3526 6641,3529 6632,3533 6623,3537 6614,3541 6606,3546 6597,3551 6589,3557 6581,3562 6574,3568 6566,3575 6559,3582 6552,3589 6546,3596 6540,3604 6534,3612 6528,3620 6523,3628 6519,3637 6514,3646 6510,3655 6507,3664 6504,3673 6501,3683 6499,3692 6497,3702 6495,3711 6494,3721 6493,3731 6493,3741 6493,3751 6494,3760 6495,3770 6497,3780 6499,3790 6501,3799 6504,3808 6507,3818 6510,3827 6514,3836 6519,3845 6523,3853 6528,3862 6534,3870 6540,3878 6546,3885 6552,3893 6559,3900 6566,3907 6574,3913 6581,3919 6589,3925 6597,3931 6606,3936 6614,3940 6623,3945 6632,3949 6641,3952 6651,3955 6660,3958 6670,3960 6679,3962 6689,3964 6699,3965 6708,3966 6718,3966 6728,3966 6738,3965 6748,3964 6757,3962 6767,3960 6776,3958 6786,3955 6795,3952 6804,3949 6813,3945 6822,3940 6831,3936 6839,3931 6847,3925 6855,3919 6863,3913 6870,3907 6877,3900 6884,3893 6891,3885 6897,3878 6903,3870 6908,3862 6913,3853 6918,3845 6922,3836 6926,3827 6930,3818 6933,3808 6936,3799 6938,3790 6940,3780 6941,3770 6942,3760 6943,3751 6943,3741 Z"
     id="path11421"
     style="fill:#ffff00" /><path
     fill="rgb(0,69,134)"
     stroke="none"
     d="M 8109,3410 L 8109,3401 8108,3391 8107,3381 8106,3371 8104,3362 8101,3352 8099,3343 8095,3334 8092,3324 8088,3315 8084,3307 8079,3298 8074,3290 8068,3281 8063,3274 8056,3266 8050,3258 8043,3251 8036,3245 8029,3238 8021,3232 8013,3226 8005,3221 7997,3216 7988,3211 7979,3207 7970,3203 7961,3199 7952,3196 7942,3193 7933,3191 7923,3189 7913,3187 7904,3186 7894,3186 7884,3185 7874,3186 7864,3186 7855,3187 7845,3189 7835,3191 7826,3193 7816,3196 7807,3199 7798,3203 7789,3207 7780,3211 7772,3216 7763,3221 7755,3226 7747,3232 7739,3238 7732,3245 7725,3251 7718,3258 7712,3266 7705,3274 7700,3281 7694,3290 7689,3298 7684,3307 7680,3315 7676,3324 7673,3334 7669,3343 7667,3352 7664,3362 7662,3371 7661,3381 7660,3391 7659,3401 7659,3410 7659,3420 7660,3430 7661,3440 7662,3450 7664,3459 7667,3469 7669,3478 7673,3487 7676,3497 7680,3506 7684,3514 7689,3523 7694,3531 7700,3540 7705,3547 7712,3555 7718,3562 7725,3570 7732,3576 7739,3583 7747,3589 7755,3595 7763,3600 7772,3605 7780,3610 7789,3614 7798,3618 7807,3622 7816,3625 7826,3628 7835,3630 7845,3632 7855,3634 7864,3635 7874,3635 7884,3635 7894,3635 7904,3635 7913,3634 7923,3632 7933,3630 7942,3628 7952,3625 7961,3622 7970,3618 7979,3614 7988,3610 7997,3605 8005,3600 8013,3595 8021,3589 8029,3583 8036,3576 8043,3570 8050,3562 8056,3555 8063,3547 8068,3540 8074,3531 8079,3523 8084,3514 8088,3506 8092,3497 8095,3487 8099,3478 8101,3469 8104,3459 8106,3450 8107,3440 8108,3430 8109,3420 8109,3410 Z"
     id="path11423" /><path
     fill="none"
     stroke="rgb(0,69,134)"
     stroke-linejoin="round"
     d="M 8109,3410 L 8109,3401 8108,3391 8107,3381 8106,3371 8104,3362 8101,3352 8099,3343 8095,3334 8092,3324 8088,3315 8084,3307 8079,3298 8074,3290 8068,3281 8063,3274 8056,3266 8050,3258 8043,3251 8036,3245 8029,3238 8021,3232 8013,3226 8005,3221 7997,3216 7988,3211 7979,3207 7970,3203 7961,3199 7952,3196 7942,3193 7933,3191 7923,3189 7913,3187 7904,3186 7894,3186 7884,3185 7874,3186 7864,3186 7855,3187 7845,3189 7835,3191 7826,3193 7816,3196 7807,3199 7798,3203 7789,3207 7780,3211 7772,3216 7763,3221 7755,3226 7747,3232 7739,3238 7732,3245 7725,3251 7718,3258 7712,3266 7705,3274 7700,3281 7694,3290 7689,3298 7684,3307 7680,3315 7676,3324 7673,3334 7669,3343 7667,3352 7664,3362 7662,3371 7661,3381 7660,3391 7659,3401 7659,3410 7659,3420 7660,3430 7661,3440 7662,3450 7664,3459 7667,3469 7669,3478 7673,3487 7676,3497 7680,3506 7684,3514 7689,3523 7694,3531 7700,3540 7705,3547 7712,3555 7718,3562 7725,3570 7732,3576 7739,3583 7747,3589 7755,3595 7763,3600 7772,3605 7780,3610 7789,3614 7798,3618 7807,3622 7816,3625 7826,3628 7835,3630 7845,3632 7855,3634 7864,3635 7874,3635 7884,3635 7894,3635 7904,3635 7913,3634 7923,3632 7933,3630 7942,3628 7952,3625 7961,3622 7970,3618 7979,3614 7988,3610 7997,3605 8005,3600 8013,3595 8021,3589 8029,3583 8036,3576 8043,3570 8050,3562 8056,3555 8063,3547 8068,3540 8074,3531 8079,3523 8084,3514 8088,3506 8092,3497 8095,3487 8099,3478 8101,3469 8104,3459 8106,3450 8107,3440 8108,3430 8109,3420 8109,3410 Z"
     id="path11425"
     style="fill:#ffff00" /><path
     fill="rgb(0,69,134)"
     stroke="none"
     d="M 9275,2640 L 9275,2630 9274,2620 9273,2610 9271,2601 9269,2591 9267,2581 9264,2572 9261,2563 9258,2554 9254,2545 9249,2536 9245,2527 9240,2519 9234,2511 9228,2503 9222,2495 9216,2488 9209,2481 9202,2474 9194,2467 9187,2461 9179,2455 9171,2450 9162,2445 9154,2440 9145,2436 9136,2432 9127,2428 9117,2425 9108,2422 9098,2420 9089,2418 9079,2417 9069,2416 9060,2415 9050,2415 9040,2415 9030,2416 9020,2417 9011,2418 9001,2420 8992,2422 8982,2425 8973,2428 8964,2432 8955,2436 8946,2440 8937,2445 8929,2450 8921,2455 8913,2461 8905,2467 8898,2474 8891,2481 8884,2488 8877,2495 8871,2503 8865,2511 8860,2519 8855,2527 8850,2536 8846,2545 8842,2554 8838,2563 8835,2572 8832,2581 8830,2591 8828,2601 8827,2610 8826,2620 8825,2630 8825,2640 8825,2649 8826,2659 8827,2669 8828,2679 8830,2688 8832,2698 8835,2707 8838,2717 8842,2726 8846,2735 8850,2744 8855,2752 8860,2761 8865,2769 8871,2777 8877,2784 8884,2792 8891,2799 8898,2806 8905,2812 8913,2818 8921,2824 8929,2829 8937,2835 8946,2839 8955,2844 8964,2848 8973,2851 8982,2854 8992,2857 9001,2859 9011,2861 9020,2863 9030,2864 9040,2864 9050,2865 9060,2864 9069,2864 9079,2863 9089,2861 9098,2859 9108,2857 9117,2854 9127,2851 9136,2848 9145,2844 9154,2839 9162,2835 9171,2829 9179,2824 9187,2818 9194,2812 9202,2806 9209,2799 9216,2792 9222,2784 9228,2777 9234,2769 9240,2761 9245,2752 9249,2744 9254,2735 9258,2726 9261,2717 9264,2707 9267,2698 9269,2688 9271,2679 9273,2669 9274,2659 9275,2649 9275,2640 Z"
     id="path11427" /><path
     fill="none"
     stroke="rgb(0,69,134)"
     stroke-linejoin="round"
     d="M 9275,2640 L 9275,2630 9274,2620 9273,2610 9271,2601 9269,2591 9267,2581 9264,2572 9261,2563 9258,2554 9254,2545 9249,2536 9245,2527 9240,2519 9234,2511 9228,2503 9222,2495 9216,2488 9209,2481 9202,2474 9194,2467 9187,2461 9179,2455 9171,2450 9162,2445 9154,2440 9145,2436 9136,2432 9127,2428 9117,2425 9108,2422 9098,2420 9089,2418 9079,2417 9069,2416 9060,2415 9050,2415 9040,2415 9030,2416 9020,2417 9011,2418 9001,2420 8992,2422 8982,2425 8973,2428 8964,2432 8955,2436 8946,2440 8937,2445 8929,2450 8921,2455 8913,2461 8905,2467 8898,2474 8891,2481 8884,2488 8877,2495 8871,2503 8865,2511 8860,2519 8855,2527 8850,2536 8846,2545 8842,2554 8838,2563 8835,2572 8832,2581 8830,2591 8828,2601 8827,2610 8826,2620 8825,2630 8825,2640 8825,2649 8826,2659 8827,2669 8828,2679 8830,2688 8832,2698 8835,2707 8838,2717 8842,2726 8846,2735 8850,2744 8855,2752 8860,2761 8865,2769 8871,2777 8877,2784 8884,2792 8891,2799 8898,2806 8905,2812 8913,2818 8921,2824 8929,2829 8937,2835 8946,2839 8955,2844 8964,2848 8973,2851 8982,2854 8992,2857 9001,2859 9011,2861 9020,2863 9030,2864 9040,2864 9050,2865 9060,2864 9069,2864 9079,2863 9089,2861 9098,2859 9108,2857 9117,2854 9127,2851 9136,2848 9145,2844 9154,2839 9162,2835 9171,2829 9179,2824 9187,2818 9194,2812 9202,2806 9209,2799 9216,2792 9222,2784 9228,2777 9234,2769 9240,2761 9245,2752 9249,2744 9254,2735 9258,2726 9261,2717 9264,2707 9267,2698 9269,2688 9271,2679 9273,2669 9274,2659 9275,2649 9275,2640 Z"
     id="path11429"
     style="fill:#ffff00" /><path
     fill="rgb(0,69,134)"
     stroke="none"
     d="M 10441,2530 L 10440,2520 10440,2510 10439,2500 10437,2490 10435,2481 10433,2471 10430,2462 10427,2453 10423,2443 10419,2434 10415,2426 10410,2417 10405,2409 10400,2400 10394,2393 10388,2385 10381,2378 10375,2370 10368,2364 10360,2357 10352,2351 10345,2345 10336,2340 10328,2335 10319,2330 10311,2326 10302,2322 10292,2318 10283,2315 10274,2312 10264,2310 10255,2308 10245,2306 10235,2305 10225,2305 10216,2305 10206,2305 10196,2305 10186,2306 10176,2308 10167,2310 10157,2312 10148,2315 10139,2318 10129,2322 10120,2326 10112,2330 10103,2335 10095,2340 10086,2345 10079,2351 10071,2357 10063,2364 10056,2370 10050,2378 10043,2385 10037,2393 10031,2400 10026,2409 10021,2417 10016,2426 10012,2434 10008,2443 10004,2453 10001,2462 9998,2471 9996,2481 9994,2490 9992,2500 9991,2510 9991,2520 9991,2530 9991,2539 9991,2549 9992,2559 9994,2569 9996,2578 9998,2588 10001,2597 10004,2607 10008,2616 10012,2625 10016,2633 10021,2642 10026,2650 10031,2659 10037,2667 10043,2674 10050,2682 10056,2689 10063,2695 10071,2702 10079,2708 10086,2714 10095,2719 10103,2724 10112,2729 10120,2733 10129,2737 10139,2741 10148,2744 10157,2747 10167,2749 10176,2751 10186,2753 10196,2754 10206,2754 10216,2755 10225,2754 10235,2754 10245,2753 10255,2751 10264,2749 10274,2747 10283,2744 10292,2741 10302,2737 10311,2733 10319,2729 10328,2724 10336,2719 10345,2714 10352,2708 10360,2702 10368,2695 10375,2689 10381,2682 10388,2674 10394,2667 10400,2659 10405,2650 10410,2642 10415,2633 10419,2625 10423,2616 10427,2607 10430,2597 10433,2588 10435,2578 10437,2569 10439,2559 10440,2549 10440,2539 10441,2530 Z"
     id="path11431" /><path
     fill="none"
     stroke="rgb(0,69,134)"
     stroke-linejoin="round"
     d="M 10441,2530 L 10440,2520 10440,2510 10439,2500 10437,2490 10435,2481 10433,2471 10430,2462 10427,2453 10423,2443 10419,2434 10415,2426 10410,2417 10405,2409 10400,2400 10394,2393 10388,2385 10381,2378 10375,2370 10368,2364 10360,2357 10352,2351 10345,2345 10336,2340 10328,2335 10319,2330 10311,2326 10302,2322 10292,2318 10283,2315 10274,2312 10264,2310 10255,2308 10245,2306 10235,2305 10225,2305 10216,2305 10206,2305 10196,2305 10186,2306 10176,2308 10167,2310 10157,2312 10148,2315 10139,2318 10129,2322 10120,2326 10112,2330 10103,2335 10095,2340 10086,2345 10079,2351 10071,2357 10063,2364 10056,2370 10050,2378 10043,2385 10037,2393 10031,2400 10026,2409 10021,2417 10016,2426 10012,2434 10008,2443 10004,2453 10001,2462 9998,2471 9996,2481 9994,2490 9992,2500 9991,2510 9991,2520 9991,2530 9991,2539 9991,2549 9992,2559 9994,2569 9996,2578 9998,2588 10001,2597 10004,2607 10008,2616 10012,2625 10016,2633 10021,2642 10026,2650 10031,2659 10037,2667 10043,2674 10050,2682 10056,2689 10063,2695 10071,2702 10079,2708 10086,2714 10095,2719 10103,2724 10112,2729 10120,2733 10129,2737 10139,2741 10148,2744 10157,2747 10167,2749 10176,2751 10186,2753 10196,2754 10206,2754 10216,2755 10225,2754 10235,2754 10245,2753 10255,2751 10264,2749 10274,2747 10283,2744 10292,2741 10302,2737 10311,2733 10319,2729 10328,2724 10336,2719 10345,2714 10352,2708 10360,2702 10368,2695 10375,2689 10381,2682 10388,2674 10394,2667 10400,2659 10405,2650 10410,2642 10415,2633 10419,2625 10423,2616 10427,2607 10430,2597 10433,2588 10435,2578 10437,2569 10439,2559 10440,2549 10440,2539 10441,2530 Z"
     id="path11433"
     style="fill:#ffff00" /><text
     class="TextShape"
     id="text11435"
     style="fill:#ffffff;"><tspan
       class="TextParagraph"
       font-family="Lato"
       font-size="353px"
       font-weight="400"
       id="tspan11437"
       style="fill:#ffffff;"><tspan
         class="TextPosition"
         x="1632"
         y="8739"
         id="tspan11439"
         style="fill:#ffffff;"><tspan
           fill="rgb(0,0,0)"
           stroke="none"
           id="tspan11441"
           style="fill:#ffffff;">2008</tspan></tspan></tspan></text>
<text
     class="TextShape"
     id="text11443"
     style="fill:#ffffff;"><tspan
       class="TextParagraph"
       font-family="Lato"
       font-size="353px"
       font-weight="400"
       id="tspan11445"
       style="fill:#ffffff;"><tspan
         class="TextPosition"
         x="2798"
         y="8739"
         id="tspan11447"
         style="fill:#ffffff;"><tspan
           fill="rgb(0,0,0)"
           stroke="none"
           id="tspan11449"
           style="fill:#ffffff;">2009</tspan></tspan></tspan></text>
<text
     class="TextShape"
     id="text11451"
     style="fill:#ffffff;"><tspan
       class="TextParagraph"
       font-family="Lato"
       font-size="353px"
       font-weight="400"
       id="tspan11453"
       style="fill:#ffffff;"><tspan
         class="TextPosition"
         x="3964"
         y="8739"
         id="tspan11455"
         style="fill:#ffffff;"><tspan
           fill="rgb(0,0,0)"
           stroke="none"
           id="tspan11457"
           style="fill:#ffffff;">2010</tspan></tspan></tspan></text>
<text
     class="TextShape"
     id="text11459"
     style="fill:#ffffff;"><tspan
       class="TextParagraph"
       font-family="Lato"
       font-size="353px"
       font-weight="400"
       id="tspan11461"
       style="fill:#ffffff;"><tspan
         class="TextPosition"
         x="5130"
         y="8739"
         id="tspan11463"
         style="fill:#ffffff;"><tspan
           fill="rgb(0,0,0)"
           stroke="none"
           id="tspan11465"
           style="fill:#ffffff;">2011</tspan></tspan></tspan></text>
<text
     class="TextShape"
     id="text11467"
     style="fill:#ffffff;"><tspan
       class="TextParagraph"
       font-family="Lato"
       font-size="353px"
       font-weight="400"
       id="tspan11469"
       style="fill:#ffffff;"><tspan
         class="TextPosition"
         x="6295"
         y="8739"
         id="tspan11471"
         style="fill:#ffffff;"><tspan
           fill="rgb(0,0,0)"
           stroke="none"
           id="tspan11473"
           style="fill:#ffffff;">2012</tspan></tspan></tspan></text>
<text
     class="TextShape"
     id="text11475"
     style="fill:#ffffff;"><tspan
       class="TextParagraph"
       font-family="Lato"
       font-size="353px"
       font-weight="400"
       id="tspan11477"
       style="fill:#ffffff;"><tspan
         class="TextPosition"
         x="7461"
         y="8739"
         id="tspan11479"
         style="fill:#ffffff;"><tspan
           fill="rgb(0,0,0)"
           stroke="none"
           id="tspan11481"
           style="fill:#ffffff;">2013</tspan></tspan></tspan></text>
<text
     class="TextShape"
     id="text11483"
     style="fill:#ffffff;"><tspan
       class="TextParagraph"
       font-family="Lato"
       font-size="353px"
       font-weight="400"
       id="tspan11485"
       style="fill:#ffffff;"><tspan
         class="TextPosition"
         x="8627"
         y="8739"
         id="tspan11487"
         style="fill:#ffffff;"><tspan
           fill="rgb(0,0,0)"
           stroke="none"
           id="tspan11489"
           style="fill:#ffffff;">2014</tspan></tspan></tspan></text>
<text
     class="TextShape"
     id="text11491"
     style="fill:#ffffff;"><tspan
       class="TextParagraph"
       font-family="Lato"
       font-size="353px"
       font-weight="400"
       id="tspan11493"
       style="fill:#ffffff;"><tspan
         class="TextPosition"
         x="9793"
         y="8739"
         id="tspan11495"
         style="fill:#ffffff;"><tspan
           fill="rgb(0,0,0)"
           stroke="none"
           id="tspan11497"
           style="fill:#ffffff;">2015</tspan></tspan></tspan></text>
<text
     class="TextShape"
     id="text11499"
     style="fill:#ffffff;"><tspan
       class="TextParagraph"
       font-family="Lato"
       font-size="353px"
       font-weight="400"
       id="tspan11501"
       style="fill:#ffffff;"><tspan
         class="TextPosition"
         x="429"
         y="8279"
         id="tspan11503"
         style="fill:#ffffff;"><tspan
           fill="rgb(0,0,0)"
           stroke="none"
           id="tspan11505"
           style="fill:#ffffff;">0</tspan></tspan></tspan></text>
<text
     class="TextShape"
     id="text11507"
     style="fill:#ffffff;"><tspan
       class="TextParagraph"
       font-family="Lato"
       font-size="353px"
       font-weight="400"
       id="tspan11509"
       style="fill:#ffffff;"><tspan
         class="TextPosition"
         x="218"
         y="7177"
         id="tspan11511"
         style="fill:#ffffff;"><tspan
           fill="rgb(0,0,0)"
           stroke="none"
           id="tspan11513"
           style="fill:#ffffff;">10</tspan></tspan></tspan></text>
<text
     class="TextShape"
     id="text11515"
     style="fill:#ffffff;"><tspan
       class="TextParagraph"
       font-family="Lato"
       font-size="353px"
       font-weight="400"
       id="tspan11517"
       style="fill:#ffffff;"><tspan
         class="TextPosition"
         x="218"
         y="6076"
         id="tspan11519"
         style="fill:#ffffff;"><tspan
           fill="rgb(0,0,0)"
           stroke="none"
           id="tspan11521"
           style="fill:#ffffff;">20</tspan></tspan></tspan></text>
<text
     class="TextShape"
     id="text11523"
     style="fill:#ffffff;"><tspan
       class="TextParagraph"
       font-family="Lato"
       font-size="353px"
       font-weight="400"
       id="tspan11525"
       style="fill:#ffffff;"><tspan
         class="TextPosition"
         x="218"
         y="4975"
         id="tspan11527"
         style="fill:#ffffff;"><tspan
           fill="rgb(0,0,0)"
           stroke="none"
           id="tspan11529"
           style="fill:#ffffff;">30</tspan></tspan></tspan></text>
<text
     class="TextShape"
     id="text11531"
     style="fill:#ffffff;"><tspan
       class="TextParagraph"
       font-family="Lato"
       font-size="353px"
       font-weight="400"
       id="tspan11533"
       style="fill:#ffffff;"><tspan
         class="TextPosition"
         x="218"
         y="3874"
         id="tspan11535"
         style="fill:#ffffff;"><tspan
           fill="rgb(0,0,0)"
           stroke="none"
           id="tspan11537"
           style="fill:#ffffff;">40</tspan></tspan></tspan></text>
<text
     class="TextShape"
     id="text11539"
     style="fill:#ffffff;"><tspan
       class="TextParagraph"
       font-family="Lato"
       font-size="353px"
       font-weight="400"
       id="tspan11541"
       style="fill:#ffffff;"><tspan
         class="TextPosition"
         x="218"
         y="2773"
         id="tspan11543"
         style="fill:#ffffff;"><tspan
           fill="rgb(0,0,0)"
           stroke="none"
           id="tspan11545"
           style="fill:#ffffff;">50</tspan></tspan></tspan></text>
<text
     class="TextShape"
     id="text11547"
     style="fill:#ffffff;"><tspan
       class="TextParagraph"
       font-family="Lato"
       font-size="353px"
       font-weight="400"
       id="tspan11549"
       style="fill:#ffffff;"><tspan
         class="TextPosition"
         x="218"
         y="1672"
         id="tspan11551"
         style="fill:#ffffff;"><tspan
           fill="rgb(0,0,0)"
           stroke="none"
           id="tspan11553"
           style="fill:#ffffff;">60</tspan></tspan></tspan></text>
<text
     class="TextShape"
     id="text11555"
     style="fill:#ffffff;"><tspan
       class="TextParagraph"
       font-family="Lato"
       font-size="353px"
       font-weight="400"
       id="tspan11557"
       style="fill:#ffffff;"><tspan
         class="TextPosition"
         x="1844"
         y="5758"
         id="tspan11559"
         style="fill:#ffffff;"><tspan
           fill="rgb(0,0,0)"
           stroke="none"
           id="tspan11561"
           style="fill:#ffffff;">18</tspan></tspan></tspan></text>
<text
     class="TextShape"
     id="text11563"
     style="fill:#ffffff;"><tspan
       class="TextParagraph"
       font-family="Lato"
       font-size="353px"
       font-weight="400"
       id="tspan11565"
       style="fill:#ffffff;"><tspan
         class="TextPosition"
         x="3010"
         y="5098"
         id="tspan11567"
         style="fill:#ffffff;"><tspan
           fill="rgb(0,0,0)"
           stroke="none"
           id="tspan11569"
           style="fill:#ffffff;">24</tspan></tspan></tspan></text>
<text
     class="TextShape"
     id="text11571"
     style="fill:#ffffff;"><tspan
       class="TextParagraph"
       font-family="Lato"
       font-size="353px"
       font-weight="400"
       id="tspan11573"
       style="fill:#ffffff;"><tspan
         class="TextPosition"
         x="4176"
         y="4767"
         id="tspan11575"
         style="fill:#ffffff;"><tspan
           fill="rgb(0,0,0)"
           stroke="none"
           id="tspan11577"
           style="fill:#ffffff;">27</tspan></tspan></tspan></text>
<text
     class="TextShape"
     id="text11579"
     style="fill:#ffffff;"><tspan
       class="TextParagraph"
       font-family="Lato"
       font-size="353px"
       font-weight="400"
       id="tspan11581"
       style="fill:#ffffff;"><tspan
         class="TextPosition"
         x="5342"
         y="3777"
         id="tspan11583"
         style="fill:#ffffff;"><tspan
           fill="rgb(0,0,0)"
           stroke="none"
           id="tspan11585"
           style="fill:#ffffff;">36</tspan></tspan></tspan></text>
<text
     class="TextShape"
     id="text11587"
     style="fill:#ffffff;"><tspan
       class="TextParagraph"
       font-family="Lato"
       font-size="353px"
       font-weight="400"
       id="tspan11589"
       style="fill:#ffffff;"><tspan
         class="TextPosition"
         x="6507"
         y="3337"
         id="tspan11591"
         style="fill:#ffffff;"><tspan
           fill="rgb(0,0,0)"
           stroke="none"
           id="tspan11593"
           style="fill:#ffffff;">40</tspan></tspan></tspan></text>
<text
     class="TextShape"
     id="text11595"
     style="fill:#ffffff;"><tspan
       class="TextParagraph"
       font-family="Lato"
       font-size="353px"
       font-weight="400"
       id="tspan11597"
       style="fill:#ffffff;"><tspan
         class="TextPosition"
         x="7673"
         y="3006"
         id="tspan11599"
         style="fill:#ffffff;"><tspan
           fill="rgb(0,0,0)"
           stroke="none"
           id="tspan11601"
           style="fill:#ffffff;">43</tspan></tspan></tspan></text>
<text
     class="TextShape"
     id="text11603"
     style="fill:#ffffff;"><tspan
       class="TextParagraph"
       font-family="Lato"
       font-size="353px"
       font-weight="400"
       id="tspan11605"
       style="fill:#ffffff;"><tspan
         class="TextPosition"
         x="8839"
         y="2236"
         id="tspan11607"
         style="fill:#ffffff;"><tspan
           fill="rgb(0,0,0)"
           stroke="none"
           id="tspan11609"
           style="fill:#ffffff;">50</tspan></tspan></tspan></text>
<text
     class="TextShape"
     id="text11611"
     style="fill:#ffffff;"><tspan
       class="TextParagraph"
       font-family="Lato"
       font-size="353px"
       font-weight="400"
       id="tspan11613"
       style="fill:#ffffff;"><tspan
         class="TextPosition"
         x="10005"
         y="2126"
         id="tspan11615"
         style="fill:#ffffff;"><tspan
           fill="rgb(0,0,0)"
           stroke="none"
           id="tspan11617"
           style="fill:#ffffff;">51</tspan></tspan></tspan></text>
<text
     class="TextShape"
     id="text11619"
     style="fill:#ffffff;"><tspan
       class="TextParagraph"
       font-family="Lato"
       font-size="459px"
       font-weight="400"
       id="tspan11621"
       style="fill:#ffffff;"><tspan
         class="TextPosition"
         x="1963"
         y="903"
         id="tspan11623"
         style="fill:#ffffff;"><tspan
           fill="rgb(0,0,0)"
           stroke="none"
           id="tspan11625"
           style="fill:#ffffff;">Domicílios com acesso a internet (%)</tspan></tspan></tspan></text>
</svg>