<?xml version="1.0" encoding="UTF-8" standalone="no"?>
<!-- Created with Inkscape (http://www.inkscape.org/) -->

<svg
   xmlns:dc="http://purl.org/dc/elements/1.1/"
   xmlns:cc="http://creativecommons.org/ns#"
   xmlns:rdf="http://www.w3.org/1999/02/22-rdf-syntax-ns#"
   xmlns:svg="http://www.w3.org/2000/svg"
   xmlns="http://www.w3.org/2000/svg"
   xmlns:sodipodi="http://sodipodi.sourceforge.net/DTD/sodipodi-0.dtd"
   xmlns:inkscape="http://www.inkscape.org/namespaces/inkscape"
   width="24.922649mm"
   height="35.178425mm"
   viewBox="0 0 88.3086 124.64796"
   id="svg15264"
   version="1.1"
   inkscape:version="0.91 r13725"
   sodipodi:docname="moderno.svg">
  <defs
     id="defs15266" />
  <sodipodi:namedview
     id="base"
     pagecolor="#ffffff"
     bordercolor="#666666"
     borderopacity="1.0"
     inkscape:pageopacity="0.0"
     inkscape:pageshadow="2"
     inkscape:zoom="0.35"
     inkscape:cx="-37.988556"
     inkscape:cy="116.60969"
     inkscape:document-units="px"
     inkscape:current-layer="layer1"
     showgrid="false"
     fit-margin-top="0"
     fit-margin-left="0"
     fit-margin-right="0"
     fit-margin-bottom="0"
     inkscape:window-width="1366"
     inkscape:window-height="768"
     inkscape:window-x="0"
     inkscape:window-y="0"
     inkscape:window-maximized="0" />
  <metadata
     id="metadata15269">
    <rdf:RDF>
      <cc:Work
         rdf:about="">
        <dc:format>image/svg+xml</dc:format>
        <dc:type
           rdf:resource="http://purl.org/dc/dcmitype/StillImage" />
        <dc:title></dc:title>
      </cc:Work>
    </rdf:RDF>
  </metadata>
  <g
     inkscape:label="Layer 1"
     inkscape:groupmode="layer"
     id="layer1"
     transform="translate(-201.55998,-524.32394)">
    <g
       style="display:inline"
       id="g33772"
       transform="matrix(0.24345238,0,0,0.24345238,183.39018,524.32394)">
      <path
         style="fill:#ffffff"
         d="m 1808.9805,705.30469 8.0371,90.14062 36.0625,10.01172 36.164,-10.02539 8.045,-90.12695 -88.3086,0 z m 44.1543,7.37109 36.0957,0 -6.875,77.01563 -29.2207,8.10156 0,-11.47266 -0.051,0.0156 -22.6465,-6.28711 -1.5488,-17.35938 5.1152,0 5.9824,0 0.7871,8.81836 12.3125,3.32422 0.049,-0.0137 0,-17.65625 -24.7403,0 -2.7168,-30.46484 -0.2656,-2.9668 27.6836,0 0.039,0 0,-11.05469 z m -15.6387,22.11133 1.0098,11.32031 14.6289,0 0,-11.32031 -15.6387,0 z"
         transform="matrix(4.1075795,0,0,4.1075795,-7355.8973,-2796.4774)"
         id="polygon33746"
         inkscape:connector-curvature="0" />
      <path
         id="path33754"
         d="m 108.382,0 23.077,0 0,22.8 21.11,0 0,-22.8 23.078,0 0,69.044 -23.077,0 0,-23.12 -21.11,0 0,23.12 -23.077,0 0,-69.044 z"
         inkscape:connector-curvature="0"
         style="fill:#ffffff" />
      <path
         id="path33756"
         d="m 205.994,22.896 -20.316,0 0,-22.896 63.72,0 0,22.896 -20.325,0 0,46.148 -23.078,0 0,-46.148 z"
         inkscape:connector-curvature="0"
         style="fill:#ffffff" />
      <path
         id="path33758"
         d="m 259.511,0 24.063,0 14.802,24.26 14.787,-24.26 24.072,0 0,69.044 -22.982,0 0,-34.222 -15.877,24.549 -0.397,0 -15.888,-24.549 0,34.222 -22.58,0 0,-69.044 z"
         inkscape:connector-curvature="0"
         style="fill:#ffffff" />
      <path
         id="path33760"
         d="m 348.72,0 23.084,0 0,46.222 32.453,0 0,22.822 -55.537,0 0,-69.044 z"
         inkscape:connector-curvature="0"
         style="fill:#ffffff" />
      <polygon
         id="polygon33762"
         points="255.843,386.191 255.843,433.435 348.937,407.634 349.62,399.962 360.291,280.411 361.399,268.217 349.162,268.217 255.843,268.217 255.843,313.627 311.761,313.627 306.49,372.521 "
         style="fill:#ffffff" />
      <polygon
         id="polygon33764"
         points="365.531,221.716 366.442,211.509 368.511,188.488 369.597,176.305 255.843,176.305 255.843,204.509 255.843,221.605 255.843,221.716 365.385,221.716 365.385,221.716 "
         style="fill:#ffffff" />
    </g>
  </g>
</svg>
