<?xml version="1.0" encoding="UTF-8" standalone="no"?>
<!-- Created with Inkscape (http://www.inkscape.org/) -->

<svg
   xmlns:dc="http://purl.org/dc/elements/1.1/"
   xmlns:cc="http://creativecommons.org/ns#"
   xmlns:rdf="http://www.w3.org/1999/02/22-rdf-syntax-ns#"
   xmlns:svg="http://www.w3.org/2000/svg"
   xmlns="http://www.w3.org/2000/svg"
   xmlns:sodipodi="http://sodipodi.sourceforge.net/DTD/sodipodi-0.dtd"
   xmlns:inkscape="http://www.inkscape.org/namespaces/inkscape"
   width="31.715202mm"
   height="31.770716mm"
   viewBox="0 0 112.3767 112.5734"
   id="svg14078"
   version="1.1"
   inkscape:version="0.91 r13725"
   sodipodi:docname="modular.svg">
  <defs
     id="defs14080" />
  <sodipodi:namedview
     id="base"
     pagecolor="#ffffff"
     bordercolor="#666666"
     borderopacity="1.0"
     inkscape:pageopacity="0.0"
     inkscape:pageshadow="2"
     inkscape:zoom="0.35"
     inkscape:cx="234.04549"
     inkscape:cy="-32.28473"
     inkscape:document-units="px"
     inkscape:current-layer="layer1"
     showgrid="false"
     fit-margin-top="0"
     fit-margin-left="0"
     fit-margin-right="0"
     fit-margin-bottom="0"
     inkscape:window-width="1366"
     inkscape:window-height="768"
     inkscape:window-x="0"
     inkscape:window-y="0"
     inkscape:window-maximized="0" />
  <metadata
     id="metadata14083">
    <rdf:RDF>
      <cc:Work
         rdf:about="">
        <dc:format>image/svg+xml</dc:format>
        <dc:type
           rdf:resource="http://purl.org/dc/dcmitype/StillImage" />
        <dc:title></dc:title>
      </cc:Work>
    </rdf:RDF>
  </metadata>
  <g
     inkscape:label="Layer 1"
     inkscape:groupmode="layer"
     id="layer1"
     transform="translate(-80.954507,-387.50407)">
    <path
       style="display:inline;fill:#ffffff"
       inkscape:connector-curvature="0"
       d="m 134.85601,411.78871 c -1.4628,0.0587 -2.8475,0.54878 -3.8108,1.47649 l -0.01,-13.32834 c 0.032,-1.71914 -1.4019,-3.20791 -3.1241,-3.06833 l -12.9848,0.0152 c 0.8404,1.04766 1.4179,2.34825 1.3921,3.72349 0.027,3.18224 -2.6005,5.71262 -5.7825,5.73921 -3.1823,0.0264 -5.7126,-2.60063 -5.7394,-5.78286 -0.058,-1.46273 0.5673,-2.74094 1.4464,-3.75632 l -12.984603,0.015 c -1.7194,-0.0321 -3.2079,1.40183 -3.0682,3.12427 l 0.01,13.32834 c 1.0476,-0.84022 2.3482,-1.41779 3.8113,-1.4763 3.182,-0.0266 5.7124,2.60044 5.739,5.78268 0.027,3.18223 -2.6004,5.71261 -5.7828,5.73903 -1.4628,0.0585 -2.741,-0.5673 -3.7564,-1.44604 l -0.066,12.72527 c -0.032,1.71914 1.4018,3.20773 3.1241,3.06797 l 12.984803,-0.0152 c -0.8789,1.01557 -1.4204,2.38127 -1.446,3.75651 0.027,3.18223 2.5569,5.80909 5.739,5.78268 3.1822,-0.0262 5.8093,-2.5568 5.7827,-5.73903 -0.059,-1.4631 -0.4644,-2.76057 -1.4765,-3.81135 l 12.9848,-0.0149 c 1.7191,0.0321 3.2079,-1.40184 3.068,-3.12428 l 0.066,-12.72508 c 1.0155,0.87873 2.3811,1.42035 3.7563,1.44603 3.1822,-0.0266 5.8091,-2.55716 5.7825,-5.73939 0.1423,-3.00671 -2.4724,-5.72105 -5.655,-5.69483 z"
       id="path33614" />
    <path
       style="display:inline;fill:#ffffff"
       inkscape:connector-curvature="0"
       d="m 116.35741,494.41708 c -0.059,-1.46273 -0.5488,-2.84769 -1.4767,-3.81098 l 13.3282,-0.009 c 1.7191,0.0323 3.2079,-1.40183 3.0683,-3.12391 l -0.015,-12.98498 c -1.0478,0.8404 -2.3482,1.41797 -3.7234,1.39229 -3.1823,0.0266 -5.7127,-2.60062 -5.7393,-5.78249 -0.026,-3.18242 2.6009,-5.71262 5.7829,-5.7394 1.4627,-0.0583 2.7408,0.56749 3.7561,1.44641 l -0.015,-12.98462 c 0.032,-1.71932 -1.4018,-3.20791 -3.1241,-3.06833 l -13.3281,0.009 c 0.84,1.04766 1.4178,2.34825 1.4763,3.81134 0.027,3.18205 -2.6005,5.71243 -5.7825,5.73885 -3.1823,0.0268 -5.7126,-2.60045 -5.7392,-5.78268 -0.058,-1.46291 0.5674,-2.74094 1.4462,-3.75632 l -12.725503,-0.066 c -1.7191,-0.0321 -3.2075,1.40201 -3.0679,3.12409 l 0.015,12.9848 c -1.0156,-0.87892 -2.3813,-1.42036 -3.7565,-1.44622 -3.1823,0.0266 -5.8091,2.55697 -5.7825,5.73903 0.026,3.18223 2.5566,5.80927 5.7388,5.78268 1.4631,-0.0587 2.7606,-0.46423 3.8114,-1.47649 l 0.015,12.9848 c -0.032,1.71914 1.4019,3.20791 3.1241,3.06797 l 12.725103,0.0662 c -0.8787,1.01557 -1.4204,2.38108 -1.446,3.75632 0.027,3.18224 2.5571,5.80909 5.7394,5.7825 3.0069,0.14214 5.7212,-2.47242 5.695,-5.65484 z"
       id="path33616" />
    <path
       style="display:inline;fill:#ffffff"
       inkscape:connector-curvature="0"
       d="m 139.42381,475.72883 c 1.4628,-0.0587 2.8477,-0.54877 3.811,-1.47666 l 0.01,13.32815 c -0.032,1.71914 1.4019,3.20791 3.124,3.06833 l 12.9849,-0.015 c -0.8404,-1.04784 -1.4179,-2.34825 -1.3923,-3.72349 -0.027,-3.18223 2.6007,-5.7128 5.7825,-5.73939 3.1825,-0.0266 5.7126,2.601 5.7394,5.78305 0.058,1.46272 -0.5675,2.74075 -1.4464,3.75613 l 12.9846,-0.015 c 1.7194,0.0323 3.208,-1.40183 3.0684,-3.12409 l -0.01,-13.32815 c -1.0477,0.84004 -2.3483,1.41779 -3.8114,1.4763 -3.182,0.0266 -5.7124,-2.60045 -5.7388,-5.7825 -0.027,-3.18223 2.6004,-5.7128 5.7826,-5.73939 1.463,-0.0583 2.741,0.56748 3.7564,1.44622 l 0.066,-12.72545 c 0.032,-1.71914 -1.402,-3.20755 -3.1241,-3.06797 l -12.9848,0.015 c 0.8789,-1.01556 1.4204,-2.38108 1.4462,-3.75632 -0.027,-3.18224 -2.557,-5.80909 -5.739,-5.78268 -3.1822,0.0262 -5.8093,2.55679 -5.7827,5.73903 0.059,1.46309 0.4642,2.76056 1.4765,3.81116 l -12.9848,0.015 c -1.7191,-0.0323 -3.2079,1.40183 -3.068,3.12409 l -0.066,12.72509 c -1.0155,-0.87874 -2.3811,-1.42036 -3.7563,-1.44622 -3.1822,0.0268 -5.8091,2.55752 -5.7825,5.73957 -0.1423,3.00708 2.4722,5.72142 5.6548,5.69519 z"
       id="path33618" />
    <path
       style="display:inline;fill:#ffffff"
       inkscape:connector-curvature="0"
       d="m 157.92831,393.16448 c 0.059,1.46273 0.5488,2.84769 1.4767,3.81098 l -13.3282,0.009 c -1.7191,-0.0323 -3.2079,1.40183 -3.0683,3.12391 l 0.015,12.98498 c 1.0479,-0.8404 2.3483,-1.41797 3.7235,-1.39229 3.1823,-0.0266 5.7128,2.60062 5.7394,5.78249 0.027,3.18242 -2.601,5.71262 -5.783,5.7394 -1.4628,0.0583 -2.7408,-0.56749 -3.7562,-1.44641 l 0.015,12.98462 c -0.032,1.71932 1.4018,3.20791 3.1241,3.06833 l 13.3281,-0.009 c -0.84,-1.04766 -1.4178,-2.34825 -1.4763,-3.81134 -0.027,-3.18205 2.6005,-5.71243 5.7825,-5.73885 3.1822,-0.0268 5.7126,2.60045 5.7392,5.78268 0.058,1.46292 -0.5675,2.74094 -1.4462,3.75632 l 12.7255,0.066 c 1.7191,0.0321 3.2075,-1.40201 3.0679,-3.12409 l -0.015,-12.9848 c 1.0155,0.87892 2.3811,1.42036 3.7563,1.44622 3.1822,-0.0266 5.8093,-2.55697 5.7827,-5.73903 -0.026,-3.18223 -2.5568,-5.80927 -5.739,-5.78267 -1.4631,0.0587 -2.7606,0.46422 -3.8112,1.47648 l -0.015,-12.9848 c 0.032,-1.71914 -1.4018,-3.20791 -3.124,-3.06797 l -12.7251,-0.0662 c 0.8787,-1.01557 1.4203,-2.38108 1.4462,-3.75632 -0.027,-3.18224 -2.5574,-5.80909 -5.7396,-5.7825 -3.0067,-0.14233 -5.721,2.47224 -5.695,5.65484 z"
       id="path33620" />
  </g>
</svg>
