<?xml version="1.0" encoding="UTF-8" standalone="no"?>
<!-- Created with Inkscape (http://www.inkscape.org/) -->

<svg
   xmlns:dc="http://purl.org/dc/elements/1.1/"
   xmlns:cc="http://creativecommons.org/ns#"
   xmlns:rdf="http://www.w3.org/1999/02/22-rdf-syntax-ns#"
   xmlns:svg="http://www.w3.org/2000/svg"
   xmlns="http://www.w3.org/2000/svg"
   xmlns:sodipodi="http://sodipodi.sourceforge.net/DTD/sodipodi-0.dtd"
   xmlns:inkscape="http://www.inkscape.org/namespaces/inkscape"
   width="64.340797mm"
   height="64.340797mm"
   viewBox="0 0 227.9792 227.9792"
   id="svg17111"
   version="1.1"
   inkscape:version="0.91 r13725"
   sodipodi:docname="oferta.svg">
  <defs
     id="defs17113" />
  <sodipodi:namedview
     id="base"
     pagecolor="#ffffff"
     bordercolor="#666666"
     borderopacity="1.0"
     inkscape:pageopacity="0.0"
     inkscape:pageshadow="2"
     inkscape:zoom="0.35"
     inkscape:cx="220.41818"
     inkscape:cy="59.703894"
     inkscape:document-units="px"
     inkscape:current-layer="layer1"
     showgrid="false"
     fit-margin-top="1"
     fit-margin-left="1"
     fit-margin-right="1"
     fit-margin-bottom="1"
     inkscape:window-width="1366"
     inkscape:window-height="768"
     inkscape:window-x="0"
     inkscape:window-y="0"
     inkscape:window-maximized="0" />
  <metadata
     id="metadata17116">
    <rdf:RDF>
      <cc:Work
         rdf:about="">
        <dc:format>image/svg+xml</dc:format>
        <dc:type
           rdf:resource="http://purl.org/dc/dcmitype/StillImage" />
        <dc:title></dc:title>
      </cc:Work>
    </rdf:RDF>
  </metadata>
  <g
     inkscape:label="Layer 1"
     inkscape:groupmode="layer"
     id="layer1"
     transform="translate(-94.581821,-364.08688)">
    <g
       style="display:inline"
       id="g8529"
       transform="translate(-684.54881,32.520765)">
      <circle
         r="108.48011"
         cy="445.55573"
         cx="893.12024"
         id="circle8491"
         style="color:#000000;clip-rule:nonzero;display:inline;overflow:visible;visibility:visible;opacity:1;isolation:auto;mix-blend-mode:normal;color-interpolation:sRGB;color-interpolation-filters:linearRGB;solid-color:#000000;solid-opacity:1;fill:none;fill-opacity:1;fill-rule:evenodd;stroke:#3cff45;stroke-width:3.93238211;stroke-linecap:butt;stroke-linejoin:miter;stroke-miterlimit:4;stroke-dasharray:none;stroke-dashoffset:0;stroke-opacity:1;color-rendering:auto;image-rendering:auto;shape-rendering:auto;text-rendering:auto;enable-background:accumulate" />
      <g
         style="display:inline"
         id="g6956-7-1-9"
         transform="matrix(0.36392058,0,0,0.36392058,802.83154,355.26703)">
        <path
           id="path6852-5-4-4"
           d="M 496.2,248.1 C 496.2,111.1 385.1,0 248.1,0 111.1,0 0,111.1 0,248.1 c 0,137 111.1,248.1 248.1,248.1 137,0 248.1,-111.1 248.1,-248.1 z"
           style="fill:#32bea6"
           inkscape:connector-curvature="0" />
        <path
           id="path6854-4-5-7"
           d="m 248.1,496.2 c 70.2,0 133.6,-29.2 178.7,-76 -2.8,-15.1 -5.6,-28.9 -8.3,-37.4 -8.5,-27.3 -81.2,-49.3 -170.8,-49.3 -89.6,0 -161.5,22 -170,49.3 -2.6,8.5 -5.5,22.2 -8.3,37.4 45.1,46.8 108.5,76 178.7,76 z"
           style="fill:#295d66"
           inkscape:connector-curvature="0" />
        <path
           id="path6856-4-6-8"
           d="m 293.9,336.2 c -14.5,-1.8 -30,-2.7 -46.1,-2.7 -15.9,0 -31.2,0.9 -45.5,2.7 l 45.8,91 45.8,-91 z"
           style="fill:#dadde0"
           inkscape:connector-curvature="0" />
        <rect
           id="rect6858-9-7-7"
           height="25"
           width="86"
           style="fill:#dee0e2"
           y="324.89999"
           x="205.10001" />
        <path
           id="path6860-3-1-4"
           d="m 248.1,412.1 -37.8,-76.8 c 0,0 9.2,-12.4 37.4,-12.4 28.2,0 38.1,12.5 38.1,12.5 l -37.7,76.7 z"
           style="fill:#e2a379"
           inkscape:connector-curvature="0" />
        <g
           id="g6862-8-6-9">
          <path
             id="path6864-8-5-9"
             d="m 168.1,357.2 37,-32.3 32,63.9 c 0,0 -25.2,7.1 -25.5,6.8 l -43.5,-38.4 z"
             style="fill:#dadde0"
             inkscape:connector-curvature="0" />
          <path
             id="path6866-8-4-0"
             d="m 328.1,357.2 -37,-32.3 -32,63.9 c 0,0 25.2,7.1 25.5,6.8 l 43.5,-38.4 z"
             style="fill:#dadde0"
             inkscape:connector-curvature="0" />
        </g>
        <path
           id="path6868-7-1-9"
           d="m 287,282.1 -77.8,0 c 12.1,36.6 1,53.3 1,53.3 0,0 16.9,6.1 37.9,6.1 21,0 37.9,-6.1 37.9,-6.1 0,0 -11.1,-16.7 1,-53.3 z"
           style="fill:#e2a379"
           inkscape:connector-curvature="0" />
        <path
           id="path6870-9-9-9"
           d="m 336.4,175.2 c 0,-92.4 -39.5,-113.6 -88.3,-113.6 -48.7,0 -88.3,21.2 -88.3,113.6 0,31.3 6.2,55.8 15.5,74.7 20.4,41.6 55.7,56.1 72.8,56.1 17.1,0 52.4,-14.5 72.8,-56.1 9.3,-18.9 15.5,-43.4 15.5,-74.7 z"
           style="fill:#f4b382"
           inkscape:connector-curvature="0" />
        <path
           id="path6872-1-7-0"
           d="m 336.4,175.2 c 0,-92.4 -30.3,-116.1 -88.3,-116.1 -58,0 -88.3,23.7 -88.3,116.1 0,0 16.3,-34.1 28.3,-53.1 12,-19 38,-18.3 38,-18.3 l 49,0 c 0,0 27,0.3 34.5,18.3 l 26.8,53.1 z"
           style="fill:#47200d"
           inkscape:connector-curvature="0" />
        <g
           id="g6874-6-0-3">
          <path
             id="path6876-9-0-4"
             d="m 247.6,292.9 0.5,0 c -0.2,0 -0.3,0 -0.5,0 l 0,0 z"
             style="fill:#191919"
             inkscape:connector-curvature="0" />
          <path
             id="path6878-8-1-8"
             d="m 248.6,292.9 0,0 c -0.2,0 -0.3,0 -0.5,0 l 0.5,0 z"
             style="fill:#191919"
             inkscape:connector-curvature="0" />
        </g>
        <g
           id="g6880-0-1-2">
          <path
             id="path6882-9-1-7"
             d="m 170.4,238.7 c -8.4,1.4 -14.4,0.1 -19.1,-27.7 -4.7,-27.8 1.7,-31.5 10.1,-32.9 l 9,60.6 z"
             style="fill:#f4b382"
             inkscape:connector-curvature="0" />
          <path
             id="path6884-2-3-9"
             d="m 325.9,238.7 c 8.4,1.4 14.3,0.1 19.1,-27.7 4.8,-27.8 -1.7,-31.5 -10.1,-32.9 l -9,60.6 z"
             style="fill:#f4b382"
             inkscape:connector-curvature="0" />
        </g>
        <g
           id="g6886-9-7-0">
          <polygon
             id="polygon6888-3-6-6"
             points="173.2,191 187.1,191.7 186.6,194.6 172.6,193.9 "
             style="fill:#141414" />
          <polygon
             id="polygon6890-9-1-6"
             points="322.6,191 323.2,193.9 309.3,194.6 308.7,191.7 "
             style="fill:#141414" />
          <path
             id="path6892-9-8-8"
             d="m 234.7,179.4 -45.9,0 c -2.1,0 -3.8,1.7 -3.8,3.8 l 0,25.6 c 0,2.1 1.7,3.8 3.8,3.8 l 45.9,0 c 2.1,0 3.8,-1.7 3.8,-3.8 l 0,-25.7 c 0,-2 -1.7,-3.7 -3.8,-3.7 z m -1.9,25.2 c 0,1.7 -1.3,3 -3,3 l -36.3,0 c -1.7,0 -3,-1.3 -3,-3 l 0,-17 c 0,-1.7 1.3,-3 3,-3 l 36.3,0 c 1.7,0 3,1.3 3,3 l 0,17 z"
             style="fill:#141414"
             inkscape:connector-curvature="0" />
          <path
             id="path6894-9-7-5"
             d="m 307.4,179.4 -45.9,0 c -2.1,0 -3.8,1.7 -3.8,3.8 l 0,25.6 c 0,2.1 1.7,3.8 3.8,3.8 l 45.9,0 c 2.1,0 3.8,-1.7 3.8,-3.8 l 0,-25.7 c 0,-2 -1.7,-3.7 -3.8,-3.7 z m -1.8,25.2 c 0,1.7 -1.3,3 -3,3 l -36.3,0 c -1.7,0 -3,-1.3 -3,-3 l 0,-17 c 0,-1.7 1.3,-3 3,-3 l 36.3,0 c 1.7,0 3,1.3 3,3 l 0,17 z"
             style="fill:#141414"
             inkscape:connector-curvature="0" />
          <path
             id="path6896-7-3-0"
             d="m 248,185.6 c -11.2,0 -12.3,6.9 -12,10.4 -0.2,2.9 0.5,1.8 0.5,1.8 2.1,-4.4 6.7,-7.3 11.6,-7.3 4.9,0 9.4,2.9 11.6,7.3 0,0 0.7,1.1 0.5,-1.8 0.1,-3.5 -1,-10.4 -12.2,-10.4 z"
             style="fill:#141414"
             inkscape:connector-curvature="0" />
        </g>
        <g
           id="g6898-9-7-9">
          <path
             id="path6900-6-1-7"
             d="m 305.6,204.6 c 0,1.7 -1.3,3 -3,3 l -36.3,0 c -1.7,0 -3,-1.3 -3,-3 l 0,-17 c 0,-1.7 1.3,-3 3,-3 l 36.3,0 c 1.7,0 3,1.3 3,3 l 0,17 z"
             style="fill:#e8d3bb"
             inkscape:connector-curvature="0" />
          <path
             id="path6902-3-9-6"
             d="m 232.8,204.6 c 0,1.7 -1.3,3 -3,3 l -36.3,0 c -1.7,0 -3,-1.3 -3,-3 l 0,-17 c 0,-1.7 1.3,-3 3,-3 l 36.3,0 c 1.7,0 3,1.3 3,3 l 0,17 z"
             style="fill:#e8d3bb"
             inkscape:connector-curvature="0" />
        </g>
        <path
           id="path6904-0-4-0"
           d="m 274.8,257 c 0,2.6 -11.9,9.5 -26.7,9.5 -14.8,0 -26.7,-7 -26.7,-9.5 0,-1.6 8.5,-6.1 14.1,-6.9 3.6,-0.5 12.5,2.9 12.5,2.9 0,0 8.8,-3.4 12.4,-2.9 5.8,0.8 14.4,6.9 14.4,6.9 z"
           style="fill:#e5a173"
           inkscape:connector-curvature="0" />
        <path
           id="path6906-6-0-8"
           d="m 274.8,257 c 0,2.6 -11.9,12.4 -26.7,12.4 -14.8,0 -26.7,-9.9 -26.7,-12.4 0,0 10.9,1.3 26.7,1.3 15.8,0 26.7,-1.3 26.7,-1.3 z"
           style="fill:#d89364"
           inkscape:connector-curvature="0" />
        <g
           id="g6908-6-8-0">
          <path
             id="path6910-8-0-9"
             d="m 168.6,180.9 2.8,27.6 3.9,-1.9 c -0.2,-23 2.6,-73.8 2.6,-73.8 l -17.3,22.7 c -0.4,6.2 -0.7,12.8 -0.7,19.8 0,0.9 0,1.8 0,2.7 3.9,-0.2 8.7,0.2 8.7,2.9 z"
             style="fill:#47200d"
             inkscape:connector-curvature="0" />
          <path
             id="path6912-3-1-9"
             d="m 327.6,180.9 -2.8,27.6 -3.9,-1.9 c 0.2,-23 -2.6,-82.8 -2.6,-82.8 l 17.3,31.7 c 0.4,6.2 0.7,12.8 0.7,19.8 0,0.9 0,1.8 0,2.7 -3.9,-0.2 -8.7,0.2 -8.7,2.9 z"
             style="fill:#47200d"
             inkscape:connector-curvature="0" />
        </g>
        <g
           id="g6914-3-4-4">
          <path
             id="path6916-5-7-8"
             d="m 311.5,337.4 0,0 0,0 0,0 z"
             style="fill:#ffffff"
             inkscape:connector-curvature="0" />
          <path
             id="path6918-7-7-7"
             d="m 298.5,335.9 0,0 0,0 z"
             style="fill:#ffffff"
             inkscape:connector-curvature="0" />
        </g>
        <g
           id="g6920-2-3-2" />
        <g
           id="g6922-0-9-4" />
        <g
           id="g6924-7-5-8" />
        <g
           id="g6926-3-8-1" />
        <g
           id="g6928-8-5-4" />
        <g
           id="g6930-7-8-8" />
        <g
           id="g6932-2-7-0" />
        <g
           id="g6934-1-2-6" />
        <g
           id="g6936-3-8-3" />
        <g
           id="g6938-3-9-6" />
        <g
           id="g6940-9-6-6" />
        <g
           id="g6942-5-9-5" />
        <g
           id="g6944-3-1-4" />
        <g
           id="g6946-2-1-7" />
        <g
           id="g6948-4-8-7" />
      </g>
    </g>
  </g>
</svg>
