<?xml version="1.0" encoding="UTF-8" standalone="no"?>
<!-- Created with Inkscape (http://www.inkscape.org/) -->

<svg
   xmlns:dc="http://purl.org/dc/elements/1.1/"
   xmlns:cc="http://creativecommons.org/ns#"
   xmlns:rdf="http://www.w3.org/1999/02/22-rdf-syntax-ns#"
   xmlns:svg="http://www.w3.org/2000/svg"
   xmlns="http://www.w3.org/2000/svg"
   xmlns:sodipodi="http://sodipodi.sourceforge.net/DTD/sodipodi-0.dtd"
   xmlns:inkscape="http://www.inkscape.org/namespaces/inkscape"
   width="30.981396mm"
   height="27.477903mm"
   viewBox="0 0 109.7766 97.362649"
   id="svg14669"
   version="1.1"
   inkscape:version="0.91 r13725"
   sodipodi:docname="progressivo.svg">
  <defs
     id="defs14671" />
  <sodipodi:namedview
     id="base"
     pagecolor="#ffffff"
     bordercolor="#666666"
     borderopacity="1.0"
     inkscape:pageopacity="0.0"
     inkscape:pageshadow="2"
     inkscape:zoom="0.35"
     inkscape:cx="12.745439"
     inkscape:cy="74.395608"
     inkscape:document-units="px"
     inkscape:current-layer="layer1"
     showgrid="false"
     fit-margin-top="0"
     fit-margin-left="0"
     fit-margin-right="0"
     fit-margin-bottom="0"
     inkscape:window-width="1366"
     inkscape:window-height="768"
     inkscape:window-x="0"
     inkscape:window-y="0"
     inkscape:window-maximized="0" />
  <metadata
     id="metadata14674">
    <rdf:RDF>
      <cc:Work
         rdf:about="">
        <dc:format>image/svg+xml</dc:format>
        <dc:type
           rdf:resource="http://purl.org/dc/dcmitype/StillImage" />
        <dc:title></dc:title>
      </cc:Work>
    </rdf:RDF>
  </metadata>
  <g
     inkscape:label="Layer 1"
     inkscape:groupmode="layer"
     id="layer1"
     transform="translate(-302.25456,-509.39516)">
    <g
       style="display:inline"
       transform="matrix(0.83101133,0,0,0.83101133,264.02804,462.82665)"
       id="g33901">
      <g
         id="g33876"
         style="fill:#ffffff">
        <path
           id="path33878"
           d="m 112.1,146.2 c -7.4,0 -13.3,6.1 -13.3,13.5 0,7.4 5.9,13.5 13.3,13.5 7.4,0 13.3,-6.1 13.3,-13.5 0.1,-7.6 -5.9,-13.5 -13.3,-13.5 z m -28.2,-15.1 9.4,9.5 c 10.4,-10.5 27.3,-10.5 37.8,0 l 9.4,-9.5 c -15.7,-15.8 -41,-15.8 -56.6,0 z M 65,112 l 9.4,9.5 c 20.9,-21 54.8,-21 75.5,0 l 9.4,-9.5 C 133.4,85.5 90.9,85.5 65,112 Z m -19,-19.1 9.4,9.5 c 31.2,-31.6 82.1,-31.6 113.3,0 l 9.4,-9.5 c -36.4,-37 -95.6,-37 -132.1,0 z"
           inkscape:connector-curvature="0"
           style="fill:#ffffff" />
      </g>
      <rect
         style="color:#000000;clip-rule:nonzero;display:inline;overflow:visible;visibility:visible;opacity:1;isolation:auto;mix-blend-mode:normal;color-interpolation:sRGB;color-interpolation-filters:linearRGB;solid-color:#000000;solid-opacity:1;fill:#ffffff;fill-opacity:1;fill-rule:nonzero;stroke:none;stroke-width:1.5;stroke-linecap:butt;stroke-linejoin:miter;stroke-miterlimit:4;stroke-dasharray:none;stroke-dashoffset:0;stroke-opacity:1;color-rendering:auto;image-rendering:auto;shape-rendering:auto;text-rendering:auto;enable-background:accumulate"
         id="rect33899"
         width="140.50087"
         height="13.95804"
         x="-66.61747"
         y="153.13361"
         transform="matrix(0.70710678,-0.70710678,0.70710678,0.70710678,0,0)" />
    </g>
  </g>
</svg>
