<?xml version="1.0" encoding="UTF-8" standalone="no"?>
<!-- Generator: Adobe Illustrator 18.1.1, SVG Export Plug-In . SVG Version: 6.00 Build 0)  -->

<svg
   xmlns:dc="http://purl.org/dc/elements/1.1/"
   xmlns:cc="http://creativecommons.org/ns#"
   xmlns:rdf="http://www.w3.org/1999/02/22-rdf-syntax-ns#"
   xmlns:svg="http://www.w3.org/2000/svg"
   xmlns="http://www.w3.org/2000/svg"
   xmlns:sodipodi="http://sodipodi.sourceforge.net/DTD/sodipodi-0.dtd"
   xmlns:inkscape="http://www.inkscape.org/namespaces/inkscape"
   version="1.1"
   id="Capa_1"
   x="0px"
   y="0px"
   viewBox="0 0 16.119187 28.462797"
   xml:space="preserve"
   inkscape:version="0.91 r13725"
   sodipodi:docname="smartphone_small.svg"
   width="16.119186"
   height="28.462797"><metadata
     id="metadata8302"><rdf:RDF><cc:Work
         rdf:about=""><dc:format>image/svg+xml</dc:format><dc:type
           rdf:resource="http://purl.org/dc/dcmitype/StillImage" /><dc:title></dc:title></cc:Work></rdf:RDF></metadata><defs
     id="defs8300" /><sodipodi:namedview
     pagecolor="#ffffff"
     bordercolor="#666666"
     borderopacity="1"
     objecttolerance="10"
     gridtolerance="10"
     guidetolerance="10"
     inkscape:pageopacity="0"
     inkscape:pageshadow="2"
     inkscape:window-width="1366"
     inkscape:window-height="768"
     id="namedview8298"
     showgrid="false"
     fit-margin-top="0"
     fit-margin-left="0"
     fit-margin-right="0"
     fit-margin-bottom="0"
     inkscape:zoom="7.4483195"
     inkscape:cx="-20.201315"
     inkscape:cy="14.231398"
     inkscape:window-x="0"
     inkscape:window-y="0"
     inkscape:window-maximized="0"
     inkscape:current-layer="Capa_1" /><g
     id="g8234"
     transform="matrix(0.89830509,0,0,0.89830509,-6.171356,0)"
     style="fill:#ffffff"><path
       d="M 22.507,0 9.175,0 C 7.9,0 6.87,1.034 6.87,2.309 l 0,27.07 c 0,1.271 1.03,2.306 2.305,2.306 l 13.332,0 c 1.273,0 2.307,-1.034 2.307,-2.306 l 0,-27.07 C 24.813,1.034 23.78,0 22.507,0 Z m 0.578,25.672 -14.486,0 0,-21.777 14.486,0 0,21.777 z m -4.153,-23.329 -6.181,0 0,-0.674 6.182,0 -0.001,0.674 0,0 z m 2.645,-0.308 c 0,0.326 -0.266,0.59 -0.591,0.59 -0.326,0 -0.591,-0.265 -0.591,-0.59 0,-0.325 0.265,-0.59 0.591,-0.59 0.326,-0.001 0.591,0.264 0.591,0.59 z m -2.922,27.19 -5.629,0 0,-1.732 5.629,0 0,1.732 z"
       id="path8236"
       inkscape:connector-curvature="0"
       style="fill:#ffffff" /><g
       id="g8238"
       style="fill:#ffffff" /><g
       id="g8240"
       style="fill:#ffffff" /><g
       id="g8242"
       style="fill:#ffffff" /><g
       id="g8244"
       style="fill:#ffffff" /><g
       id="g8246"
       style="fill:#ffffff" /><g
       id="g8248"
       style="fill:#ffffff" /><g
       id="g8250"
       style="fill:#ffffff" /><g
       id="g8252"
       style="fill:#ffffff" /><g
       id="g8254"
       style="fill:#ffffff" /><g
       id="g8256"
       style="fill:#ffffff" /><g
       id="g8258"
       style="fill:#ffffff" /><g
       id="g8260"
       style="fill:#ffffff" /><g
       id="g8262"
       style="fill:#ffffff" /><g
       id="g8264"
       style="fill:#ffffff" /><g
       id="g8266"
       style="fill:#ffffff" /></g><g
     id="g8268"
     transform="translate(-7.7824069,-1.6111016)" /><g
     id="g8270"
     transform="translate(-7.7824069,-1.6111016)" /><g
     id="g8272"
     transform="translate(-7.7824069,-1.6111016)" /><g
     id="g8274"
     transform="translate(-7.7824069,-1.6111016)" /><g
     id="g8276"
     transform="translate(-7.7824069,-1.6111016)" /><g
     id="g8278"
     transform="translate(-7.7824069,-1.6111016)" /><g
     id="g8280"
     transform="translate(-7.7824069,-1.6111016)" /><g
     id="g8282"
     transform="translate(-7.7824069,-1.6111016)" /><g
     id="g8284"
     transform="translate(-7.7824069,-1.6111016)" /><g
     id="g8286"
     transform="translate(-7.7824069,-1.6111016)" /><g
     id="g8288"
     transform="translate(-7.7824069,-1.6111016)" /><g
     id="g8290"
     transform="translate(-7.7824069,-1.6111016)" /><g
     id="g8292"
     transform="translate(-7.7824069,-1.6111016)" /><g
     id="g8294"
     transform="translate(-7.7824069,-1.6111016)" /><g
     id="g8296"
     transform="translate(-7.7824069,-1.6111016)" /></svg>