<?xml version="1.0" encoding="UTF-8" standalone="no"?>
<!-- Created with Inkscape (http://www.inkscape.org/) -->

<svg
   xmlns:dc="http://purl.org/dc/elements/1.1/"
   xmlns:cc="http://creativecommons.org/ns#"
   xmlns:rdf="http://www.w3.org/1999/02/22-rdf-syntax-ns#"
   xmlns:svg="http://www.w3.org/2000/svg"
   xmlns="http://www.w3.org/2000/svg"
   xmlns:sodipodi="http://sodipodi.sourceforge.net/DTD/sodipodi-0.dtd"
   xmlns:inkscape="http://www.inkscape.org/namespaces/inkscape"
   width="28.510817mm"
   height="25.036489mm"
   viewBox="0 0 101.02258 88.71197"
   id="svg12813"
   version="1.1"
   inkscape:version="0.91 r13725"
   sodipodi:docname="umapagina.svg">
  <defs
     id="defs12815" />
  <sodipodi:namedview
     id="base"
     pagecolor="#ffffff"
     bordercolor="#666666"
     borderopacity="1.0"
     inkscape:pageopacity="0.0"
     inkscape:pageshadow="2"
     inkscape:zoom="2.8"
     inkscape:cx="42.758553"
     inkscape:cy="42.545816"
     inkscape:document-units="px"
     inkscape:current-layer="layer1"
     showgrid="false"
     fit-margin-top="0"
     fit-margin-left="0"
     fit-margin-right="0"
     fit-margin-bottom="0"
     inkscape:window-width="1366"
     inkscape:window-height="768"
     inkscape:window-x="0"
     inkscape:window-y="0"
     inkscape:window-maximized="0" />
  <metadata
     id="metadata12818">
    <rdf:RDF>
      <cc:Work
         rdf:about="">
        <dc:format>image/svg+xml</dc:format>
        <dc:type
           rdf:resource="http://purl.org/dc/dcmitype/StillImage" />
        <dc:title></dc:title>
      </cc:Work>
    </rdf:RDF>
  </metadata>
  <g
     inkscape:label="Layer 1"
     inkscape:groupmode="layer"
     id="layer1"
     transform="translate(-114.71258,-528.18946)">
    <path
       style="display:inline;fill:#ffffff"
       d="m 138.13958,542.32313 c -1.72349,0 -2.59745,0.88702 -2.59745,2.6272 l 0,51.29916 c 0,1.95352 0.77717,2.73972 2.75402,2.74306 l 29.69605,0 29.76651,0 c 1.81017,0 2.66634,-0.83996 2.66634,-2.63346 -0.006,-17.12161 -0.009,-34.24422 -0.009,-51.36806 0,-1.77794 -0.88838,-2.6679 -2.66634,-2.6679 l -59.60973,0 z m 3.44447,4.58741 40.44595,0 c 1.36346,0 1.50774,0.14768 1.50774,1.48113 l 0,1.44354 c -0.0133,0.86675 -0.30377,1.16017 -1.18052,1.16017 l -9.17482,0 -11.33388,0 0.003,-0.011 -20.37093,0 c -1.11344,0 -1.37779,-0.23895 -1.37779,-1.33239 l 0,-1.22748 c 0.003,-1.3568 0.14766,-1.514 1.48112,-1.514 z m 49.86345,0.011 a 2.2302098,2.2302098 0 0 1 2.20446,2.33285 2.2602126,2.2602126 0 1 1 -2.20446,-2.33285 z m -51.37119,8.67069 55.80516,0 0,38.86618 -55.80516,0 0,-38.86618 z"
       id="path33185"
       inkscape:connector-curvature="0" />
    <path
       style="display:inline;fill:none;stroke:none;stroke-width:1.66344905px;stroke-linecap:round;stroke-linejoin:round"
       inkscape:connector-curvature="0"
       class="d"
       d="m 167.98913,599.0059 q -14.84806,0 -29.69613,0 c -1.98019,0 -2.75693,-0.78673 -2.75359,-2.74359 q 0,-25.64908 0,-51.29816 c 0,-1.74016 0.87342,-2.62691 2.5969,-2.62691 l 59.61228,0 q 2.66692,0 2.66692,2.66691 0,25.68576 0,51.37151 c 0,1.7935 -0.85008,2.63358 -2.66692,2.63358 l -29.75946,0 0,0 z"
       id="path33187" />
    <path
       style="display:inline;fill:#ffffff"
       inkscape:connector-curvature="0"
       class="e"
       d="m 167.42574,577.09717 c -0.94009,1.33346 -2.22688,1.40013 -3.557,1.17679 -1.24678,-0.21003 -2.08687,-1.22012 -2.15687,-2.63358 -0.0833,-1.70684 -0.08,-3.41699 -0.08,-5.12716 a 0.87341548,0.87341548 0 0 1 1.03011,-0.92675 c 0.58672,0.0366 0.93008,0.31003 0.92342,0.95342 0,1.30013 -0.0167,2.60025 0,3.90037 a 5.0004704,5.0004704 0 0 0 0.16668,1.28012 c 0.18001,0.62672 0.7034,0.82007 1.29678,0.81674 0.5934,-0.003 1.09678,-0.23669 1.25013,-0.87341 a 5.5971932,5.5971932 0 0 0 0.14334,-1.21345 c 0.0167,-1.30013 0,-2.60025 0,-3.90037 a 0.89675104,0.89675104 0 0 1 1.00009,-0.95342 c 0.58339,0 0.96342,0.27669 0.97009,0.91675 0,1.54015 0,3.08363 0.0467,4.62377 0.04,1.14011 0.79674,1.63349 1.87685,1.31346 0.71339,-0.21002 0.86674,-0.79007 0.88007,-1.41347 0.0267,-1.47014 0,-2.93694 0.02,-4.40708 0,-0.78341 0.49339,-1.21678 1.20678,-0.98009 0.31004,0.10334 0.73341,0.51672 0.74008,0.79674 0.0366,1.73017 0,3.46366 -0.0767,5.19383 -0.0633,1.25678 -0.66672,2.25353 -1.94018,2.5669 -1.27345,0.31337 -2.59692,0.33337 -3.57033,-0.85675 -0.0267,-0.0434 -0.0667,-0.11667 -0.17002,-0.25336 z"
       id="path33189" />
    <path
       style="display:inline;fill:#ffffff"
       inkscape:connector-curvature="0"
       class="e"
       d="m 153.93114,577.3072 c -0.75341,0.36003 -1.3968,0.86341 -2.1002,0.96676 -2.50357,0.3667 -3.83036,-0.84675 -3.85703,-3.39032 0,-1.42014 0,-2.84027 0,-4.26374 0,-0.69673 0.33336,-1.04343 1.0001,-1.04343 0.66672,0 0.97675,0.33336 1.00009,1.05676 0.0167,1.49348 0,3.00028 0.0366,4.47709 0,0.61006 0.20669,1.13345 0.88009,1.33346 1.05342,0.3167 1.84017,-0.21335 1.87017,-1.33346 0.04,-1.4668 0.0167,-2.93694 0.0267,-4.40707 0,-0.75341 0.39336,-1.16012 1.07343,-1.13679 0.68006,0.0233 0.92675,0.36671 0.93009,1.10011 0,1.42013 -0.02,2.84361 0,4.26374 0.0233,1.16344 0.66672,1.72683 1.66682,1.56681 0.62339,-0.0967 1.04343,-0.44004 1.0801,-1.07344 0.07,-1.20011 0.0833,-2.40022 0.11335,-3.60367 0,-0.50671 0,-1.00009 0.02,-1.51681 0.02,-0.51671 0.43671,-0.7234 0.90675,-0.72673 0.47004,-0.003 0.97342,0.14668 0.97676,0.73007 0,1.85017 0,3.70701 -0.10335,5.55385"
       id="path33191" />
    <path
       style="display:inline;fill:#ffffff"
       inkscape:connector-curvature="0"
       class="e"
       d="m 181.0937,577.10051 c -0.87675,1.27346 -2.1102,1.36346 -3.39699,1.20678 -1.37013,-0.16668 -2.24355,-1.16011 -2.36356,-2.92361 -0.11335,-1.66682 -0.0567,-3.33364 -0.0366,-4.9838 0,-0.60339 0.48004,-0.80341 1.00009,-0.80675 a 0.86008088,0.86008088 0 0 1 0.96676,0.92343 c 0,1.06009 0,2.1202 0,3.17696 0,0.50672 0,1.0001 0.03,1.51681 0.0667,0.89009 0.53671,1.33346 1.3868,1.33346 0.85008,0 1.33346,-0.44671 1.35679,-1.35013 0.0434,-1.5168 0.04,-3.03362 0.0267,-4.55042 a 0.91675289,0.91675289 0 0 1 0.88343,-1.02344 0.88008282,0.88008282 0 0 1 1.11343,0.94676 c 0,1.44347 0,2.89028 0,4.33374 0.0233,1.05344 0.38671,1.50681 1.18011,1.62015 0.79341,0.11335 1.46013,-0.24669 1.55681,-1.1001 0.11668,-1.00009 0.0933,-2.00019 0.11668,-3.02361 0,-0.65007 0,-1.30013 0,-1.95019 0,-0.58005 0.35003,-0.82675 0.87009,-0.84341 0.52004,-0.0167 1.02675,0.12334 1.03009,0.75007 0.0167,1.78016 0.05,3.567 -0.0567,5.33384 -0.0733,1.23011 -0.6834,2.24687 -2.00018,2.53357 -1.32346,0.30003 -2.66025,0.28335 -3.66368,-1.12011 z"
       id="path33193" />
    <path
       style="display:inline;fill:#ffffff"
       inkscape:connector-curvature="0"
       class="e"
       d="m 190.7646,577.33053 c 0,0.66673 -0.33337,1.00009 -1.00009,1.01677 -0.66673,0.0167 -1.1201,-0.33337 -1.11678,-1.0001 a 1.0000941,1.0000941 0 0 1 1.11011,-1.04343 0.93342112,0.93342112 0 0 1 1.00676,1.02676 z"
       id="path33195" />
    <path
       style="display:inline;fill:none;stroke:none;stroke-width:0.83172452px;stroke-linecap:round;stroke-linejoin:round"
       inkscape:connector-curvature="0"
       class="f"
       d="m 161.84855,550.99472 11.3344,0 q 4.5871,0 9.17419,0 c 0.87675,0 1.16678,-0.29336 1.18012,-1.16011 0,-0.48004 0,-0.96342 0,-1.44347 0,-1.33345 -0.14335,-1.48013 -1.50681,-1.48013 l -40.44714,0 c -1.33346,0 -1.47681,0.15667 -1.48014,1.51347 0,0.41004 0,0.82007 0,1.22678 0,1.09344 0.26336,1.33346 1.37679,1.33346 l 20.37193,0 z"
       id="path33197" />
    <path
       style="display:inline;fill:none;stroke:none;stroke-width:0.83172452px;stroke-linecap:round;stroke-linejoin:round"
       inkscape:connector-curvature="0"
       class="f"
       d="m 191.44799,546.921 a 2.2602126,2.2602126 0 1 0 2.20354,2.33356 2.2302098,2.2302098 0 0 0 -2.20354,-2.33356 z"
       id="path33199" />
    <path
       style="display:inline;fill:none;stroke:none;stroke-width:0.83172452px;stroke-linecap:round;stroke-linejoin:round"
       inkscape:connector-curvature="0"
       class="g"
       d="m 195.88175,555.59182 -55.80525,0 0,38.86699 55.80525,0 0,-38.86699 z"
       id="path33201" />
    <path
       sodipodi:type="star"
       style="color:#000000;clip-rule:nonzero;display:inline;overflow:visible;visibility:visible;opacity:1;isolation:auto;mix-blend-mode:normal;color-interpolation:sRGB;color-interpolation-filters:linearRGB;solid-color:#000000;solid-opacity:1;fill:#ffff00;fill-opacity:1;fill-rule:nonzero;stroke:none;stroke-width:1.50000012;stroke-linecap:butt;stroke-linejoin:miter;stroke-miterlimit:4;stroke-dasharray:none;stroke-dashoffset:0;stroke-opacity:1;color-rendering:auto;image-rendering:auto;shape-rendering:auto;text-rendering:auto;enable-background:accumulate"
       id="path33264"
       sodipodi:sides="4"
       sodipodi:cx="199.29285"
       sodipodi:cy="544.63177"
       sodipodi:r1="16.442324"
       sodipodi:r2="6.429327"
       sodipodi:arg1="1.5707963"
       sodipodi:arg2="2.3561945"
       inkscape:flatsided="false"
       inkscape:rounded="0"
       inkscape:randomized="0"
       d="m 199.29285,561.0741 -4.54622,-11.8961 -11.89611,-4.54622 11.89611,-4.54623 4.54622,-11.8961 4.54622,11.8961 11.8961,4.54622 -11.8961,4.54623 z" />
  </g>
</svg>
